<svg width="24px"  height="24px"  viewBox="0 0 25 24" fill="none" xmlns="http://www.w3.org/2000/svg">
<path fill-rule="evenodd" clip-rule="evenodd" d="M16.5311 5.91516C16.454 5.91516 16.3916 5.85272 16.3916 5.77569C16.3916 4.13769 15.0606 2.80469 13.4236 2.80469H11.1436C9.5076 2.80469 8.1756 4.13769 8.1756 5.77569C8.1756 5.85272 8.11315 5.91516 8.03612 5.91516H7.08011C4.51211 5.91516 2.78711 7.72016 2.78711 10.4052V12.1138C2.78711 12.2397 2.86504 12.3522 2.98368 12.3943C8.61016 14.3927 15.9569 14.3928 21.5825 12.3944C21.7012 12.3523 21.7791 12.2398 21.7791 12.1139V10.4052C21.7791 7.72016 20.0541 5.91516 17.4861 5.91516H16.5311ZM14.8916 5.77569C14.8916 5.85272 14.8292 5.91516 14.7521 5.91516H9.81507C9.73804 5.91516 9.6756 5.85272 9.6756 5.77569C9.6756 4.96469 10.3346 4.30469 11.1436 4.30469H13.4236C14.2336 4.30469 14.8916 4.96469 14.8916 5.77569ZM10.316 11.635H14.252C14.666 11.635 15.002 11.299 15.002 10.885C15.002 10.471 14.666 10.135 14.252 10.135H10.316C9.90204 10.135 9.56604 10.471 9.56604 10.885C9.56604 11.299 9.90204 11.635 10.316 11.635Z" fill="#000000" />
<path opacity="0.4" d="M3.18448 14.044C2.98881 13.9814 2.78711 14.1262 2.78711 14.3317V16.7047C2.78711 19.3907 4.51211 21.1947 7.08011 21.1947H17.4851C20.0541 21.1947 21.7791 19.3907 21.7791 16.7047V14.3318C21.7791 14.1264 21.5774 13.9816 21.3817 14.0442C18.5855 14.9384 15.4346 15.3855 12.2837 15.3855C9.13263 15.3855 5.98155 14.9383 3.18448 14.044Z" fill="#000000" />
</svg>