<svg width="24px"  height="24px"  viewBox="0 0 25 24" fill="none" xmlns="http://www.w3.org/2000/svg">
<path opacity="0.4" d="M7.93225 13.925C7.93225 13.7593 7.79794 13.625 7.63225 13.625H3.0832C2.91752 13.625 2.7832 13.7593 2.7832 13.925V16.7049C2.7832 19.3909 4.5092 21.1949 7.0782 21.1949H17.4872C20.0572 21.1949 21.7832 19.3909 21.7832 16.7049V13.925C21.7832 13.7593 21.6489 13.625 21.4832 13.625H16.9273C16.7616 13.625 16.6273 13.7593 16.6273 13.925V14.9355C16.6273 15.3495 16.2913 15.6855 15.8773 15.6855C15.4633 15.6855 15.1273 15.3495 15.1273 14.9355V13.925C15.1273 13.7593 14.9929 13.625 14.8273 13.625H9.73225C9.56657 13.625 9.43225 13.7593 9.43225 13.925V14.9355C9.43225 15.3495 9.09625 15.6855 8.68225 15.6855C8.26825 15.6855 7.93225 15.3495 7.93225 14.9355V13.925Z" fill="#000000" />
<path fill-rule="evenodd" clip-rule="evenodd" d="M16.3932 5.77569C16.3932 5.85272 16.4556 5.91516 16.5327 5.91516H17.4882C20.0572 5.91516 21.7832 7.71516 21.7832 10.3942V11.8252C21.7832 11.9909 21.6489 12.1252 21.4832 12.1252H15.9045C15.8955 12.1249 15.8864 12.1248 15.8773 12.1248C15.8681 12.1248 15.859 12.1249 15.85 12.1252H8.70955C8.70049 12.1249 8.69139 12.1248 8.68225 12.1248C8.67311 12.1248 8.66401 12.1249 8.65495 12.1252H3.0832C2.91752 12.1252 2.7832 11.9909 2.7832 11.8252V10.3942C2.7832 7.71516 4.5092 5.91516 7.0782 5.91516H8.03472C8.11175 5.91516 8.17419 5.85272 8.17419 5.77569C8.17419 4.13769 9.50619 2.80469 11.1432 2.80469H13.4242C15.0612 2.80469 16.3932 4.13769 16.3932 5.77569ZM14.7537 5.91516C14.8307 5.91516 14.8932 5.85272 14.8932 5.77569C14.8932 4.96469 14.2342 4.30469 13.4242 4.30469H11.1432C10.3332 4.30469 9.67419 4.96469 9.67419 5.77569C9.67419 5.85272 9.73664 5.91516 9.81367 5.91516H14.7537Z" fill="#000000" />
</svg>