<svg width="24px"  height="24px"  viewBox="0 0 25 24" fill="none" xmlns="http://www.w3.org/2000/svg">
<path fill-rule="evenodd" clip-rule="evenodd" d="M16.4277 4.93909H18.3142C20.3652 4.93909 22.0332 6.60809 22.0332 8.66009V11.7101C22.0332 11.9831 21.8852 12.2341 21.6452 12.3661C18.8602 13.9031 15.7242 14.7121 12.5602 14.7121C12.3652 14.7131 12.1722 14.7131 11.9742 14.7121C8.8352 14.7121 5.7032 13.9031 2.9212 12.3661C2.6812 12.2341 2.5332 11.9831 2.5332 11.7101V8.66009C2.5332 6.60809 4.2022 4.93909 6.2542 4.93909H8.13813C8.27628 3.46687 9.51889 2.31055 11.0264 2.31055H13.5384C15.0452 2.31055 16.2897 3.46731 16.4277 4.93909ZM14.9136 4.93909C14.786 4.29657 14.2175 3.81055 13.5384 3.81055H11.0264C10.3463 3.81055 9.7793 4.29657 9.65206 4.93909H14.9136Z" fill="#000000" />
<path opacity="0.4" d="M17.9281 21.6891H6.63609C4.60509 21.6891 2.89509 20.1021 2.74209 18.0751L2.55708 14.7043C2.5232 14.1537 3.10232 14.0267 3.60609 14.2441C6.16478 15.3638 8.71551 15.996 11.2452 16.141C11.4057 16.1502 11.5323 16.2821 11.5323 16.4428V17.6455C11.5323 18.0595 11.8683 18.3955 12.2823 18.3955C12.6963 18.3955 13.0323 18.0595 13.0323 17.6455V16.4522C13.0323 16.2905 13.1605 16.1581 13.3221 16.1502C15.8941 16.0252 18.4404 15.3914 20.9471 14.2491C21.4528 14.0205 22.0387 14.1494 22.0071 14.7043L21.8241 18.0631C21.6701 20.1021 19.9591 21.6891 17.9281 21.6891Z" fill="#000000" />
</svg>