<svg width="24px"  height="24px"  viewBox="0 0 25 24" fill="none" xmlns="http://www.w3.org/2000/svg">
<path opacity="0.4" d="M3.2517 13.5875C3.06714 13.5555 2.89746 13.697 2.89746 13.8843V16.5138C2.89746 19.4748 4.80646 21.6248 7.43746 21.6248H17.1295C19.7595 21.6248 21.6685 19.4748 21.6685 16.5138V13.8852C21.6685 13.6979 21.4988 13.5565 21.3143 13.5885C19.9056 13.8326 18.4012 14.0145 16.8498 14.1342C16.693 14.1463 16.5714 14.2768 16.5714 14.4342V14.4448C16.5714 14.8588 16.2354 15.1948 15.8214 15.1948C15.4074 15.1948 15.0714 14.8588 15.0714 14.4448C15.0714 14.3351 14.9798 14.2476 14.8702 14.2523C14.0137 14.2888 13.1494 14.307 12.2851 14.307C11.4207 14.307 10.5563 14.2888 9.69968 14.2523C9.59006 14.2476 9.49844 14.3351 9.49844 14.4448C9.49844 14.8588 9.16244 15.1948 8.74844 15.1948C8.33444 15.1948 7.99844 14.8588 7.99844 14.4448V14.4341C7.99844 14.2768 7.87689 14.1463 7.72005 14.1342C6.16728 14.0143 4.66158 13.8321 3.2517 13.5875Z" fill="#000000" />
<path fill-rule="evenodd" clip-rule="evenodd" d="M16.3365 5.22772C16.3679 5.3741 16.4934 5.48499 16.6431 5.48499H17.1295C19.7275 5.48499 21.6685 7.58599 21.6685 9.46399V11.7513C21.6685 11.8953 21.5663 12.019 21.4247 12.0451C19.9758 12.3118 18.4149 12.5088 16.8005 12.6361C16.6769 12.6458 16.5714 12.548 16.5714 12.424C16.5714 12.01 16.2354 11.674 15.8214 11.674C15.4074 11.674 15.0714 12.01 15.0714 12.424V12.4589C15.0714 12.6191 14.9457 12.7511 14.7857 12.7578C13.1284 12.8282 11.4414 12.8282 9.78422 12.7578C9.62422 12.751 9.49844 12.619 9.49844 12.4589V12.424C9.49844 12.01 9.16244 11.674 8.74844 11.674C8.33444 11.674 7.99844 12.01 7.99844 12.424C7.99844 12.5479 7.89301 12.6458 7.76941 12.636C6.15341 12.5086 4.59108 12.3112 3.14116 12.0441C2.9996 12.018 2.89746 11.8943 2.89746 11.7503V9.46399C2.89746 7.58599 4.83846 5.48499 7.43746 5.48499H7.9258C8.07551 5.48499 8.20097 5.37411 8.23234 5.22772C8.58134 3.59922 10.0322 2.375 11.7644 2.375H12.8054C14.5368 2.375 15.9875 3.59922 16.3365 5.22772ZM14.4746 5.48499C14.6691 5.48499 14.8124 5.30157 14.7328 5.12415C14.4027 4.3884 13.6629 3.875 12.8054 3.875H11.7644C10.9069 3.875 10.1667 4.38838 9.83628 5.1241C9.7566 5.30152 9.89989 5.48499 10.0944 5.48499H14.4746Z" fill="#000000" />
</svg>