<svg width="24px"  height="24px"  viewBox="0 0 24 24" fill="none" xmlns="http://www.w3.org/2000/svg">
<path fill-rule="evenodd" clip-rule="evenodd" d="M21.4679 7.89935C21.4279 8.45935 21.3579 9.00935 21.2479 9.53935C21.1479 10.1294 21.0079 10.6994 20.8379 11.2494C19.3879 15.8494 15.7279 19.4794 11.1279 20.8794C10.5679 21.0494 9.99785 21.1894 9.41785 21.2894C8.90786 21.3794 8.38785 21.4394 7.85785 21.4794C7.62785 21.4894 7.39785 21.4994 7.14785 21.4994C5.91785 21.4994 4.48785 21.2694 3.59785 20.3694C2.54786 19.3094 2.43785 17.4794 2.52785 16.1394C2.55785 15.6094 2.62785 15.0994 2.71785 14.5894C2.81785 13.9994 2.95785 13.4294 3.11785 12.8694C4.52785 8.26935 8.15786 4.60935 12.7479 3.15935C13.3079 2.98935 13.8779 2.84935 14.4579 2.74935C14.9979 2.63935 15.5379 2.56935 16.0979 2.52935C17.4579 2.42935 19.2979 2.54935 20.3779 3.61935C21.4579 4.69935 21.5679 6.53935 21.4679 7.89935Z" fill="#000000"  fill-opacity="0.4"/>
<path fill-rule="evenodd" clip-rule="evenodd" d="M12.8113 10.1274L9.77529 13.1634C9.48229 13.4564 9.48229 13.9314 9.77529 14.2244C9.92129 14.3704 10.1133 14.4434 10.3053 14.4434C10.4983 14.4434 10.6893 14.3704 10.8353 14.2244L13.8723 11.1884C14.1653 10.8954 14.1653 10.4204 13.8723 10.1274C13.5793 9.8344 13.1043 9.8344 12.8113 10.1274Z" fill="#000000" />
<path fill-rule="evenodd" clip-rule="evenodd" d="M21.2478 9.53902C21.1478 10.129 21.0078 10.699 20.8378 11.249L12.7478 3.15902C13.3078 2.98902 13.8778 2.84902 14.4578 2.74902L21.2478 9.53902Z" fill="#000000" />
<path fill-rule="evenodd" clip-rule="evenodd" d="M11.1278 20.8791C10.5678 21.0491 9.99777 21.1891 9.41777 21.2891L2.71777 14.5891C2.81777 13.9991 2.95777 13.4291 3.11777 12.8691L11.1278 20.8791Z" fill="#000000" />
</svg>