<svg width="24px"  height="24px"  viewBox="0 0 25 24" fill="none" xmlns="http://www.w3.org/2000/svg">
<path fill-rule="evenodd" clip-rule="evenodd" d="M17.2812 18.3701H7.82617C7.41217 18.3701 7.07617 18.0341 7.07617 17.6201C7.07617 17.2061 7.41217 16.8701 7.82617 16.8701H17.2812C17.6952 16.8701 18.0312 17.2061 18.0312 17.6201C18.0312 18.0341 17.6952 18.3701 17.2812 18.3701Z" fill="#000000" />
<path opacity="0.4" fill-rule="evenodd" clip-rule="evenodd" d="M18.2189 5.80332L19.4785 5.78996C19.9225 5.76796 20.3685 5.95496 20.6985 6.27896C21.0295 6.60396 21.2125 7.03796 21.2125 7.49996V20.03C21.2125 20.979 20.4425 21.75 19.4975 21.75H7.49752C5.21252 21.75 3.35352 19.893 3.35352 17.61C3.35352 17.5897 3.35432 17.5697 3.3559 17.5498V6.25C3.3559 4.044 5.1499 2.25 7.3559 2.25H16.5039C17.4499 2.25 18.2189 3.017 18.2189 3.96V5.80332ZM4.85404 17.6631C4.88249 19.0937 6.0573 20.25 7.49752 20.25H19.4975C19.6175 20.25 19.7125 20.153 19.7125 20.03V7.49996C19.7125 7.42496 19.6725 7.37396 19.6475 7.34996C19.6432 7.34575 19.6387 7.34086 19.6339 7.33568C19.6072 7.30641 19.5719 7.26786 19.5005 7.28996L18.2189 7.30351V13.25C18.2189 14.193 17.4499 14.96 16.5039 14.96H7.4989C6.0419 14.96 4.8559 16.148 4.8559 17.61C4.8559 17.6278 4.85527 17.6455 4.85404 17.6631Z" fill="#000000" />
</svg>