<svg width="24px"  height="24px"  viewBox="0 0 25 24" fill="none" xmlns="http://www.w3.org/2000/svg">
<path opacity="0.4" fill-rule="evenodd" clip-rule="evenodd" d="M20.4699 16.0432L20.4769 19.8095C20.4739 20.8815 19.5989 21.7505 18.5279 21.7505H7.32587C5.54087 21.7505 4.08887 20.2975 4.08887 18.5095C4.08887 18.5001 4.08891 18.4907 4.08899 18.4813V5.59C4.08899 3.748 5.58799 2.25 7.42999 2.25H18.521C19.596 2.25 20.47 3.125 20.47 4.2V16.031C20.47 16.0351 20.47 16.0391 20.4699 16.0432ZM5.58887 18.5095C5.58887 17.5555 6.36787 16.7805 7.32587 16.7805H18.9719L18.9769 19.8085C18.9759 20.0515 18.7749 20.2505 18.5279 20.2505H7.32587C6.36787 20.2505 5.58887 19.4695 5.58887 18.5095Z" fill="#000000" />
<path fill-rule="evenodd" clip-rule="evenodd" d="M12.0018 7.87988H9.25781C8.84381 7.87988 8.50781 7.54388 8.50781 7.12988C8.50781 6.71588 8.84381 6.37988 9.25781 6.37988H12.0018C12.4158 6.37988 12.7518 6.71588 12.7518 7.12988C12.7518 7.54388 12.4158 7.87988 12.0018 7.87988M14.7008 11.8699H9.25781C8.84381 11.8699 8.50781 11.5339 8.50781 11.1199C8.50781 10.7059 8.84381 10.3699 9.25781 10.3699H14.7008C15.1148 10.3699 15.4508 10.7059 15.4508 11.1199C15.4508 11.5339 15.1148 11.8699 14.7008 11.8699" fill="#000000" />
</svg>