<svg width="24px"  height="24px"  viewBox="0 0 25 24" fill="none" xmlns="http://www.w3.org/2000/svg">
<path opacity="0.4" d="M3.35545 17.6643C3.35417 17.6464 3.35352 17.6283 3.35352 17.61V6.25C3.35352 4.044 5.14752 2.25 7.35352 2.25H16.2505C17.3355 2.25 18.2175 3.134 18.2175 4.22V13C18.2175 14.081 17.3355 14.96 16.2505 14.96H7.49752C6.05398 14.96 4.87707 16.1245 4.85386 17.5666C4.85469 17.5809 4.8551 17.5954 4.8551 17.61C4.8551 19.065 6.0411 20.25 7.4981 20.25H19.2461C19.5081 20.25 19.7131 20.044 19.7131 19.78V7.12C19.7131 6.706 20.0491 6.37 20.4631 6.37C20.8771 6.37 21.2131 6.706 21.2131 7.12V19.78C21.2131 20.866 20.3311 21.75 19.2461 21.75H7.4981C5.23223 21.75 3.38465 19.9224 3.35545 17.6643Z" fill="#000000" />
<path fill-rule="evenodd" clip-rule="evenodd" d="M17.2812 18.3701H7.82617C7.41217 18.3701 7.07617 18.0341 7.07617 17.6201C7.07617 17.2061 7.41217 16.8701 7.82617 16.8701H17.2812C17.6952 16.8701 18.0312 17.2061 18.0312 17.6201C18.0312 18.0341 17.6952 18.3701 17.2812 18.3701Z" fill="#000000" />
</svg>