<svg width="24px"  height="24px"  viewBox="0 0 25 24" fill="none" xmlns="http://www.w3.org/2000/svg">
<path opacity="0.4" fill-rule="evenodd" clip-rule="evenodd" d="M20.4699 16.0432L20.4769 19.8095C20.4739 20.8815 19.5989 21.7505 18.5279 21.7505H7.32587C5.54087 21.7505 4.08887 20.2975 4.08887 18.5095C4.08887 18.5001 4.08891 18.4907 4.08899 18.4813V5.59C4.08899 3.748 5.58799 2.25 7.42999 2.25H18.521C19.596 2.25 20.47 3.125 20.47 4.2V16.031C20.47 16.0351 20.47 16.0391 20.4699 16.0432ZM5.58887 18.5095C5.58887 17.5555 6.36787 16.7805 7.32587 16.7805H18.9719L18.9769 19.8085C18.9759 20.0515 18.7749 20.2505 18.5279 20.2505H7.32587C6.36787 20.2505 5.58887 19.4695 5.58887 18.5095Z" fill="#000000" />
<path fill-rule="evenodd" clip-rule="evenodd" d="M9.46158 7.23047C9.35058 7.23047 9.14258 7.23047 9.14258 7.59947V9.37947C9.14258 9.75047 9.35058 9.75047 9.46158 9.75047H15.0956C15.2076 9.75047 15.4146 9.75047 15.4146 9.37947V7.59947C15.4146 7.23047 15.2076 7.23047 15.0956 7.23047H9.46158ZM15.0956 11.2505H9.46158C8.40758 11.2505 7.64258 10.4635 7.64258 9.37947V7.59947C7.64258 6.51647 8.40758 5.73047 9.46158 5.73047H15.0956C16.1496 5.73047 16.9146 6.51647 16.9146 7.59947V9.37947C16.9146 10.4635 16.1496 11.2505 15.0956 11.2505V11.2505Z" fill="#000000" />
</svg>