<svg width="24px"  height="24px"  viewBox="0 0 24 24" fill="none" xmlns="http://www.w3.org/2000/svg">
<path opacity="0.4" d="M10.587 20.6526C11.023 20.9066 11.513 21.0336 12.001 21.0336C12.489 21.0336 12.977 20.9066 13.411 20.6546C14.677 19.9276 16.649 19.0286 18.858 18.8696C20.34 18.7726 21.5 17.5516 21.5 16.0906V5.75057C21.5 4.96357 21.164 4.21057 20.577 3.68557C19.981 3.15157 19.182 2.89657 18.383 2.98457C16.099 3.23157 14.146 4.13957 12.91 4.85957C12.35 5.18557 11.652 5.18657 11.09 4.85857C9.854 4.13957 7.902 3.23157 5.619 2.98457C4.821 2.89257 4.019 3.15157 3.424 3.68557C2.837 4.21057 2.5 4.96357 2.5 5.75057V16.0906C2.5 17.5506 3.66 18.7716 5.141 18.8696C7.352 19.0286 9.325 19.9276 10.587 20.6526Z" fill="#000000" />
<path d="M17.7622 8.87802C17.6662 8.87802 17.5712 8.85102 17.4882 8.79602L16.9412 8.43702C16.5912 8.20402 16.1432 8.20402 15.7972 8.43602L15.2482 8.79602C15.0942 8.89802 14.8982 8.90602 14.7362 8.81802C14.5742 8.73102 14.4732 8.56202 14.4732 8.37802V4.06318C15.5387 3.59364 16.8336 3.16843 18.2622 2.99854V8.37802C18.2622 8.56202 18.1612 8.73102 17.9992 8.81802C17.9252 8.85802 17.8442 8.87802 17.7622 8.87802Z" fill="#000000" />
<path d="M12.751 20.9322V4.94227C12.2763 5.15835 11.727 5.15894 11.251 4.94186V20.932C11.4966 20.9998 11.7493 21.0338 12.0016 21.0338C12.2539 21.0338 12.5062 20.9998 12.751 20.9322Z" fill="#000000" />
</svg>