<svg width="24px"  height="24px"  viewBox="0 0 24 24" fill="none" xmlns="http://www.w3.org/2000/svg">
<path opacity="0.4" fill-rule="evenodd" clip-rule="evenodd" d="M6.82523 7.53419H6.20331C4.48431 7.53419 3.02531 8.87519 2.88231 10.5872L2.35431 16.8652C2.25131 18.0862 2.66831 19.3032 3.49731 20.2042C4.32631 21.1072 5.50431 21.6242 6.73031 21.6242H17.2693C18.4953 21.6242 19.6753 21.1062 20.5053 20.2022C21.3343 19.3002 21.7503 18.0822 21.6453 16.8602L21.1113 10.5852C20.9673 8.87419 19.5083 7.53419 17.7903 7.53419H17.1751V7.54013H6.82523V7.53419Z" fill="#000000" />
<path d="M7.93225 12.175C7.93225 14.417 9.75625 16.242 11.9993 16.242C14.2423 16.242 16.0662 14.417 16.0662 12.175C16.0662 11.761 15.7302 11.425 15.3162 11.425C14.9022 11.425 14.5663 11.761 14.5663 12.175C14.5663 13.59 13.4153 14.742 11.9993 14.742C10.5833 14.742 9.43225 13.59 9.43225 12.175C9.43225 11.761 9.09625 11.425 8.68225 11.425C8.26825 11.425 7.93225 11.761 7.93225 12.175Z" fill="#000000" />
<path fill-rule="evenodd" clip-rule="evenodd" d="M17.175 7.53397V7.53992H6.8252V7.53397H7.38525V6.99097C7.38525 4.44598 9.45532 2.37598 12.0002 2.37598C14.5453 2.37598 16.6152 4.44598 16.6152 6.99097V7.53397H17.175ZM12.0002 3.87598C10.2822 3.87598 8.88525 5.27298 8.88525 6.99097V7.53397H15.1152V6.99097C15.1152 5.27298 13.7183 3.87598 12.0002 3.87598Z" fill="#000000" />
</svg>