<svg width="24px"  height="24px"  viewBox="0 0 24 24" fill="none" xmlns="http://www.w3.org/2000/svg">
<path fill-rule="evenodd" clip-rule="evenodd" d="M7.28593 19.0396C6.60693 19.0396 6.05493 19.5916 6.05493 20.2706C6.05493 20.9506 6.60693 21.5026 7.28593 21.5026C7.96493 21.5026 8.51693 20.9506 8.51693 20.2706C8.51693 19.5916 7.96493 19.0396 7.28593 19.0396Z" fill="#000000" />
<path fill-rule="evenodd" clip-rule="evenodd" d="M18.3092 19.0396C17.6302 19.0396 17.0782 19.5916 17.0782 20.2706C17.0782 20.9506 17.6302 21.5026 18.3092 21.5026C18.9882 21.5026 19.5402 20.9506 19.5402 20.2706C19.5402 19.5916 18.9882 19.0396 18.3092 19.0396Z" fill="#000000" />
<path opacity="0.4" fill-rule="evenodd" clip-rule="evenodd" d="M21.3407 7.06675C21.0127 6.62775 20.5317 6.34175 19.9877 6.26275C19.9177 6.25375 19.8747 6.24675 5.9987 6.24175L5.7717 3.53475C5.7427 3.19375 5.4877 2.91675 5.1527 2.85775L3.1277 2.50775C2.7267 2.44075 2.3317 2.71075 2.2607 3.11875C2.1907 3.52675 2.4637 3.91575 2.8717 3.98575L4.3247 4.23675L5.2137 14.8218C5.3197 16.1108 6.4137 17.1188 7.7037 17.1188H18.3297C19.5677 17.1188 20.6307 16.1958 20.8047 14.9718L21.7287 8.59075C21.8077 8.04775 21.6697 7.50575 21.3407 7.06675Z" fill="#000000" />
</svg>