<svg width="24px"  height="24px"  viewBox="0 0 25 24" fill="none" xmlns="http://www.w3.org/2000/svg">
<path opacity="0.4" fill-rule="evenodd" clip-rule="evenodd" d="M22.2801 13.067L21.3101 17.707C20.9101 19.907 19.2801 20.897 17.8401 20.897H8.09006C6.65006 20.897 5.02006 19.907 4.61006 17.697L3.65006 13.057C3.30006 11.537 3.45006 10.347 4.10006 9.52695C4.71006 8.75695 5.69006 8.37695 7.01006 8.37695H18.9201C20.2401 8.37695 21.2201 8.75695 21.8201 9.52695C22.4801 10.347 22.6301 11.537 22.2801 13.067Z" fill="#000000" />
<path fill-rule="evenodd" clip-rule="evenodd" d="M12.0501 4.30675L8.95008 8.37675H7.08008L10.8601 3.40675C11.1101 3.06675 11.5801 3.00675 11.9101 3.25675C12.2401 3.50675 12.3001 3.97675 12.0501 4.30675Z" fill="#000000" />
<path fill-rule="evenodd" clip-rule="evenodd" d="M18.85 8.37687H16.98L13.88 4.30687C13.63 3.97687 13.69 3.50687 14.02 3.25687C14.35 3.00687 14.82 3.07687 15.07 3.40687L18.85 8.37687Z" fill="#000000" />
<path fill-rule="evenodd" clip-rule="evenodd" d="M16.8784 17.2172C16.8164 17.2172 16.7524 17.2092 16.6904 17.1932C16.2884 17.0902 16.0474 16.6802 16.1504 16.2792L17.0994 12.6122C17.2034 12.2112 17.6174 11.9702 18.0134 12.0742C18.4144 12.1772 18.6554 12.5872 18.5524 12.9882L17.6044 16.6552C17.5164 16.9932 17.2114 17.2172 16.8784 17.2172Z" fill="#000000" />
<path fill-rule="evenodd" clip-rule="evenodd" d="M13.0171 17.2172C12.6031 17.2172 12.2671 16.8812 12.2671 16.4672V12.8002C12.2671 12.3862 12.6031 12.0502 13.0171 12.0502C13.4311 12.0502 13.7671 12.3862 13.7671 12.8002V16.4672C13.7671 16.8812 13.4311 17.2172 13.0171 17.2172Z" fill="#000000" />
<path fill-rule="evenodd" clip-rule="evenodd" d="M9.15733 17.2173C8.82333 17.2173 8.51933 16.9933 8.43133 16.6553L7.48333 12.9883C7.38033 12.5873 7.62033 12.1773 8.02133 12.0743C8.42133 11.9693 8.83133 12.2123 8.93533 12.6123L9.88433 16.2793C9.98733 16.6803 9.74633 17.0903 9.34533 17.1933C9.28233 17.2093 9.21933 17.2173 9.15733 17.2173Z" fill="#000000" />
</svg>