<svg width="24px"  height="24px"  viewBox="0 0 24 24" fill="none" xmlns="http://www.w3.org/2000/svg">
<path fill-rule="evenodd" clip-rule="evenodd" d="M15.0065 17.8351L15.0005 17.8341H14.9915C13.7755 17.8251 12.6015 16.4991 12.0635 14.5151C11.8435 13.7251 11.7335 12.8851 11.7335 11.9951C11.7335 11.1051 11.8435 10.2651 12.0635 9.47506C12.6035 7.49506 13.7835 6.16506 15.0035 6.16506C15.9535 6.16506 16.8935 6.96506 17.5035 8.29506C18.5235 10.7751 18.5235 13.1951 17.4935 15.6851C16.8735 17.0341 15.9355 17.8331 15.0065 17.8351ZM18.8735 7.69506C17.9935 5.76606 16.5745 4.66606 15.0055 4.66506L15.0005 4.66406H10.9795C8.30352 4.66406 6.20752 7.88706 6.20752 12.0001C6.20752 16.1121 8.30352 19.3341 10.9795 19.3341H14.9855C14.9915 19.3341 14.9975 19.3351 15.0035 19.3351C16.5635 19.3351 17.9735 18.2351 18.8635 16.3051C18.8735 16.2951 18.8735 16.2851 18.8735 16.2751C20.0535 13.4351 20.0535 10.5551 18.8735 7.69506Z" fill="#000000"  fill-opacity="0.4"/>
<path fill-rule="evenodd" clip-rule="evenodd" d="M4.95742 12.0007C4.95742 11.4516 4.99536 10.9185 5.06256 10.4019C5.08632 10.2192 4.94587 10.0547 4.76163 10.0547H3.55742C2.48142 10.0547 1.60742 10.9287 1.60742 12.0037C1.60742 13.0747 2.48142 13.9457 3.55742 13.9457H4.76118C4.94524 13.9457 5.08564 13.7815 5.06208 13.599C4.99539 13.0822 4.95742 12.5491 4.95742 12.0007Z" fill="#000000" />
<path fill-rule="evenodd" clip-rule="evenodd" d="M20.4467 10.0602H16.1747C15.1037 10.0602 14.2327 10.9312 14.2327 12.0002C14.2327 13.0712 15.1037 13.9412 16.1747 13.9412H20.4467C21.5197 13.9412 22.3927 13.0692 22.3927 11.9962C22.3927 10.9292 21.5197 10.0602 20.4467 10.0602Z" fill="#000000" />
</svg>