<svg width="24px"  height="24px"  viewBox="0 0 25 24" fill="none" xmlns="http://www.w3.org/2000/svg">
<path opacity="0.4" fill-rule="evenodd" clip-rule="evenodd" d="M12.5 2.5C7.262 2.5 3 6.762 3 12C3 17.239 7.262 21.5 12.5 21.5C17.739 21.5 22 17.239 22 12C22 6.762 17.739 2.5 12.5 2.5Z" fill="#000000" />
<path fill-rule="evenodd" clip-rule="evenodd" d="M16.9299 15.4082H14.2729C13.8589 15.4082 13.5229 15.0722 13.5229 14.6582C13.5229 14.2442 13.8589 13.9082 14.2729 13.9082H16.9299C17.3439 13.9082 17.6799 14.2442 17.6799 14.6582C17.6799 15.0722 17.3439 15.4082 16.9299 15.4082Z" fill="#000000" />
<path fill-rule="evenodd" clip-rule="evenodd" d="M15.033 8.23722C15.217 8.05122 15.462 7.94922 15.724 7.94922C16.262 7.94922 16.701 8.38722 16.701 8.92422C16.701 9.46222 16.263 9.89922 15.725 9.89922C15.188 9.89922 14.75 9.46222 14.75 8.92422C14.748 8.66922 14.849 8.42322 15.033 8.23722Z" fill="#000000" />
<path fill-rule="evenodd" clip-rule="evenodd" d="M9.22503 9.89922C8.68803 9.89922 8.25003 9.46222 8.25003 8.92422C8.24803 8.66922 8.34903 8.42322 8.53303 8.23722C8.71703 8.05122 8.96203 7.94922 9.22403 7.94922C9.76203 7.94922 10.201 8.38722 10.201 8.92422C10.201 9.46222 9.76303 9.89922 9.22503 9.89922Z" fill="#000000" />
</svg>