<svg width="24px"  height="24px"  viewBox="0 0 25 24" fill="none" xmlns="http://www.w3.org/2000/svg">
<path opacity="0.4" fill-rule="evenodd" clip-rule="evenodd" d="M12.5 2.5C7.262 2.5 3 6.761 3 12C3 17.238 7.262 21.5 12.5 21.5C17.739 21.5 22 17.238 22 12C22 6.761 17.739 2.5 12.5 2.5Z" fill="#000000" />
<path d="M8.25003 9.02578C8.25003 9.56378 8.68803 10.0008 9.22503 10.0008C9.76303 10.0008 10.201 9.56378 10.201 9.02578C10.201 8.48778 9.76203 8.05078 9.22403 8.05078C8.96203 8.05078 8.71703 8.15278 8.53303 8.33878C8.34903 8.52478 8.24803 8.77078 8.25003 9.02578Z" fill="#000000" />
<path d="M15.725 10.0008C15.188 10.0008 14.75 9.56378 14.75 9.02578C14.748 8.77078 14.849 8.52478 15.033 8.33878C15.217 8.15278 15.462 8.05078 15.724 8.05078C16.262 8.05078 16.701 8.48778 16.701 9.02578C16.701 9.56378 16.263 10.0008 15.725 10.0008Z" fill="#000000" />
<path fill-rule="evenodd" clip-rule="evenodd" d="M9.979 15.0278C9.979 16.4178 11.11 17.5498 12.5 17.5498C13.891 17.5498 15.023 16.4178 15.023 15.0278C15.023 13.6378 13.891 12.5058 12.5 12.5058C11.11 12.5058 9.979 13.6378 9.979 15.0278ZM11.4792 15.0271C11.4792 14.4641 11.9372 14.0061 12.5002 14.0061C13.0632 14.0061 13.5222 14.4641 13.5222 15.0271C13.5222 15.5911 13.0632 16.0491 12.5002 16.0491C11.9372 16.0491 11.4792 15.5911 11.4792 15.0271Z" fill="#000000" />
</svg>