<svg width="24px"  height="24px"  viewBox="0 0 25 24" fill="none" xmlns="http://www.w3.org/2000/svg">
<path opacity="0.4" fill-rule="evenodd" clip-rule="evenodd" d="M12.5 2.5C7.262 2.5 3 6.762 3 12C3 17.238 7.262 21.5 12.5 21.5C17.739 21.5 22 17.238 22 12C22 6.762 17.739 2.5 12.5 2.5Z" fill="#000000" />
<path fill-rule="evenodd" clip-rule="evenodd" d="M16.7189 10.4033C16.5829 10.5073 16.4219 10.5583 16.2629 10.5583C16.0369 10.5583 15.8149 10.4583 15.6669 10.2653C15.5909 10.1663 15.4249 9.99931 15.1739 9.99931C14.9229 9.99931 14.7569 10.1663 14.6809 10.2653C14.4299 10.5933 13.9579 10.6553 13.6289 10.4033C13.3009 10.1513 13.2399 9.67931 13.4909 9.35131C14.3229 8.26831 16.0249 8.26831 16.8569 9.35131C17.1089 9.67931 17.0469 10.1513 16.7189 10.4033Z" fill="#000000" />
<path fill-rule="evenodd" clip-rule="evenodd" d="M15.9749 14.7453C15.1099 15.8733 13.8429 16.5203 12.4999 16.5203C11.1589 16.5203 9.89391 15.8733 9.02591 14.7463C8.77391 14.4173 8.83491 13.9463 9.16291 13.6943C9.49091 13.4413 9.96191 13.5043 10.2149 13.8313C10.7959 14.5873 11.6289 15.0203 12.4999 15.0203C13.3729 15.0203 14.2059 14.5873 14.7849 13.8323C15.0369 13.5043 15.5059 13.4413 15.8369 13.6933C16.1649 13.9453 16.2279 14.4163 15.9749 14.7453Z" fill="#000000" />
<path fill-rule="evenodd" clip-rule="evenodd" d="M8.16203 10.4033C7.83303 10.1523 7.77103 9.68131 8.02303 9.35231C8.85303 8.26831 10.559 8.26831 11.389 9.35231C11.641 9.68131 11.578 10.1523 11.249 10.4033C11.114 10.5083 10.952 10.5583 10.794 10.5583C10.569 10.5583 10.346 10.4573 10.198 10.2643C10.122 10.1653 9.95703 9.99931 9.70503 9.99931C9.45403 9.99931 9.28903 10.1653 9.21403 10.2643C8.96303 10.5923 8.49103 10.6563 8.16203 10.4033Z" fill="#000000" />
</svg>