<svg width="24px"  height="24px"  viewBox="0 0 25 24" fill="none" xmlns="http://www.w3.org/2000/svg">
<path opacity="0.4" fill-rule="evenodd" clip-rule="evenodd" d="M12.5 2.5C7.262 2.5 3 6.761 3 12C3 17.238 7.262 21.5 12.5 21.5C17.739 21.5 22 17.238 22 12C22 6.761 17.739 2.5 12.5 2.5Z" fill="#000000" />
<path fill-rule="evenodd" clip-rule="evenodd" d="M15.725 10.0008C15.188 10.0008 14.75 9.56378 14.75 9.02578C14.748 8.77078 14.849 8.52478 15.033 8.33878C15.217 8.15278 15.462 8.05078 15.724 8.05078C16.262 8.05078 16.701 8.48878 16.701 9.02578C16.701 9.56378 16.263 10.0008 15.725 10.0008Z" fill="#000000" />
<path fill-rule="evenodd" clip-rule="evenodd" d="M15.8369 15.9178C15.5069 16.1708 15.0369 16.1078 14.7859 15.7808C14.2049 15.0248 13.3719 14.5918 12.4999 14.5918C11.6289 14.5918 10.7959 15.0248 10.2149 15.7808C10.0669 15.9728 9.84491 16.0738 9.61991 16.0738C9.45991 16.0738 9.29891 16.0228 9.16291 15.9178C8.83491 15.6658 8.77391 15.1948 9.02591 14.8658C9.89391 13.7388 11.1599 13.0918 12.4999 13.0918C13.8419 13.0918 15.1089 13.7388 15.9749 14.8668C16.2269 15.1948 16.1649 15.6658 15.8369 15.9178Z" fill="#000000" />
<path fill-rule="evenodd" clip-rule="evenodd" d="M8.25003 9.02578C8.24803 8.77078 8.34903 8.52478 8.53303 8.33878C8.71703 8.15278 8.96203 8.05078 9.22403 8.05078C9.76203 8.05078 10.201 8.48878 10.201 9.02578C10.201 9.56378 9.76303 10.0008 9.22503 10.0008C8.68803 10.0008 8.25003 9.56378 8.25003 9.02578Z" fill="#000000" />
</svg>