<svg width="24px"  height="24px"  viewBox="0 0 25 25" fill="none" xmlns="http://www.w3.org/2000/svg">
<path opacity="0.4" fill-rule="evenodd" clip-rule="evenodd" d="M20.6895 18.936V12.356C20.6895 11.044 19.6225 9.97602 18.3115 9.97602H14.4145C14.1385 9.97602 13.9145 10.2 13.9145 10.476V18.936H12.8145V6.54602C12.8145 5.23402 11.7475 4.16602 10.4365 4.16602H6.49153C5.18053 4.16602 4.11353 5.23402 4.11353 6.54602V18.936H20.6895Z" fill="#000000" />
<path d="M8.89552 14.9918H8.03552C7.61552 14.9918 7.28552 15.3318 7.28552 15.7418C7.28552 16.1618 7.61552 16.4918 8.03552 16.4918H8.89552C9.30552 16.4918 9.64552 16.1618 9.64552 15.7418C9.64552 15.3318 9.30552 14.9918 8.89552 14.9918Z" fill="#000000" />
<path d="M8.03552 8.3418C7.61552 8.3418 7.28552 8.6818 7.28552 9.0918C7.28552 9.5118 7.61552 9.8418 8.03552 9.8418H8.89552C9.30552 9.8418 9.64552 9.5118 9.64552 9.0918C9.64552 8.6818 9.30552 8.3418 8.89552 8.3418H8.03552Z" fill="#000000" />
<path d="M8.89552 11.6618H8.03552C7.61552 11.6618 7.28552 12.0018 7.28552 12.4118C7.28552 12.8318 7.61552 13.1618 8.03552 13.1618H8.89552C9.30552 13.1618 9.64552 12.8318 9.64552 12.4118C9.64552 12.0018 9.30552 11.6618 8.89552 11.6618Z" fill="#000000" />
<path d="M17.7355 16.0918H16.8655C16.4555 16.0918 16.1155 16.4318 16.1155 16.8418C16.1155 17.2618 16.4555 17.5918 16.8655 17.5918H17.7355C18.1455 17.5918 18.4855 17.2618 18.4855 16.8418C18.4855 16.4318 18.1455 16.0918 17.7355 16.0918Z" fill="#000000" />
<path d="M17.7355 14.2718C18.1455 14.2718 18.4855 13.9418 18.4855 13.5218C18.4855 13.1118 18.1455 12.7718 17.7355 12.7718H16.8655C16.4555 12.7718 16.1155 13.1118 16.1155 13.5218C16.1155 13.9418 16.4555 14.2718 16.8655 14.2718H17.7355Z" fill="#000000" />
<path d="M22.2248 19.6855C22.2248 19.2755 21.8948 18.9355 21.4748 18.9355H3.46655C3.05655 18.9355 2.71655 19.2755 2.71655 19.6855C2.71655 20.1055 3.05655 20.4355 3.46655 20.4355H21.4748C21.8948 20.4355 22.2248 20.1055 22.2248 19.6855Z" fill="#000000" />
</svg>