<svg width="24px"  height="24px"  viewBox="0 0 25 25" fill="none" xmlns="http://www.w3.org/2000/svg">
<path opacity="0.4" d="M20.0701 11.2458V20.4258H7.76009H6.76009H4.84009V5.15578C4.84009 3.79578 5.96009 2.67578 7.33009 2.67578H11.9401C13.3101 2.67578 14.4201 3.79578 14.4201 5.15578V7.46578C14.4201 7.63147 14.2858 7.76578 14.1201 7.76578H10.2401C8.32009 7.76578 6.76009 9.33578 6.76009 11.2458V20.4258H7.76009V11.2458C7.76009 9.88578 8.88009 8.76578 10.2401 8.76578H17.6001C18.9601 8.76578 20.0701 9.88578 20.0701 11.2458Z" fill="#000000" />
<path d="M12.1601 16.336C12.5685 16.2563 12.838 15.869 12.7611 15.4608C12.7604 15.4576 12.7601 15.4543 12.7601 15.451C12.7601 15.4477 12.7598 15.4443 12.7591 15.441C12.677 15.0437 12.2984 14.7763 11.8801 14.856C11.4801 14.936 11.2101 15.336 11.2901 15.736C11.3601 16.096 11.6701 16.346 12.0201 16.346C12.0701 16.346 12.1201 16.346 12.1601 16.336Z" fill="#000000" />
<path d="M12.0201 13.626C12.0701 13.626 12.1201 13.626 12.1601 13.616C12.5685 13.5363 12.838 13.149 12.7611 12.7408C12.7604 12.7376 12.7601 12.7343 12.7601 12.731C12.7601 12.7277 12.7598 12.7243 12.7591 12.721C12.677 12.3237 12.2984 12.0563 11.8801 12.136C11.4801 12.216 11.2101 12.616 11.2901 13.016C11.3601 13.376 11.6701 13.626 12.0201 13.626Z" fill="#000000" />
<path d="M12.1701 18.996C12.5768 18.9166 12.8358 18.5225 12.762 18.1258C12.7608 18.1193 12.7601 18.1126 12.7601 18.106C12.7601 18.1014 12.7596 18.0974 12.7588 18.0936C12.7534 18.0684 12.7471 18.0432 12.7393 18.0187C12.6243 17.6604 12.2472 17.4386 11.8701 17.516C11.4701 17.596 11.2101 17.996 11.2901 18.406C11.3101 18.486 11.3301 18.566 11.3701 18.636C11.5001 18.866 11.7501 19.006 12.0201 19.006C12.0701 19.006 12.1201 19.006 12.1701 18.996Z" fill="#000000" />
<path d="M15.8001 13.626C15.8501 13.626 15.8901 13.626 15.9401 13.616C16.3478 13.5364 16.6071 13.1504 16.5413 12.743C16.5406 12.7384 16.5384 12.7342 16.5351 12.7309C16.5319 12.7277 16.5297 12.7235 16.5289 12.719C16.4556 12.3228 16.0677 12.0564 15.6601 12.136C15.2501 12.216 14.9901 12.616 15.0601 13.016C15.1301 13.376 15.4501 13.626 15.8001 13.626Z" fill="#000000" />
<path d="M15.9501 18.996C16.3478 18.9164 16.617 18.5206 16.5415 18.1229C16.5406 18.1184 16.5384 18.1142 16.5351 18.111C16.5319 18.1077 16.5297 18.1035 16.5287 18.099C16.4457 17.693 16.0578 17.4364 15.6501 17.516C15.2501 17.596 14.9801 17.996 15.0701 18.406C15.1401 18.766 15.4501 19.006 15.8001 19.006C15.8501 19.006 15.9001 19.006 15.9501 18.996Z" fill="#000000" />
<path d="M15.8001 16.346C15.8501 16.346 15.8901 16.346 15.9401 16.336C16.3478 16.2564 16.6071 15.8704 16.5413 15.463C16.5406 15.4584 16.5384 15.4542 16.5351 15.4509C16.5319 15.4477 16.5297 15.4435 16.5289 15.439C16.4556 15.0428 16.0677 14.7764 15.6601 14.856C15.2501 14.936 14.9901 15.336 15.0601 15.736C15.1301 16.096 15.4501 16.346 15.8001 16.346Z" fill="#000000" />
<path d="M11.0801 6.42596C11.4901 6.38596 11.7901 6.01596 11.7501 5.60596V5.59596C11.7101 5.18596 11.3601 4.89596 10.9301 4.92596C10.5201 4.96596 10.2201 5.33596 10.2601 5.74596C10.3001 6.13596 10.6201 6.42596 11.0001 6.42596H11.0801Z" fill="#000000" />
<path d="M8.26012 6.42596C8.67012 6.38596 8.98012 6.01596 8.94012 5.60596V5.59596C8.90012 5.18596 8.54012 4.89596 8.12012 4.92596C7.71012 4.96596 7.40012 5.33596 7.44012 5.74596C7.48012 6.13596 7.81012 6.42596 8.19012 6.42596H8.26012Z" fill="#000000" />
<path d="M21.7248 21.1758C21.7248 20.7658 21.3948 20.4258 20.9748 20.4258H3.96655C3.55655 20.4258 3.21655 20.7658 3.21655 21.1758C3.21655 21.5958 3.55655 21.9258 3.96655 21.9258H20.9748C21.3948 21.9258 21.7248 21.5958 21.7248 21.1758Z" fill="#000000" />
</svg>