<svg width="24px"  height="24px"  viewBox="0 0 25 25" fill="none" xmlns="http://www.w3.org/2000/svg">
<g opacity="0.4">
<path d="M16.6778 5.94547V19.4955H3.44775V5.94547C3.44775 4.65547 4.50775 3.60547 5.79775 3.60547H14.3278C15.6278 3.60547 16.6778 4.65547 16.6778 5.94547Z" fill="#000000" />
<path d="M21.1065 9.4652V19.4952H17.7465V7.8752C17.7465 7.70951 17.8808 7.5752 18.0465 7.5752H19.2265C20.2665 7.5752 21.1065 8.4252 21.1065 9.4652Z" fill="#000000" />
</g>
<path d="M12.978 17.2269V17.1669C12.968 16.7569 12.608 16.4569 12.208 16.4769C11.788 16.4969 11.468 16.8669 11.488 17.2769C11.498 17.6869 11.828 17.9969 12.238 17.9969H12.258C12.678 17.9869 12.998 17.6369 12.978 17.2269Z" fill="#000000" />
<path d="M12.238 14.8669H12.258C12.678 14.8569 12.998 14.5069 12.978 14.0869V14.0369C12.968 13.6269 12.608 13.3269 12.208 13.3469C11.788 13.3669 11.468 13.7369 11.488 14.1469C11.498 14.5569 11.828 14.8669 12.238 14.8669Z" fill="#000000" />
<path d="M8.54796 17.2269V17.1669C8.53796 16.7569 8.16796 16.4569 7.76796 16.4769C7.35796 16.4969 7.03796 16.8669 7.04796 17.2769C7.06796 17.6869 7.39796 17.9969 7.79796 17.9969H7.82796C8.24796 17.9869 8.56796 17.6369 8.54796 17.2269Z" fill="#000000" />
<path d="M7.79796 14.8669H7.82796C8.24796 14.8569 8.56796 14.5069 8.54796 14.0869V14.0369C8.52796 13.6269 8.16796 13.3269 7.76796 13.3469C7.35796 13.3669 7.03796 13.7369 7.04796 14.1469C7.06796 14.5569 7.39796 14.8669 7.79796 14.8669Z" fill="#000000" />
<path d="M7.75796 8.85687C7.75796 9.27688 8.09796 9.60687 8.50796 9.60687H9.31796V10.4069C9.31796 10.8269 9.64796 11.1569 10.068 11.1569C10.478 11.1569 10.818 10.8269 10.818 10.4069V9.60687H11.618C12.028 9.60687 12.368 9.27688 12.368 8.85687C12.368 8.44688 12.028 8.10687 11.618 8.10687H10.818V7.29688C10.818 6.88687 10.478 6.54688 10.068 6.54688C9.64796 6.54688 9.31796 6.88687 9.31796 7.29688V8.10687H8.50796C8.09796 8.10687 7.75796 8.44688 7.75796 8.85687Z" fill="#000000" />
<path d="M21.728 19.4961C22.148 19.4961 22.478 19.8361 22.478 20.2461C22.478 20.6661 22.148 20.9961 21.728 20.9961H3.21338C2.80338 20.9961 2.46338 20.6661 2.46338 20.2461C2.46338 19.8361 2.80338 19.4961 3.21338 19.4961H21.728Z" fill="#000000" />
</svg>