<svg width="24px"  height="24px"  viewBox="0 0 25 25" fill="none" xmlns="http://www.w3.org/2000/svg">
<path opacity="0.4" fill-rule="evenodd" clip-rule="evenodd" d="M15.7773 8.80802C15.7773 8.80531 15.7762 8.8027 15.7743 8.80078C15.7724 8.79886 15.7713 8.79626 15.7713 8.79354V4.63078C15.7713 3.62178 14.9503 2.80078 13.9403 2.80078H10.6033C9.59331 2.80078 8.77131 3.62178 8.77131 4.63078V5.40078C8.77131 5.56647 8.637 5.70078 8.47131 5.70078H5.00031C3.99031 5.70078 3.16931 6.52178 3.16931 7.53078V19.9708C3.16931 20.9798 3.99031 21.8008 5.00031 21.8008H15.4773C15.643 21.8008 15.7773 21.6665 15.7773 21.5008V8.80802Z" fill="#000000" />
<path fill-rule="evenodd" clip-rule="evenodd" d="M19.94 8.80078H17.377C17.2113 8.80078 17.077 8.9351 17.077 9.10078V21.5008C17.077 21.6665 17.2113 21.8008 17.377 21.8008H19.94C20.95 21.8008 21.772 20.9798 21.772 19.9708V10.6308C21.772 9.62178 20.95 8.80078 19.94 8.80078Z" fill="#000000" />
<path d="M11.4774 10.7606C11.5244 10.7606 11.5714 10.7566 11.6184 10.7476C12.0254 10.6696 12.2924 10.2776 12.2154 9.87061L12.2134 9.86061C12.1354 9.45261 11.7384 9.19061 11.3374 9.26861C10.9304 9.34661 10.6634 9.74461 10.7414 10.1506C10.8094 10.5106 11.1244 10.7606 11.4774 10.7606Z" fill="#000000" />
<path d="M11.3304 12.9306C10.9244 13.0116 10.6614 13.4116 10.7434 13.8176C10.8144 14.1736 11.1274 14.4206 11.4774 14.4206C11.5264 14.4206 11.5764 14.4156 11.6254 14.4056C12.0314 14.3246 12.2954 13.9296 12.2134 13.5236L12.2114 13.5136C12.1304 13.1076 11.7384 12.8496 11.3304 12.9306Z" fill="#000000" />
<path d="M11.4774 18.0106C11.5244 18.0106 11.5714 18.0066 11.6184 17.9976C12.0254 17.9196 12.2924 17.5276 12.2154 17.1206L12.2134 17.1106C12.1354 16.7036 11.7384 16.4376 11.3374 16.5186C10.9304 16.5966 10.6634 16.9946 10.7414 17.4006C10.8094 17.7606 11.1244 18.0106 11.4774 18.0106Z" fill="#000000" />
<path d="M7.47537 10.7606C7.52237 10.7606 7.56937 10.7566 7.61637 10.7476C8.02337 10.6696 8.29037 10.2776 8.21337 9.87061L8.21137 9.86061C8.13337 9.45261 7.73637 9.19061 7.33537 9.26861C6.92837 9.34661 6.66137 9.74461 6.73937 10.1506C6.80737 10.5106 7.12237 10.7606 7.47537 10.7606Z" fill="#000000" />
<path d="M7.32837 12.9306C6.92237 13.0116 6.65937 13.4116 6.74137 13.8176C6.81237 14.1736 7.12537 14.4206 7.47537 14.4206C7.52437 14.4206 7.57437 14.4156 7.62337 14.4056C8.02937 14.3246 8.29337 13.9296 8.21137 13.5236L8.20937 13.5136C8.12837 13.1076 7.73337 12.8496 7.32837 12.9306Z" fill="#000000" />
<path d="M7.47537 18.0106C7.52237 18.0106 7.56937 18.0066 7.61637 17.9976C8.02337 17.9196 8.29037 17.5276 8.21337 17.1206L8.21137 17.1106C8.13337 16.7036 7.73637 16.4376 7.33537 16.5186C6.92837 16.5966 6.66137 16.9946 6.73937 17.4006C6.80737 17.7606 7.12237 18.0106 7.47537 18.0106Z" fill="#000000" />
</svg>