<svg width="24px"  height="24px"  viewBox="0 0 25 25" fill="none" xmlns="http://www.w3.org/2000/svg">
<path opacity="0.4" fill-rule="evenodd" clip-rule="evenodd" d="M20.8046 18.8513V10.6813C20.8046 10.1213 20.5546 9.57133 20.1346 9.19133C19.7146 8.81133 19.1446 8.63133 18.5846 8.70133L14.5229 9.13283C14.3704 9.14903 14.2546 9.27773 14.2546 9.43115V18.8513H13.2346V6.75133C13.2346 5.72133 12.4646 4.86133 11.4346 4.76133L6.45464 4.26133C5.88464 4.20133 5.32464 4.38133 4.90464 4.76133C4.49464 5.14133 4.25464 5.68133 4.25464 6.24133V18.8513H20.8046Z" fill="#000000" />
<path d="M9.49475 8.93164C9.49475 9.35164 9.15475 9.68164 8.74475 9.68164C8.32475 9.68164 7.99475 9.35164 7.99475 8.93164C7.99475 8.52164 8.32475 8.18164 8.74475 8.18164C9.15475 8.18164 9.49475 8.51164 9.49475 8.92164V8.93164Z" fill="#000000" />
<path d="M17.3548 14.1216C17.7648 14.1216 18.1048 13.7916 18.1048 13.3716V13.3616C18.1048 12.9516 17.7648 12.6216 17.3548 12.6216C16.9348 12.6216 16.6048 12.9616 16.6048 13.3716C16.6048 13.7916 16.9348 14.1216 17.3548 14.1216Z" fill="#000000" />
<path d="M17.3548 17.0716C17.7648 17.0716 18.1048 16.7416 18.1048 16.3216V16.3116C18.1048 15.9016 17.7648 15.5716 17.3548 15.5716C16.9348 15.5716 16.6048 15.9116 16.6048 16.3216C16.6048 16.7416 16.9348 17.0716 17.3548 17.0716Z" fill="#000000" />
<path d="M8.74475 13.0116C9.15475 13.0116 9.49475 12.6816 9.49475 12.2616V12.2516C9.49475 11.8416 9.15475 11.5116 8.74475 11.5116C8.32475 11.5116 7.99475 11.8516 7.99475 12.2616C7.99475 12.6816 8.32475 13.0116 8.74475 13.0116Z" fill="#000000" />
<path d="M9.49475 18.8516V16.4016C9.49475 15.9916 9.15475 15.6516 8.74475 15.6516C8.32475 15.6516 7.99475 15.9916 7.99475 16.4016V18.8516H3.46655C3.05655 18.8516 2.71655 19.1916 2.71655 19.6016C2.71655 20.0216 3.05655 20.3516 3.46655 20.3516H21.4748C21.8948 20.3516 22.2248 20.0216 22.2248 19.6016C22.2248 19.1916 21.8948 18.8516 21.4748 18.8516H9.49475Z" fill="#000000" />
</svg>