<svg width="24px"  height="24px"  viewBox="0 0 25 25" fill="none" xmlns="http://www.w3.org/2000/svg">
<g opacity="0.4">
<path fill-rule="evenodd" clip-rule="evenodd" d="M15.8857 4.63078C15.8857 3.63078 15.0657 2.80078 14.0557 2.80078H10.7157C9.70566 2.80078 8.88566 3.63078 8.88566 4.63078V5.40078C8.88566 5.56647 8.75135 5.70078 8.58566 5.70078H4.88566C3.87566 5.70078 3.05566 6.53078 3.05566 7.53078V19.9708C3.05566 20.9808 3.87566 21.8008 4.88566 21.8008H15.5957C15.7613 21.8008 15.8957 21.6665 15.8957 21.5008V8.80578C15.8957 8.80302 15.8934 8.80078 15.8907 8.80078C15.8879 8.80078 15.8857 8.79854 15.8857 8.79578V4.63078Z" fill="#000000" />
<path fill-rule="evenodd" clip-rule="evenodd" d="M20.0558 8.80078H17.4958C17.3301 8.80078 17.1958 8.9351 17.1958 9.10078V21.5008C17.1958 21.6665 17.3301 21.8008 17.4958 21.8008H20.0558C21.0658 21.8008 21.8858 20.9808 21.8858 19.9708V10.6308C21.8858 9.63078 21.0658 8.80078 20.0558 8.80078Z" fill="#000000" />
</g>
<path d="M19.4058 18.0005C19.8142 17.9208 20.0837 17.5335 20.0068 17.1253C20.0061 17.1221 20.0058 17.1188 20.0058 17.1155C20.0058 17.1122 20.0055 17.1088 20.0048 17.1055C19.9226 16.7082 19.5341 16.4408 19.1258 16.5205C18.7158 16.6005 18.4558 17.0005 18.5358 17.4005C18.5958 17.7605 18.9158 18.0105 19.2658 18.0105C19.3158 18.0105 19.3658 18.0105 19.4058 18.0005Z" fill="#000000" />
<path d="M19.2658 14.4205C19.3158 14.4205 19.3658 14.4205 19.4158 14.4105C19.8242 14.3308 20.0838 13.9336 20.0067 13.5352C20.0061 13.532 20.0058 13.5289 20.0058 13.5257C20.0058 13.5222 20.0054 13.5187 20.0047 13.5153C19.9126 13.1083 19.5241 12.8508 19.1158 12.9305C18.7158 13.0105 18.4558 13.4105 18.5358 13.8205C18.6058 14.1805 18.9158 14.4205 19.2658 14.4205Z" fill="#000000" />
<path d="M11.3857 10.7609C11.4357 10.7609 11.4757 10.7609 11.5257 10.7509C11.934 10.6712 12.2035 10.284 12.1266 9.87578C12.126 9.87255 12.1257 9.86924 12.1257 9.86596C12.1257 9.86259 12.1253 9.85921 12.1246 9.85592C12.0425 9.45866 11.6639 9.19123 11.2457 9.2709C10.8357 9.3509 10.5757 9.7509 10.6557 10.1509C10.7157 10.5109 11.0357 10.7609 11.3857 10.7609Z" fill="#000000" />
<path d="M11.5257 18.0009C11.934 17.9212 12.2035 17.534 12.1266 17.1258C12.126 17.1225 12.1257 17.1192 12.1257 17.116C12.1257 17.1126 12.1253 17.1092 12.1246 17.1059C12.0425 16.7087 11.6639 16.4412 11.2457 16.5209C10.8357 16.6009 10.5757 17.0009 10.6557 17.4009C10.7157 17.7609 11.0357 18.0109 11.3857 18.0109C11.4357 18.0109 11.4757 18.0109 11.5257 18.0009Z" fill="#000000" />
<path d="M11.3857 14.4209C11.4357 14.4209 11.4857 14.4209 11.5357 14.4109C11.944 14.3312 12.2036 13.934 12.1266 13.5356C12.126 13.5325 12.1257 13.5293 12.1257 13.5261C12.1257 13.5227 12.1253 13.5192 12.1245 13.5158C12.0324 13.1087 11.6439 12.8512 11.2357 12.9309C10.8357 13.0109 10.5757 13.4109 10.6557 13.8209C10.7257 14.1809 11.0357 14.4209 11.3857 14.4209Z" fill="#000000" />
<path d="M7.38565 10.7609C7.43565 10.7609 7.47565 10.7609 7.52565 10.7509C7.93331 10.6714 8.19267 10.2853 8.12682 9.87793C8.12609 9.87337 8.1239 9.86914 8.12064 9.86588C8.11739 9.86264 8.11523 9.85844 8.1144 9.85393C8.04112 9.45777 7.65327 9.19136 7.24565 9.2709C6.83565 9.3509 6.57565 9.7509 6.64565 10.1509C6.71565 10.5109 7.03565 10.7609 7.38565 10.7609Z" fill="#000000" />
<path d="M7.52565 18.0009C7.93331 17.9214 8.19267 17.5353 8.12682 17.1279C8.12609 17.1234 8.1239 17.1191 8.12064 17.1159C8.11739 17.1126 8.11523 17.1084 8.1144 17.1039C8.04112 16.7078 7.65327 16.4414 7.24565 16.5209C6.83565 16.6009 6.57565 17.0009 6.64565 17.4009C6.71565 17.7609 7.03565 18.0109 7.38565 18.0109C7.43565 18.0109 7.47565 18.0109 7.52565 18.0009Z" fill="#000000" />
<path d="M7.38565 14.4209C7.43565 14.4209 7.48565 14.4209 7.53565 14.4109C7.93334 14.3314 8.20253 13.9355 8.12701 13.5378C8.12615 13.5333 8.12392 13.5292 8.12067 13.5259C8.1174 13.5226 8.11518 13.5184 8.11425 13.5139C8.0312 13.1079 7.64332 12.8514 7.23565 12.9309C6.83565 13.0109 6.56565 13.4109 6.64565 13.8209C6.72565 14.1809 7.03565 14.4209 7.38565 14.4209Z" fill="#000000" />
</svg>