<svg width="24px"  height="24px"  viewBox="0 0 25 25" fill="none" xmlns="http://www.w3.org/2000/svg">
<path opacity="0.4" fill-rule="evenodd" clip-rule="evenodd" d="M20.6758 20.3336V5.41758C20.6758 3.95658 19.4889 2.76758 18.0309 2.76758H7.09585C5.63685 2.76758 4.45085 3.95658 4.45085 5.41758V20.3336C-0.362565 20.3336 20.6758 20.3336 20.6758 20.3336Z" fill="#000000" />
<path d="M10.2408 9.70324C10.7608 9.70324 11.1908 9.28324 11.1908 8.76324C11.1908 8.25324 10.7608 7.82324 10.2408 7.82324C9.73084 7.82324 9.30084 8.25324 9.30084 8.76324C9.30084 9.28324 9.73084 9.70324 10.2408 9.70324Z" fill="#000000" />
<path d="M14.8808 9.70324C15.4008 9.70324 15.8208 9.28324 15.8208 8.76324C15.8208 8.25324 15.4008 7.82324 14.8808 7.82324C14.3608 7.82324 13.9408 8.25324 13.9408 8.76324C13.9408 9.28324 14.3608 9.70324 14.8808 9.70324Z" fill="#000000" />
<path fill-rule="evenodd" clip-rule="evenodd" d="M15.6308 20.334V15.7332C15.6308 14.7332 14.8108 13.9132 13.8108 13.9132H11.3108C10.3108 13.9132 9.49084 14.7332 9.49084 15.7332V20.334H3.38055C2.97055 20.334 2.63055 20.674 2.63055 21.084C2.63055 21.504 2.97055 21.834 3.38055 21.834H21.5609C21.9809 21.834 22.3109 21.504 22.3109 21.084C22.3109 20.674 21.9809 20.334 21.5609 20.334H15.6308ZM13.8108 15.4132H11.3108C11.1408 15.4132 10.9908 15.5632 10.9908 15.7332V20.334H14.1308V15.7332C14.1308 15.5632 13.9808 15.4132 13.8108 15.4132Z" fill="#000000" />
</svg>