<svg width="24px"  height="24px"  viewBox="0 0 24 25" fill="none" xmlns="http://www.w3.org/2000/svg">
<path fill-rule="evenodd" clip-rule="evenodd" d="M11.9991 17.3584C11.2681 17.3584 10.6731 17.9554 10.6731 18.6884V21.0584C10.6731 21.2241 10.8074 21.3584 10.9731 21.3584H13.0261C13.1918 21.3584 13.3261 21.2241 13.3261 21.0584V18.6884C13.3261 17.9554 12.7301 17.3584 11.9991 17.3584Z" fill="#000000" />
<path fill-rule="evenodd" clip-rule="evenodd" d="M4.04679 14.1269C3.96755 14.1269 3.8897 14.1223 3.81299 14.114C3.6191 14.0929 3.43579 14.2337 3.43579 14.4287V19.0509C3.43579 20.3849 4.52379 21.4709 5.85979 21.4709H8.87279C9.03848 21.4709 9.17279 21.3366 9.17279 21.1709V18.6889C9.17279 17.1279 10.4408 15.8589 11.9988 15.8589C13.5578 15.8589 14.8258 17.1279 14.8258 18.6889V21.1709C14.8258 21.3366 14.9601 21.4709 15.1258 21.4709H18.1198C19.4568 21.4709 20.5438 20.3849 20.5438 19.0509V14.4298C20.5438 14.2363 20.3632 14.096 20.1707 14.1156C20.0988 14.1229 20.0259 14.1269 19.9518 14.1269H4.04679Z" fill="#000000" />
<path fill-rule="evenodd" clip-rule="evenodd" d="M19.7529 4.42986C19.7589 4.08486 19.6289 3.75986 19.3869 3.51286C19.1449 3.26586 18.8219 3.13086 18.4789 3.13086H5.55991C4.85691 3.13086 4.28491 3.70086 4.28491 4.40086V6.13086C4.28491 6.29654 4.41923 6.43086 4.58491 6.43086H19.4163C19.5795 6.43086 19.7127 6.30044 19.7162 6.1373L19.7529 4.42986Z" fill="#000000" />
<path opacity="0.4" fill-rule="evenodd" clip-rule="evenodd" d="M21.207 9.04964L20.4918 8.05634C20.4354 7.97805 20.3448 7.93164 20.2483 7.93164H3.76807C3.67248 7.93164 3.58261 7.97719 3.5261 8.05429L2.798 9.04764C2.603 9.31464 2.5 9.63164 2.5 9.96164V11.2316C2.5 12.0806 3.194 12.7716 4.047 12.7716H19.952C20.806 12.7716 21.5 12.0806 21.5 11.2316V9.95164C21.5 9.62864 21.399 9.31664 21.207 9.04964Z" fill="#000000" />
</svg>