<svg width="24px"  height="24px"  viewBox="0 0 25 25" fill="none" xmlns="http://www.w3.org/2000/svg">
<path opacity="0.4" fill-rule="evenodd" clip-rule="evenodd" d="M15.6039 12.2819C15.4939 12.2068 15.3484 12.2068 15.2385 12.282C14.4475 12.8233 13.4997 13.1502 12.4712 13.1502C11.4425 13.1502 10.4947 12.8233 9.70286 12.2819C9.59291 12.2068 9.44744 12.2068 9.33752 12.282C8.54646 12.8233 7.59874 13.1502 6.57016 13.1502C5.8586 13.1502 5.14963 12.9878 4.49664 12.6919C4.28645 12.5967 4.03516 12.7433 4.03516 12.974V18.4322C4.04016 19.3362 4.39616 20.1852 5.04016 20.8212C5.67916 21.4532 6.52316 21.8002 7.41616 21.8002H8.84116C9.00684 21.8002 9.14116 21.6659 9.14116 21.5002V18.2752C9.14116 16.4382 10.6352 14.9442 12.4712 14.9442C14.3082 14.9442 15.8022 16.4382 15.8022 18.2752V21.5002C15.8022 21.6659 15.9365 21.8002 16.1022 21.8002H17.5212C19.3782 21.8002 20.8962 20.2942 20.9082 18.4302V12.9731C20.9082 12.7423 20.6569 12.5957 20.4467 12.691C19.7934 12.9872 19.0838 13.1502 18.3722 13.1502C17.3435 13.1502 16.3957 12.8233 15.6039 12.2819Z" fill="#000000" />
<path d="M20.9189 4.80078C21.2589 5.81878 21.6919 7.21978 21.8229 8.11778C21.9369 8.91278 21.6829 9.71678 21.1079 10.3798C20.4279 11.1628 19.3809 11.6498 18.3719 11.6498C17.3129 11.6498 16.3542 11.1386 15.7163 10.3575C15.5734 10.1826 15.2867 10.184 15.1449 10.36C14.5136 11.1438 13.5538 11.6498 12.4709 11.6498C11.3887 11.6498 10.429 11.1438 9.79701 10.3598C9.65522 10.1839 9.36848 10.1827 9.22565 10.3577C8.5884 11.1386 7.62966 11.6498 6.56987 11.6498C5.55987 11.6498 4.51087 11.1628 3.83187 10.3788C3.25787 9.71478 3.00387 8.91178 3.11887 8.11778C3.22187 7.40378 3.51987 6.29278 4.00387 4.81478C4.40087 3.60978 5.52087 2.80078 6.79187 2.80078H18.1349C19.3989 2.80078 20.5179 3.60478 20.9189 4.80078Z" fill="#000000" />
<path d="M18.1652 16.6993C18.5792 16.6993 18.9152 16.3583 18.9152 15.9443C18.9152 15.5303 18.5792 15.1943 18.1652 15.1943C17.7512 15.1943 17.4152 15.5303 17.4152 15.9443V15.9543C17.4152 16.3683 17.7512 16.6993 18.1652 16.6993Z" fill="#000000" />
<path d="M12.4712 16.4453C11.4622 16.4453 10.6412 17.2663 10.6412 18.2753V21.5003C10.6412 21.666 10.7755 21.8003 10.9412 21.8003H14.0022C14.1679 21.8003 14.3022 21.666 14.3022 21.5003V18.2753C14.3022 17.2663 13.4802 16.4453 12.4712 16.4453Z" fill="#000000" />
</svg>