<svg width="24px"  height="24px"  viewBox="0 0 24 25" fill="none" xmlns="http://www.w3.org/2000/svg">
<g opacity="0.4">
<path fill-rule="evenodd" clip-rule="evenodd" d="M19.7452 13.8154H4.25415C3.97715 13.8154 3.75415 14.0384 3.75415 14.3154V19.5754C3.75415 20.8714 4.80815 21.9254 6.10515 21.9254H10.9762C11.1418 21.9254 11.2762 21.7911 11.2762 21.6254V16.4934C11.2762 16.0794 11.6122 15.7434 12.0262 15.7434H16.0182C16.4321 15.7434 16.7682 16.0794 16.7682 16.4934V21.6254C16.7682 21.7911 16.9025 21.9254 17.0682 21.9254H17.8932C19.1902 21.9254 20.2451 20.8714 20.2451 19.5754V14.3154C20.2451 14.0384 20.0212 13.8154 19.7452 13.8154Z" fill="#000000" />
<path fill-rule="evenodd" clip-rule="evenodd" d="M7.24988 4.17578H16.7489C17.1629 4.17578 17.4989 3.83978 17.4989 3.42578C17.4989 3.01178 17.1629 2.67578 16.7489 2.67578H7.24988C6.83588 2.67578 6.49988 3.01178 6.49988 3.42578C6.49988 3.83978 6.83588 4.17578 7.24988 4.17578Z" fill="#000000" />
</g>
<path d="M21.1454 10.723L20.5224 7.392C20.3574 6.513 19.5864 5.875 18.6904 5.875H5.32243C4.42643 5.875 3.65643 6.513 3.49143 7.39L2.85743 10.7C2.75643 11.125 2.85543 11.567 3.12743 11.911C3.40143 12.257 3.81143 12.455 4.25143 12.455H19.7464C20.1864 12.455 20.5964 12.257 20.8704 11.911C21.1424 11.567 21.2414 11.126 21.1454 10.723Z" fill="#000000" />
<path d="M12.7764 21.6252C12.7764 21.7908 12.9107 21.9252 13.0764 21.9252H14.9684C15.1341 21.9252 15.2684 21.7908 15.2684 21.6252V17.5432C15.2684 17.3775 15.1341 17.2432 14.9684 17.2432H13.0764C12.9107 17.2432 12.7764 17.3775 12.7764 17.5432V21.6252Z" fill="#000000" />
<path d="M8.57316 18.1733H7.46216C7.04816 18.1733 6.71216 17.8373 6.71216 17.4233C6.71216 17.0093 7.04816 16.6733 7.46216 16.6733H8.57316C8.98716 16.6733 9.32316 17.0093 9.32316 17.4233C9.32316 17.8373 8.98716 18.1733 8.57316 18.1733Z" fill="#000000" />
</svg>