<svg width="24px"  height="24px"  viewBox="0 0 24 25" fill="none" xmlns="http://www.w3.org/2000/svg">
<path opacity="0.4" fill-rule="evenodd" clip-rule="evenodd" d="M18.6232 13.1414C17.9083 13.1414 17.2421 12.9482 16.6569 12.6249C16.5589 12.5707 16.4396 12.5707 16.3415 12.6249C15.7565 12.9482 15.0912 13.1414 14.3772 13.1414H14.1232C13.4091 13.1414 12.7428 12.9473 12.1576 12.6245C12.0597 12.5705 11.9407 12.5705 11.8429 12.6245C11.2576 12.9473 10.5914 13.1414 9.87723 13.1414H9.62323C8.90921 13.1414 8.24392 12.9482 7.65893 12.6249C7.56089 12.5707 7.44157 12.5707 7.34353 12.6249C6.75839 12.9482 6.09217 13.1414 5.37723 13.1414H5.12323C4.66767 13.1414 4.23195 13.0615 3.82316 12.9213C3.61542 12.85 3.38623 12.9964 3.38623 13.216V18.3334C3.39123 19.2464 3.75023 20.1014 4.39923 20.7434C5.04323 21.3804 5.89623 21.7304 6.79823 21.7304H10.8572C11.0229 21.7304 11.1572 21.5961 11.1572 21.4304V16.1344C11.1572 15.7204 11.4932 15.3844 11.9072 15.3844H15.9522C16.3662 15.3844 16.7022 15.7204 16.7022 16.1344V21.4414C16.7022 21.601 16.8316 21.7304 16.9912 21.7304C17.8872 21.7044 18.7652 21.3854 19.4142 20.7444C20.0632 20.1014 20.4242 19.2464 20.4292 18.3304V13.279C20.4292 13.0658 20.2125 12.9199 20.0078 12.9794C19.6486 13.0838 19.2701 13.1414 18.8772 13.1414H18.6232Z" fill="#000000" />
<path d="M5.303 2.87109H18.697C20.243 2.87109 21.5 4.12709 21.5 5.67109V9.02109C21.5 10.4661 20.323 11.6411 18.877 11.6411H18.623C17.8964 11.6411 17.2414 11.3418 16.7674 10.8626C16.6235 10.717 16.3744 10.7169 16.2304 10.8624C15.7561 11.3418 15.102 11.6411 14.377 11.6411H14.123C13.3971 11.6411 12.7428 11.341 12.2685 10.8608C12.1246 10.7151 11.8754 10.7151 11.7315 10.8608C11.2572 11.341 10.6029 11.6411 9.877 11.6411H9.623C8.89786 11.6411 8.24431 11.3417 7.77029 10.8621C7.62644 10.7166 7.37755 10.7166 7.23362 10.8621C6.75908 11.3416 6.10384 11.6411 5.377 11.6411H5.123C3.677 11.6411 2.5 10.4661 2.5 9.02109V5.67109C2.5 4.12709 3.758 2.87109 5.303 2.87109Z" fill="#000000" />
<path d="M7.50024 18.1853C7.91424 18.1853 8.25024 17.8493 8.25024 17.4353V16.1353C8.25024 15.7213 7.91424 15.3853 7.50024 15.3853C7.08624 15.3853 6.75024 15.7213 6.75024 16.1353V17.4353C6.75024 17.8493 7.08624 18.1853 7.50024 18.1853Z" fill="#000000" />
<path d="M12.6577 21.4317C12.6577 21.5974 12.792 21.7317 12.9577 21.7317H14.9027C15.0684 21.7317 15.2027 21.5974 15.2027 21.4317V17.1857C15.2027 17.0201 15.0684 16.8857 14.9027 16.8857H12.9577C12.792 16.8857 12.6577 17.0201 12.6577 17.1857V21.4317Z" fill="#000000" />
</svg>