<svg width="24px"  height="24px"  viewBox="0 0 24 25" fill="none" xmlns="http://www.w3.org/2000/svg">
<path fill-rule="evenodd" clip-rule="evenodd" d="M12.7505 21.1405C12.7505 21.3062 12.8848 21.4405 13.0505 21.4405H15.0905C15.2562 21.4405 15.3905 21.3062 15.3905 21.1405V17.3615C15.3905 17.1958 15.2562 17.0615 15.0905 17.0615H13.0505C12.8848 17.0615 12.7505 17.1958 12.7505 17.3615V21.1405Z" fill="#000000" />
<path fill-rule="evenodd" clip-rule="evenodd" d="M8.41796 18.2611H7.26596C6.85196 18.2611 6.51596 17.9251 6.51596 17.5111C6.51596 17.0971 6.85196 16.7611 7.26596 16.7611H8.41796C8.83196 16.7611 9.16796 17.0971 9.16796 17.5111C9.16796 17.9251 8.83196 18.2611 8.41796 18.2611ZM3.96696 13.9281C3.91904 13.9281 3.87142 13.9263 3.82412 13.9231C3.63454 13.9099 3.45996 14.0492 3.45996 14.2392V19.0301C3.45996 20.3591 4.54496 21.4401 5.87796 21.4401H10.95C11.1156 21.4401 11.25 21.3058 11.25 21.1401V16.3111C11.25 15.8971 11.586 15.5611 12 15.5611H16.14C16.554 15.5611 16.89 15.8971 16.89 16.3111V21.1401C16.89 21.3058 17.0243 21.4401 17.19 21.4401H18.103C19.437 21.4401 20.522 20.3591 20.522 19.0301V14.239C20.522 14.0497 20.3487 13.9113 20.1598 13.9238C20.1175 13.9266 20.0748 13.9281 20.032 13.9281H3.96696Z" fill="#000000" />
<g opacity="0.4">
<path fill-rule="evenodd" clip-rule="evenodd" d="M20.6514 4.45016C20.6584 4.10916 20.5304 3.78716 20.2914 3.54216C20.0494 3.29616 19.7254 3.16016 19.3794 3.16016H4.65935C3.95835 3.16016 3.38635 3.73016 3.38635 4.43016V6.14033C3.38635 6.30595 3.52056 6.44023 3.68618 6.44033L20.3146 6.44999C20.4778 6.45008 20.6112 6.31964 20.6147 6.15643L20.6514 4.45016Z" fill="#000000" />
<path fill-rule="evenodd" clip-rule="evenodd" d="M21.4599 10.7454L20.8564 8.18155C20.8245 8.04611 20.7037 7.95037 20.5645 7.95029L3.43671 7.94056C3.29742 7.94049 3.1764 8.03629 3.14451 8.17188L2.53895 10.7464C2.43695 11.1874 2.53795 11.6424 2.81795 11.9954C3.09895 12.3484 3.51695 12.5504 3.96695 12.5504H20.0319C20.482 12.5504 20.9009 12.3484 21.1819 11.9954C21.462 11.6424 21.5639 11.1874 21.4599 10.7454Z" fill="#000000" />
</g>
</svg>