<svg width="24px"  height="24px"  viewBox="0 0 24 25" fill="none" xmlns="http://www.w3.org/2000/svg">
<g opacity="0.4">
<path fill-rule="evenodd" clip-rule="evenodd" d="M7.24976 4.17578H16.7488C17.1628 4.17578 17.4988 3.83978 17.4988 3.42578C17.4988 3.01178 17.1628 2.67578 16.7488 2.67578H7.24976C6.83576 2.67578 6.49976 3.01178 6.49976 3.42578C6.49976 3.83978 6.83576 4.17578 7.24976 4.17578Z" fill="#000000" />
<path fill-rule="evenodd" clip-rule="evenodd" d="M19.745 13.7051H4.25403C3.97703 13.7051 3.75403 13.9291 3.75403 14.2051V19.5751C3.75403 20.8711 4.80803 21.9261 6.10503 21.9261H10.976C11.1417 21.9261 11.276 21.7918 11.276 21.6261V18.3951C11.276 16.8791 12.509 15.6451 14.023 15.6451C15.537 15.6451 16.768 16.8791 16.768 18.3951V21.6261C16.768 21.7918 16.9023 21.9261 17.068 21.9261H17.893C19.19 21.9261 20.245 20.8711 20.245 19.5751V14.2051C20.245 13.9291 20.021 13.7051 19.745 13.7051Z" fill="#000000" />
</g>
<path d="M8.57304 18.0752H7.46204C7.04804 18.0752 6.71204 17.7392 6.71204 17.3252C6.71204 16.9112 7.04804 16.5752 7.46204 16.5752H8.57304C8.98704 16.5752 9.32304 16.9112 9.32304 17.3252C9.32304 17.7392 8.98704 18.0752 8.57304 18.0752Z" fill="#000000" />
<path d="M12.7762 18.3955C12.7762 17.7065 13.3362 17.1455 14.0232 17.1455C14.7102 17.1455 15.2682 17.7065 15.2682 18.3955V21.6255C15.2682 21.7912 15.1339 21.9255 14.9682 21.9255H13.0762C12.9106 21.9255 12.7762 21.7912 12.7762 21.6255V18.3955Z" fill="#000000" />
<path fill-rule="evenodd" clip-rule="evenodd" d="M9.71423 12.155C9.71423 12.3207 9.84855 12.455 10.0142 12.455H14.0402C14.2059 12.455 14.3402 12.3207 14.3402 12.155V6.175C14.3402 6.00931 14.2059 5.875 14.0402 5.875H10.0142C9.84855 5.875 9.71423 6.00931 9.71423 6.175V12.155Z" fill="#000000" />
<path fill-rule="evenodd" clip-rule="evenodd" d="M7.91467 12.455C8.08036 12.455 8.21467 12.3207 8.21467 12.155V6.175C8.21467 6.00931 8.08036 5.875 7.91467 5.875H5.32167C4.42667 5.875 3.65567 6.513 3.49067 7.391L2.85767 10.7C2.75667 11.125 2.85567 11.567 3.12767 11.911C3.40167 12.257 3.81167 12.455 4.25167 12.455H7.91467Z" fill="#000000" />
<path fill-rule="evenodd" clip-rule="evenodd" d="M21.1452 10.723L20.5222 7.392C20.3572 6.513 19.5862 5.875 18.6902 5.875H16.1402C15.9745 5.875 15.8402 6.00931 15.8402 6.175V12.155C15.8402 12.3207 15.9745 12.455 16.1402 12.455H19.7462C20.1862 12.455 20.5962 12.257 20.8702 11.911C21.1422 11.567 21.2412 11.126 21.1452 10.723Z" fill="#000000" />
</svg>