<svg width="24px"  height="24px"  viewBox="0 0 25 25" fill="none" xmlns="http://www.w3.org/2000/svg">
<g opacity="0.4">
<path fill-rule="evenodd" clip-rule="evenodd" d="M21.7107 21.4276C21.5207 21.6676 21.2407 21.7976 20.9307 21.7976H4.01068C3.71068 21.7976 3.42068 21.6676 3.23068 21.4276C3.03068 21.1876 2.96068 20.8776 3.03068 20.5776L3.41068 18.8176C3.52068 18.3576 3.93068 18.0176 4.40068 18.0176H20.5407C21.0107 18.0176 21.4207 18.3576 21.5307 18.8176L21.9107 20.5776C21.9807 20.8776 21.9107 21.1876 21.7107 21.4276Z" fill="#000000" />
<path fill-rule="evenodd" clip-rule="evenodd" d="M21.9007 9.31748V9.89748C21.9007 10.5775 21.3506 11.1275 20.6706 11.1275H4.27065C3.59065 11.1275 3.04065 10.5775 3.04065 9.89748V9.31748C3.04065 8.89748 3.25065 8.51748 3.61065 8.28748L11.8006 2.99748C12.2106 2.73748 12.7306 2.73748 13.1406 3.00748L21.3406 8.28748C21.6906 8.50748 21.9007 8.89748 21.9007 9.31748Z" fill="#000000" />
</g>
<path fill-rule="evenodd" clip-rule="evenodd" d="M18.4908 18.017H19.9908V11.127H18.4908V18.017ZM13.9808 18.017H15.4808V11.127H13.9808V18.017ZM9.46081 18.017H10.9608V11.127H9.46081V18.017ZM4.95081 18.017H6.45081V11.127H4.95081V18.017Z" fill="#000000" />
<path fill-rule="evenodd" clip-rule="evenodd" d="M12.5052 8.32141C12.0912 8.32141 11.7552 7.98541 11.7552 7.57141C11.7552 7.15741 12.0912 6.81641 12.5052 6.81641C12.9192 6.81641 13.2552 7.14741 13.2552 7.56141V7.57141C13.2552 7.98541 12.9192 8.32141 12.5052 8.32141Z" fill="#000000" />
</svg>