<svg width="24px"  height="24px"  viewBox="0 0 24 24" fill="none" xmlns="http://www.w3.org/2000/svg">
<path fill-rule="evenodd" clip-rule="evenodd" d="M9.01124 9.2681C9.18903 9.64222 9.02987 10.0896 8.65576 10.2674C8.01983 10.5696 7.54594 11.2166 7.45006 11.9135C7.39361 12.3238 7.01519 12.6107 6.60484 12.5543C6.19449 12.4978 5.9076 12.1194 5.96406 11.7091C6.12893 10.5107 6.91988 9.43159 8.01192 8.91262C8.38604 8.73483 8.83345 8.89398 9.01124 9.2681Z" fill="#000000" />
<path fill-rule="evenodd" clip-rule="evenodd" d="M8.09577 2.85735C8.17463 2.45071 8.5682 2.185 8.97484 2.26386C10.3518 2.53089 11.3229 3.22703 11.9338 4.16487C12.5313 5.08194 12.749 6.17365 12.749 7.20428C12.749 7.61849 12.4132 7.95428 11.999 7.95428C11.5848 7.95428 11.249 7.61849 11.249 7.20428C11.249 6.36683 11.0698 5.58657 10.677 4.98365C10.2978 4.40149 9.68538 3.9296 8.68926 3.73642C8.28262 3.65756 8.01691 3.26399 8.09577 2.85735Z" fill="#000000" />
<path opacity="0.4" d="M9.74801 6.41937C9.10079 6.2445 7.54842 6.00425 6.07741 6.66251C4.54257 7.34934 3.2508 8.94126 3.05464 12.1182C3.05403 12.128 3.05369 12.1379 3.05361 12.1477C3.02955 15.1427 3.98047 17.4014 5.07274 18.9316C5.61734 19.6945 6.19842 20.2784 6.71406 20.6837C6.97163 20.8862 7.21799 21.0481 7.44047 21.166C7.64441 21.274 7.86232 21.3633 8.06733 21.393C9.00625 21.5794 9.85751 21.4247 10.5402 21.2436C10.7399 21.1906 10.9521 21.1272 11.1394 21.0713C11.2533 21.0373 11.358 21.0061 11.4451 20.9816C11.7126 20.9063 11.8844 20.8727 12.0004 20.8727C12.1108 20.8727 12.2794 20.9074 12.5498 20.988C12.6343 21.0131 12.7332 21.0443 12.8406 21.0781C13.0324 21.1385 13.251 21.2073 13.4615 21.2654C14.1465 21.4547 15.0046 21.6125 15.9418 21.3918C16.1441 21.3618 16.3574 21.2742 16.5554 21.1698C16.7776 21.0526 17.0238 20.891 17.2812 20.6888C17.7965 20.284 18.3781 19.6997 18.9233 18.9361C20.017 17.4046 20.9708 15.143 20.9462 12.1476C20.9461 12.1378 20.9457 12.128 20.9451 12.1182C20.749 8.94132 19.4575 7.34937 17.9228 6.66252C16.452 6.00428 14.8997 6.24449 14.252 6.4193C12.749 6.82407 11.251 6.8241 9.74801 6.41937Z" fill="#000000" />
</svg>