<svg width="24px"  height="24px"  viewBox="0 0 24 24" fill="none" xmlns="http://www.w3.org/2000/svg">
<path opacity="0.4" d="M9.95709 7.81962C9.36996 7.66098 7.96171 7.44304 6.62727 8.04019C5.23492 8.66325 4.06308 10.1074 3.88513 12.9894C3.88458 12.9983 3.88427 13.0072 3.88419 13.0161C3.86237 15.7331 4.72501 17.7821 5.71587 19.1702C6.20991 19.8623 6.73704 20.392 7.20481 20.7597C7.43847 20.9434 7.66196 21.0903 7.86379 21.1971C8.04879 21.2951 8.24647 21.3762 8.43245 21.4031C9.28419 21.5722 10.0564 21.4319 10.6758 21.2675C10.8569 21.2195 11.0494 21.162 11.2193 21.1113C11.3226 21.0804 11.4176 21.0521 11.4966 21.0299C11.7393 20.9616 11.8952 20.9311 12.0004 20.9311C12.1005 20.9311 12.2535 20.9626 12.4987 21.0357C12.5754 21.0585 12.6652 21.0868 12.7626 21.1174C12.9366 21.1722 13.1349 21.2346 13.3258 21.2874C13.9473 21.4591 14.7256 21.6022 15.5759 21.402C15.7594 21.3748 15.9529 21.2954 16.1325 21.2006C16.3341 21.0943 16.5574 20.9477 16.7909 20.7643C17.2584 20.397 17.7859 19.867 18.2806 19.1743C19.2727 17.785 20.138 15.7334 20.1156 13.0161C20.1155 13.0071 20.1152 12.9982 20.1147 12.9894C19.9367 10.1074 18.7652 8.66328 17.3729 8.0402C16.0387 7.44307 14.6305 7.66097 14.043 7.81956C12.6795 8.18675 11.3206 8.18677 9.95709 7.81962Z" fill="#000000" />
<path fill-rule="evenodd" clip-rule="evenodd" d="M7.96295 4.42183C8.0418 4.01519 8.43536 3.74946 8.842 3.82831C11.3866 4.3217 12.7504 6.59314 12.7504 8.57605C12.7504 8.99026 12.4147 9.32605 12.0004 9.32605C11.5862 9.32605 11.2504 8.99026 11.2504 8.57605C11.2504 7.19451 10.287 5.63643 8.55647 5.30088C8.14983 5.22203 7.8841 4.82847 7.96295 4.42183Z" fill="#000000" />
<path d="M11.6718 7.07141L11.7287 6.57466C11.6718 7.07141 11.6727 7.07151 11.6729 7.07154L11.6744 7.07171L11.6786 7.07216L11.6913 7.07346C11.7018 7.07449 11.716 7.07582 11.7339 7.07728C11.7696 7.0802 11.8198 7.08369 11.8823 7.08646C12.007 7.09199 12.182 7.09474 12.39 7.08425C12.802 7.06347 13.3626 6.9898 13.9213 6.76907C14.4835 6.54694 15.0597 6.16887 15.465 5.5339C15.8716 4.89698 16.0739 4.0521 15.9774 2.9562C15.9548 2.6988 15.7397 2.50107 15.4813 2.50006C14.3493 2.49565 13.4887 2.73192 12.8426 3.12422C12.1939 3.51806 11.7954 4.04868 11.5566 4.57434C11.3202 5.0946 11.2408 5.60772 11.2185 5.98425C11.2073 6.17397 11.2103 6.33318 11.2164 6.44708C11.2194 6.50414 11.2233 6.55017 11.2265 6.58335C11.2282 6.59994 11.2297 6.61336 11.2309 6.62336L11.2324 6.63579L11.2329 6.64004L11.2332 6.64167L11.2333 6.64296C11.2334 6.64325 11.2378 6.64234 11.7287 6.57466L11.2333 6.64296C11.2645 6.86914 11.445 7.04546 11.6718 7.07141Z" fill="#000000" />
<path fill-rule="evenodd" clip-rule="evenodd" d="M9.37718 10.401C9.5549 10.7752 9.39566 11.2226 9.02151 11.4003C8.47154 11.6615 8.06062 12.2227 7.97743 12.8257C7.92081 13.236 7.54229 13.5228 7.13196 13.4662C6.72163 13.4096 6.43489 13.031 6.4915 12.6207C6.64376 11.5171 7.37119 10.5236 8.37793 10.0454C8.75208 9.86765 9.19946 10.0269 9.37718 10.401Z" fill="#000000" />
</svg>