<svg width="24px"  height="24px"  viewBox="0 0 24 24" fill="none" xmlns="http://www.w3.org/2000/svg">
<path fill-rule="evenodd" clip-rule="evenodd" d="M8.09574 2.85735C8.1746 2.45071 8.56817 2.185 8.97481 2.26386C10.3517 2.53089 11.3228 3.22703 11.9338 4.16487C12.5312 5.08194 12.749 6.17365 12.749 7.20428C12.749 7.61849 12.4132 7.95428 11.999 7.95428C11.5848 7.95428 11.249 7.61849 11.249 7.20428C11.249 6.36683 11.0698 5.58657 10.677 4.98365C10.2977 4.40149 9.68535 3.9296 8.68923 3.73642C8.28259 3.65756 8.01688 3.26399 8.09574 2.85735Z" fill="#000000" />
<path fill-rule="evenodd" clip-rule="evenodd" d="M14.9316 11.916C15.3459 11.916 15.6816 12.2518 15.6816 12.666V14.6372C15.6816 15.0514 15.3459 15.3872 14.9316 15.3872C14.5174 15.3872 14.1816 15.0514 14.1816 14.6372V12.666C14.1816 12.2518 14.5174 11.916 14.9316 11.916Z" fill="#000000" />
<path fill-rule="evenodd" clip-rule="evenodd" d="M12 6.5625C12.4142 6.5625 12.75 6.89829 12.75 7.3125V20.3695C12.75 20.7837 12.4142 21.1195 12 21.1195C11.5858 21.1195 11.25 20.7837 11.25 20.3695V7.3125C11.25 6.89829 11.5858 6.5625 12 6.5625Z" fill="#000000" />
<path opacity="0.4" d="M9.67107 6.18759C9.0018 6.00676 7.39655 5.75833 5.87544 6.43902C4.28831 7.14924 2.95254 8.79538 2.7497 12.0805C2.74907 12.0907 2.74871 12.1009 2.74863 12.1111C2.72375 15.2081 3.70707 17.5437 4.83654 19.126C5.3997 19.915 6.00056 20.5187 6.53378 20.9379C6.80012 21.1472 7.05487 21.3147 7.28493 21.4365C7.49581 21.5482 7.72115 21.6406 7.93315 21.6713C8.90404 21.864 9.78431 21.7041 10.4903 21.5168C10.6968 21.462 10.9162 21.3965 11.1098 21.3387C11.2277 21.3035 11.3359 21.2712 11.4259 21.2458C11.7026 21.168 11.8803 21.1332 12.0002 21.1332C12.1143 21.1332 12.2887 21.1692 12.5683 21.2525C12.6557 21.2785 12.758 21.3107 12.869 21.3457C13.0674 21.4081 13.2934 21.4792 13.511 21.5394C14.2194 21.7351 15.1067 21.8982 16.0759 21.67C16.2851 21.639 16.5056 21.5485 16.7103 21.4405C16.9401 21.3193 17.1947 21.1522 17.4609 20.9431C17.9938 20.5245 18.5951 19.9203 19.159 19.1307C20.2898 17.5471 21.2761 15.2084 21.2507 12.111C21.2506 12.1008 21.2502 12.0907 21.2496 12.0805C21.0468 8.79545 19.7113 7.14927 18.1243 6.43902C16.6034 5.75837 14.9983 6.00675 14.3285 6.18752C12.7743 6.60608 11.2253 6.6061 9.67107 6.18759Z" fill="#000000" />
</svg>