<svg width="24px"  height="24px"  viewBox="0 0 25 24" fill="none" xmlns="http://www.w3.org/2000/svg">
<path d="M8.99905 11.1016C6.07319 11.1016 3.66474 13.3181 3.36292 16.1648C3.34483 16.3355 3.48223 16.4795 3.65384 16.4795H5.95971C6.37392 16.4795 6.70971 16.8153 6.70971 17.2295C6.70971 17.6437 6.37392 17.9795 5.95971 17.9795H3.63105C3.46537 17.9795 3.33105 18.1138 3.33105 18.2795V18.9076C3.33105 20.4777 4.60391 21.7506 6.17405 21.7506H12.8061C14.3762 21.7506 15.6491 20.4777 15.6491 18.9076V18.2795C15.6491 18.1138 15.5147 17.9795 15.3491 17.9795H9.14941C8.7352 17.9795 8.39941 17.6437 8.39941 17.2295C8.39941 16.8153 8.7352 16.4795 9.14941 16.4795H15.3263C15.4979 16.4795 15.6353 16.3355 15.6172 16.1648C15.3155 13.3182 12.9079 11.1016 9.98105 11.1016H8.99905Z" fill="#000000" />
<g opacity="0.4">
<path d="M17.5244 3.28033C17.8173 2.98744 17.8173 2.51256 17.5244 2.21967C17.2315 1.92678 16.7567 1.92678 16.4638 2.21967L15.6828 3.00067C15.1361 3.54732 14.8291 4.28808 14.8291 5.062V6.26035C14.8291 6.31558 14.7843 6.36035 14.7291 6.36035H12.0481C11.02 6.36035 10.2279 7.26721 10.3663 8.28562L10.5001 9.34217C10.5191 9.49209 10.6466 9.60449 10.7977 9.60449H21.2099C21.3597 9.60449 21.4865 9.49404 21.5071 9.34569L21.6533 8.29102C21.795 7.27015 21.0012 6.36035 19.9721 6.36035H16.4291C16.3739 6.36035 16.3291 6.31558 16.3291 6.26035V5.062C16.3291 4.68592 16.4781 4.32668 16.7434 4.06133L17.5244 3.28033Z" fill="#000000" />
<path d="M21.2156 11.4457C21.2406 11.2653 21.1005 11.1045 20.9185 11.1045H14.6874C14.4884 11.1045 14.4036 11.3756 14.5584 11.5007C16.0322 12.6927 16.9743 14.5158 16.9743 16.5597V19.2499C16.9743 20.0541 16.6522 20.7832 16.13 21.3151C15.9893 21.4584 16.084 21.7504 16.2849 21.7504H18.3087C19.1564 21.7504 19.8737 21.1251 19.99 20.286L21.2156 11.4457Z" fill="#000000" />
</g>
</svg>