<svg width="24px"  height="24px"  viewBox="0 0 24 24" fill="none" xmlns="http://www.w3.org/2000/svg">
<path d="M5.19956 17.3355C5.14208 17.0704 5.45205 16.8515 5.70475 16.9501C6.08927 17.1001 6.50718 17.1809 6.94208 17.1809C7.73933 17.1809 8.46582 16.8996 9.03879 16.4424C9.14637 16.3566 9.29682 16.3443 9.41477 16.4153C10.2231 16.9013 11.1655 17.1809 12.179 17.1809C13.1113 17.1809 13.9881 16.9399 14.7512 16.527C14.8614 16.4674 14.9963 16.4777 15.0983 16.5504C15.6518 16.9451 16.3297 17.1809 17.0656 17.1809C17.5041 17.1809 17.9203 17.1006 18.3022 16.9517C18.5551 16.853 18.8656 17.0719 18.8081 17.3372L18.4974 18.7704C18.1517 20.3632 16.7429 21.5005 15.1122 21.5005H8.89586C7.26512 21.5005 5.85632 20.3633 5.51069 18.7704L5.19956 17.3355Z" fill="#000000" />
<path opacity="0.4" d="M9.30194 6.97576C9.23941 6.76028 8.984 6.64542 8.80997 6.78704C7.96943 7.47107 7.33951 8.40585 7.03751 9.48097C7.03097 9.50426 7.00962 9.5203 6.98543 9.5203C5.11354 9.5203 3.5957 11.0256 3.5957 12.9022C3.5957 14.0077 4.12853 14.9891 4.94502 15.5943C5.51238 16.0325 6.22253 16.2832 6.98543 16.2832C7.77508 16.2832 8.4947 16.0049 9.06249 15.5524C9.17012 15.4666 9.32055 15.4544 9.43853 15.5252C10.2395 16.0064 11.1731 16.2832 12.1772 16.2832C13.1008 16.2832 13.9694 16.0446 14.7256 15.6358C14.8358 15.5762 14.9708 15.5866 15.0728 15.6592C15.6212 16.0499 16.2927 16.2832 17.0216 16.2832C17.7944 16.2832 18.4974 16.0318 19.0637 15.593C19.8795 14.9798 20.4036 13.9979 20.4036 12.9022C20.4036 11.2052 19.1679 9.8095 17.544 9.56C17.4202 9.54099 17.3161 9.4543 17.2786 9.33487C16.9597 8.32166 16.3516 7.44053 15.5491 6.78906C15.3752 6.6479 15.1205 6.76259 15.0579 6.97765C14.6951 8.22463 13.5439 9.13491 12.1808 9.13491C10.8162 9.13491 9.66414 8.22384 9.30194 6.97576Z" fill="#000000" />
<path d="M13.4218 2.47388C13.7108 2.76752 13.7086 3.23892 13.4181 3.52988L13.4124 3.5359C13.405 3.54383 13.3914 3.55884 13.3733 3.58041C13.3369 3.62388 13.2841 3.69182 13.2281 3.78C13.1756 3.86265 13.1235 3.95794 13.0791 4.06326C13.8557 4.40851 14.3975 5.18684 14.3975 6.09132C14.3975 7.31727 13.4038 8.30959 12.1792 8.30959C10.9538 8.30959 9.95996 7.31745 9.95996 6.09132C9.95996 5.08992 10.624 4.24335 11.536 3.96768C11.6352 3.55588 11.8079 3.21821 11.9619 2.97576C12.0588 2.82325 12.1522 2.70225 12.2236 2.61696C12.2595 2.57413 12.2903 2.53981 12.3139 2.51449C12.3256 2.50182 12.3356 2.49137 12.3436 2.48319L12.354 2.47262L12.358 2.46862L12.3597 2.46695L12.3604 2.46619C12.3606 2.46602 12.3612 2.46549 12.8863 2.99902L12.3612 2.46549C12.6564 2.17492 13.1312 2.17868 13.4218 2.47388Z" fill="#000000" />
</svg>