<svg width="24px"  height="24px"  viewBox="0 0 24 24" fill="none" xmlns="http://www.w3.org/2000/svg">
<path fill-rule="evenodd" clip-rule="evenodd" d="M7.40051 2.25C6.60788 2.25 5.93545 2.8301 5.8187 3.61344L5.14067 8.17692C4.47453 12.1651 7.32885 15.8196 11.2494 16.2373L11.2499 20.2501H9.80957C9.39536 20.2501 9.05957 20.5859 9.05957 21.0001C9.05957 21.4143 9.39536 21.7501 9.80957 21.7501H11.9771C11.9809 21.7502 11.9847 21.7503 11.9885 21.7504C11.9924 21.7504 11.9962 21.7504 12.0001 21.7504C12.0077 21.7504 12.0153 21.7503 12.0229 21.7501H14.1906C14.6048 21.7501 14.9406 21.4143 14.9406 21.0001C14.9406 20.5859 14.6048 20.2501 14.1906 20.2501H12.7499L12.7494 16.2373C16.67 15.8198 19.5255 12.1653 18.8593 8.17692L18.1813 3.61344C18.0646 2.8301 17.3921 2.25 16.5995 2.25H7.40051ZM6.62336 8.40422L7.30231 3.83456C7.30958 3.78592 7.35114 3.75 7.40051 3.75H16.5995C16.6489 3.75 16.6904 3.7859 16.6977 3.83456L17.3766 8.40422L17.3789 8.41831C17.938 11.7448 15.3727 14.777 11.9995 14.777C8.6265 14.777 6.062 11.745 6.62113 8.41831L6.62336 8.40422Z" fill="#000000" />
<path opacity="0.4" fill-rule="evenodd" clip-rule="evenodd" d="M17.295 7.85361L16.918 8.09582C15.6201 8.93153 13.9731 9.00486 12.6051 8.28804C10.8026 7.34371 8.63452 7.41533 6.89766 8.47559L6.58495 8.66687C6.19173 11.8882 8.70182 14.7656 11.9815 14.7761C11.9873 14.7761 11.9932 14.7761 11.999 14.7761C14.9926 14.7761 17.3499 12.3879 17.4518 9.52533C17.4646 9.16244 17.4418 8.79166 17.3789 8.41742L17.3766 8.40333L17.295 7.85361Z" fill="#000000" />
</svg>