<svg width="24px"  height="24px"  viewBox="0 0 24 24" fill="none" xmlns="http://www.w3.org/2000/svg">
<path opacity="0.4" fill-rule="evenodd" clip-rule="evenodd" d="M6.55585 11.0331C8.33748 10.028 10.7812 10.1698 12.3979 11.4656C12.4928 11.5404 12.5827 11.6036 12.6746 11.6589C12.6815 11.6631 12.6883 11.6673 12.6951 11.6717C13.2626 12.0385 13.979 12.2307 14.7077 12.2307C15.3786 12.2307 16.0359 12.0677 16.5837 11.7565C16.9439 11.5519 17.4017 11.678 17.6063 12.0381C17.6424 12.1017 17.6683 12.1683 17.6843 12.2361C17.7114 12.3253 17.7222 12.4211 17.7135 12.5197L17.1165 19.2847C16.9927 20.6795 15.8241 21.7502 14.4226 21.7502H9.21928C7.80113 21.7502 6.62473 20.6541 6.52243 19.2408L5.9902 11.8143C5.96376 11.4454 6.20888 11.1197 6.55585 11.0331Z" fill="#000000" />
<path fill-rule="evenodd" clip-rule="evenodd" d="M14.2296 5.83618L14.5254 4.21715C14.5884 3.87364 14.9434 3.66767 15.2726 3.78286L17.2393 4.47347C17.6301 4.6107 18.0582 4.40513 18.1955 4.01431C18.3327 3.62349 18.1271 3.19542 17.7363 3.05819L15.7685 2.36721C14.5701 1.94741 13.2789 2.69717 13.0499 3.94725L12.7048 5.83618H8.46575C6.89736 5.83618 5.65695 7.16741 5.76983 8.7326L6.52293 19.2409C6.62523 20.6543 7.80163 21.7504 9.21978 21.7504H14.4231C15.8245 21.7504 16.9932 20.6796 17.117 19.2848L18.0443 8.77664C18.183 7.19602 16.9375 5.83618 15.3503 5.83618H14.2296ZM12.4308 7.33618L10.8112 16.2015C10.7367 16.6089 11.0067 16.9996 11.4142 17.0741C11.8216 17.1485 12.2123 16.8785 12.2867 16.4711L13.9556 7.33618H15.3503C16.0573 7.33618 16.6118 7.94169 16.55 8.64554L15.6229 19.153C15.5675 19.7739 15.0472 20.2504 14.4231 20.2504H9.21978C8.58909 20.2504 8.06486 19.7622 8.01902 19.1326L7.26596 8.62491C7.21567 7.92917 7.76733 7.33618 8.46575 7.33618H12.4308Z" fill="#000000" />
</svg>