<svg width="24px"  height="24px"  viewBox="0 0 24 24" fill="none" xmlns="http://www.w3.org/2000/svg">
<path opacity="0.4" fill-rule="evenodd" clip-rule="evenodd" d="M21.561 13.8027C21.3999 13.2512 21.1416 12.7441 20.9155 12.3008L20.8101 12.0928C20.7236 11.9243 20.644 11.7634 20.5737 11.6074C20.4307 11.2908 20.3242 10.9939 20.27 10.6926C20.2029 10.314 20.1934 9.93536 20.1823 9.48871L20.1777 9.30271C20.165 8.80271 20.1401 8.23265 19.9819 7.63279C19.5518 6.02268 18.4468 4.67259 17.0361 3.85276C14.7871 2.55271 12.4302 2.6428 10.2632 4.05271C9.40186 4.61277 8.51612 5.06272 7.55909 5.40281C4.45118 6.49266 2.30078 9.57273 2.25098 12.8428C2.17676 17.5427 6.32911 21.4629 11.0371 21.0327C11.4766 20.9951 11.915 20.9079 12.3291 20.8122C12.5029 20.772 12.6723 20.7303 12.8357 20.69C13.0056 20.6482 13.1689 20.608 13.3237 20.5727C14.021 20.4126 14.626 20.3227 15.2329 20.4228C16.354 20.6128 17.415 20.5327 18.377 20.1428C19.3408 19.7427 20.1538 19.0527 20.812 18.1128C21.6558 16.8928 21.9951 15.2827 21.561 13.8027ZM10.026 16.9643C12.0311 16.9727 13.6855 15.3213 13.6907 13.3058C13.6959 11.2372 12.0862 9.6161 10.027 9.61402C8.0011 9.6109 6.35602 11.2383 6.3477 13.2528C6.33833 15.2849 7.99486 16.956 10.026 16.9643Z" fill="#000000" />
<path fill-rule="evenodd" clip-rule="evenodd" d="M13.6907 13.307C13.6855 15.3226 12.0311 16.9739 10.026 16.9656C7.99486 16.9572 6.33833 15.2861 6.3477 13.254C6.35602 11.2395 8.0011 9.61212 10.027 9.61524C12.0862 9.61732 13.6959 11.2385 13.6907 13.307ZM9.5425 13.0458C9.63142 12.8724 9.81262 12.7539 10.0233 12.7539C10.4375 12.7539 10.7733 12.4181 10.7733 12.0039C10.7733 11.5897 10.4375 11.2539 10.0233 11.2539C9.23178 11.2539 8.54506 11.7037 8.20781 12.3612C8.01878 12.7298 8.16432 13.1818 8.53289 13.3708C8.90145 13.5599 9.35347 13.4143 9.5425 13.0458Z" fill="#000000" />
</svg>