<svg width="24px"  height="24px"  viewBox="0 0 25 24" fill="none" xmlns="http://www.w3.org/2000/svg">
<path opacity="0.4" d="M13.0602 21.9858C17.4313 21.6883 20.8331 18.0225 20.7985 14.0301C20.7704 12.3146 20.514 11.0166 20.0792 9.75859C19.2323 7.3032 18.024 5.06739 15.9797 3.38972C13.7309 1.54331 11.3382 1.53033 9.06997 3.34321C7.2744 4.7775 6.12566 6.6834 5.27655 8.77968C4.49234 10.7159 4.00992 12.7148 4.27493 14.823C4.81143 19.1107 8.71193 22.2822 13.0602 21.9858Z" fill="#000000" />
<path fill-rule="evenodd" clip-rule="evenodd" d="M12.499 11.1055C10.7958 11.1055 9.41412 12.4868 9.41412 14.1915C9.41412 15.8962 10.7958 17.2776 12.499 17.2776C14.2035 17.2776 15.5851 15.8961 15.5851 14.1915C15.5851 12.487 14.2035 11.1055 12.499 11.1055Z" fill="#000000" />
</svg>