<svg width="24px"  height="24px"  viewBox="0 0 24 24" fill="none" xmlns="http://www.w3.org/2000/svg">
<path d="M8.01074 9.11836C8.01074 8.95267 7.87643 8.81836 7.71074 8.81836H6.45107C4.6794 8.81836 3.24316 10.2546 3.24316 12.0263V14.3197C3.24316 18.2855 6.45808 21.5004 10.4239 21.5004C14.3897 21.5004 17.6046 18.2855 17.6046 14.3197V12.0263C17.6046 10.2546 16.1684 8.81836 14.3967 8.81836H9.81074C9.64506 8.81836 9.51074 8.95267 9.51074 9.11836V13.0266C9.51074 13.4408 9.17496 13.7766 8.76074 13.7766C8.34653 13.7766 8.01074 13.4408 8.01074 13.0266V9.11836Z" fill="#000000" />
<g opacity="0.4">
<path d="M13.0447 2.46967C12.7518 2.17678 12.2769 2.17678 11.984 2.46967C11.6911 2.76256 11.6911 3.23744 11.984 3.53033C12.1585 3.70479 12.1577 3.9865 11.9846 4.15925C11.2249 4.91888 11.2236 6.15174 11.9846 6.91114C12.2778 7.20373 12.7526 7.20324 13.0452 6.91004C13.3378 6.61684 13.3373 6.14197 13.0441 5.84938C12.8711 5.67668 12.8702 5.39508 13.0445 5.22061C13.8051 4.46118 13.8042 3.22917 13.0447 2.46967Z" fill="#000000" />
<path d="M8.32788 4.1601C8.62077 4.45299 8.62077 4.92787 8.32788 5.22076C8.15342 5.39522 8.15422 5.67693 8.32733 5.84968C8.62053 6.14227 8.62102 6.61714 8.32843 6.91034C8.03585 7.20354 7.56097 7.20403 7.26777 6.91144C6.50679 6.15204 6.50759 4.91973 7.26722 4.1601C7.56011 3.86721 8.03499 3.86721 8.32788 4.1601Z" fill="#000000" />
<path d="M20.0062 10.9054C20.4704 11.2512 20.8175 11.7646 20.9591 12.4618C20.9623 12.4775 20.965 12.4934 20.9672 12.5094C21.2427 14.5227 20.0725 15.8534 18.989 16.6181C18.4438 17.0028 17.8905 17.2696 17.4783 17.4397C17.2707 17.5254 17.0952 17.5881 16.9695 17.6299C16.9065 17.6509 16.8557 17.6667 16.8194 17.6777C16.8012 17.6832 16.7865 17.6875 16.7757 17.6906L16.7625 17.6943L16.758 17.6956L16.7564 17.696C16.7561 17.6961 16.7551 17.6964 16.5568 16.9731L16.7551 17.6964C16.3556 17.8059 15.943 17.5708 15.8335 17.1714C15.7241 16.7721 15.9588 16.3597 16.3579 16.2499L16.3615 16.2489L16.3864 16.2416C16.41 16.2344 16.4471 16.2229 16.4957 16.2067C16.5929 16.1744 16.7351 16.1237 16.906 16.0532C17.2505 15.911 17.697 15.6939 18.124 15.3925C18.9791 14.7891 19.6393 13.9461 19.4843 12.7375C19.4125 12.4071 19.2669 12.2252 19.1101 12.1084C18.9329 11.9764 18.691 11.8922 18.4042 11.853C18.1203 11.8143 17.8349 11.8255 17.6128 11.8494C17.5038 11.8611 17.415 11.8754 17.3556 11.8862C17.326 11.8916 17.304 11.896 17.2908 11.8988L17.2779 11.9017C16.8752 11.9977 16.4716 11.7491 16.3752 11.3465C16.2788 10.9436 16.5273 10.5389 16.9301 10.4425L17.1046 11.1719C16.9301 10.4425 16.9298 10.4426 16.9301 10.4425L16.9313 10.4422L16.9328 10.4419L16.9365 10.441L16.9469 10.4386L16.9792 10.4316C17.0057 10.4259 17.0421 10.4186 17.087 10.4104C17.1767 10.3941 17.3019 10.3742 17.4523 10.358C17.749 10.3261 18.164 10.3063 18.6071 10.3668C19.0473 10.4269 19.5588 10.5722 20.0062 10.9054Z" fill="#000000" />
</g>
</svg>