<svg width="24px"  height="24px"  viewBox="0 0 24 24" fill="none" xmlns="http://www.w3.org/2000/svg">
<path d="M6.15863 3.03914C6.18024 2.48728 5.75039 2.02239 5.19853 2.00078C4.64667 1.97917 4.18178 2.40903 4.16017 2.96089L3.95584 8.17889C3.95533 8.19192 3.95508 8.20497 3.95508 8.21801C3.95508 10.2194 5.33995 11.8969 7.20291 12.3464L7.20367 21.0001C7.20372 21.5524 7.65148 22.0001 8.20376 22C8.75605 22 9.20372 21.5522 9.20367 20.9999L9.20291 12.3465C11.0664 11.8969 12.4506 10.2193 12.4506 8.21801C12.4506 8.20503 12.4503 8.19205 12.4498 8.17907L12.2465 2.96107C12.225 2.40921 11.7602 1.97927 11.2083 2.00077C10.6564 2.02228 10.2265 2.48709 10.248 3.03896L10.4505 8.23573C10.441 9.46827 9.43896 10.4648 8.20283 10.4648C6.9675 10.4648 5.96472 9.46812 5.95515 8.23582L6.15863 3.03914Z" fill="#000000" />
<path d="M9.20367 3.00001C9.20367 2.44773 8.75596 2.00001 8.20367 2.00001C7.65139 2.00001 7.20367 2.44773 7.20367 3.00001V7.78894C7.20367 8.34122 7.65139 8.78894 8.20367 8.78894C8.75596 8.78894 9.20367 8.34122 9.20367 7.78894V3.00001Z" fill="#000000" />
<path opacity="0.4" fill-rule="evenodd" clip-rule="evenodd" d="M20.0413 3.0199C20.0407 2.49485 19.6355 2.06483 19.1209 2.02431C19.0912 2.02115 19.0609 2.01953 19.0303 2.01953C18.958 2.01953 18.8878 2.02858 18.8208 2.0456C18.3741 2.14615 18.0407 2.54554 18.0413 3.02249C18.0421 3.62498 18.0428 4.60459 18.0433 5.80017C18.0433 5.80017 18.0515 6.11403 18.0435 6.27089C18.0351 6.43515 17.9966 6.52205 17.9482 6.58469C17.8527 6.65013 17.7563 6.71408 17.6597 6.77788C17.4329 6.92774 17.1351 7.12185 16.834 7.31735C16.6282 7.45089 16.4153 7.58871 16.2227 7.71332L16.2136 7.71921C15.8773 7.93681 15.6051 8.11299 15.5457 8.15366L15.5437 8.15508C14.7014 8.73706 14.1769 9.55565 14.0892 10.691L14.0888 10.6965C14.0884 10.7017 14.0881 10.7068 14.0878 10.712C14.0877 10.7145 14.0875 10.717 14.0874 10.7195C13.8892 14.8095 14.6368 17.5142 15.5399 19.2453C15.9901 20.1083 16.4744 20.7202 16.8868 21.134C17.0923 21.3402 17.2819 21.4991 17.4429 21.6161C17.5671 21.7062 17.7596 21.8352 17.9593 21.8989C18.5189 22.0772 19.1068 21.9492 19.5231 21.5351C19.9005 21.1596 20.0403 20.6503 20.0413 20.1909C20.0451 18.8078 20.0454 11.0996 20.0435 6.28297C20.0451 6.22155 20.045 6.16022 20.0434 6.09908C20.0429 4.76684 20.0422 3.67227 20.0413 3.0199ZM18.0435 6.27089C18.0515 6.11403 18.0433 5.80017 18.0433 5.80017L18.0435 6.27089Z" fill="#000000" />
</svg>