<svg width="24px"  height="24px"  viewBox="0 0 25 24" fill="none" xmlns="http://www.w3.org/2000/svg">
<path opacity="0.4" d="M17.0333 11.8203C17.2005 11.4515 17.1139 11.0173 16.8277 10.7311L13.7677 7.67109C13.4816 7.38494 13.0473 7.29829 12.6785 7.46555C12.0387 7.75674 11.4402 8.26456 10.6362 8.13256C8.38526 7.76278 6.00738 9.15727 4.91114 10.2888C2.38011 12.9014 2.34585 17.0214 4.91114 19.5877C7.47643 22.153 11.5974 22.1187 14.2101 19.5877C15.3416 18.4904 16.7361 16.1136 16.3663 13.8626C16.2343 13.0586 16.7421 12.4601 17.0333 11.8203Z" fill="#000000" />
<path d="M15.0625 7.50481C14.9492 7.3915 14.9492 7.20781 15.0625 7.0945L15.8235 6.33447C15.5109 5.937 15.3212 5.43151 15.3212 4.88047C15.3212 3.56898 16.3902 2.5 17.7017 2.5C18.8394 2.5 19.8297 3.47446 19.859 4.63668C21.0189 4.6599 21.9998 5.65162 21.9998 6.78775C21.9998 8.10959 20.9308 9.17857 19.609 9.17857C19.0615 9.17857 18.5576 8.9864 18.1583 8.67383L17.3996 9.43157C17.2863 9.54487 17.1026 9.54487 16.9893 9.43157L15.0625 7.50481Z" fill="#000000" />
<path d="M13.4799 14.6479C13.4799 14.2337 13.1441 13.8979 12.7299 13.8979C12.3157 13.8979 11.9799 14.2337 11.9799 14.6479V14.7141C11.9799 15.1283 12.3157 15.4641 12.7299 15.4641C13.1441 15.4641 13.4799 15.1283 13.4799 14.7141V14.6479Z" fill="#000000" />
<path d="M10.333 16.4846C10.333 16.0704 9.99722 15.7346 9.58301 15.7346C9.16879 15.7346 8.83301 16.0704 8.83301 16.4846V16.5508C8.83301 16.965 9.16879 17.3008 9.58301 17.3008C9.99722 17.3008 10.333 16.965 10.333 16.5508V16.4846Z" fill="#000000" />
<path d="M12.8918 17.3863C12.8918 16.9721 12.556 16.6363 12.1418 16.6363C11.7275 16.6363 11.3918 16.9721 11.3918 17.3863V17.4524C11.3918 17.8667 11.7275 18.2024 12.1418 18.2024C12.556 18.2024 12.8918 17.8667 12.8918 17.4524V17.3863Z" fill="#000000" />
</svg>