<svg width="24px"  height="24px"  viewBox="0 0 25 24" fill="none" xmlns="http://www.w3.org/2000/svg">
<path opacity="0.4" fill-rule="evenodd" clip-rule="evenodd" d="M4.8674 10.884C4.65284 9.8829 5.41549 8.93945 6.43922 8.93945H8.67217C9.20133 8.93945 9.67089 9.27729 9.83829 9.7795L10.3316 11.2604C10.3628 11.3539 10.4501 11.4166 10.548 11.4166H14.4526C14.5505 11.4166 14.6378 11.354 14.669 11.2604L15.1623 9.77959C15.3297 9.27738 15.7993 8.93945 16.3284 8.93945H18.5614C19.5851 8.93945 20.3478 9.8829 20.1332 10.884L18.1892 19.9588C17.9957 20.857 17.2027 21.4993 16.2837 21.4993H8.71693C7.79786 21.4993 7.00501 20.8576 6.8115 19.9594L4.8674 10.884ZM12.5008 14.3413C13.5778 14.3413 14.4517 15.2152 14.4517 16.2923C14.4517 17.3693 13.5778 18.2432 12.5008 18.2432C11.4237 18.2432 10.5498 17.3693 10.5498 16.2923C10.5498 15.2152 11.4237 14.3413 12.5008 14.3413Z" fill="#000000" />
<path d="M9.14005 2.72241L10.4501 2.51292C11.0301 2.42292 11.5761 2.81245 11.6771 3.39245L12.4631 7.9104L12.8521 4.27246H12.8531C12.9171 3.69246 13.4371 3.26238 14.0201 3.32238H14.0221L15.3481 3.45239H15.3491C15.9431 3.50239 16.3741 4.04244 16.3091 4.63244L15.9293 8.18042L16.7121 5.57238C16.8751 5.02238 17.4369 4.70307 17.9939 4.83307L19.2829 5.14316C19.8842 5.29439 20.2348 5.91336 20.0571 6.50244H20.0561L19.2667 9.08079C19.2642 9.08702 19.2618 9.09325 19.2593 9.09947C19.0496 8.99834 18.8134 8.94116 18.5614 8.94116H17.7407H17.267H16.3284C15.7993 8.94116 15.3297 9.27909 15.1623 9.7813L14.669 11.2622C14.6378 11.3557 14.5505 11.4183 14.4526 11.4183H14.0737H13.5972H11.5504H11.0647H10.548C10.4501 11.4183 10.3628 11.3556 10.3316 11.2621L9.83829 9.78121C9.67089 9.279 9.20133 8.94116 8.67217 8.94116H7.63395H7.16736H6.43922C6.15303 8.94116 5.88724 9.0149 5.6575 9.14301C5.65506 9.13419 5.65262 9.12536 5.65017 9.11651L4.94605 6.87243C4.76105 6.28243 5.11106 5.66245 5.71006 5.51245H5.71107L6.99107 5.19238C7.54398 5.05316 8.10481 5.36894 8.27427 5.91333L8.27708 5.91247L8.99882 8.27404L8.25205 3.9624C8.15205 3.3724 8.54905 2.82241 9.14005 2.72241Z" fill="#000000" />
</svg>