<svg width="24px"  height="24px"  viewBox="0 0 25 24" fill="none" xmlns="http://www.w3.org/2000/svg">
<path fill-rule="evenodd" clip-rule="evenodd" d="M3.59046 9.10527C3.97933 8.75617 4.4463 8.5103 4.9066 8.26795L5.01718 8.20965C5.64988 7.8734 6.30667 7.58323 6.98546 7.35278C7.48617 7.18204 7.99841 7.04481 8.51798 6.9432C8.73144 6.90142 8.92728 6.76212 9.12147 6.624C9.19505 6.57166 9.2684 6.5195 9.34237 6.47287C9.45358 6.40223 9.56102 6.32365 9.66836 6.24513C9.86029 6.10475 10.0519 5.9646 10.2642 5.87055C10.6015 5.72111 10.9481 5.59328 11.2946 5.46545C11.6088 5.34956 11.923 5.23367 12.2304 5.10167C12.6766 4.90893 13.0757 4.90683 13.4088 5.27032C14.0216 5.93968 14.8135 6.14499 15.6725 6.21413C16.3293 6.26651 16.9012 6.47391 17.4837 6.84369C17.9215 7.12236 18.4222 7.29946 18.9243 7.47707C19.2187 7.5812 19.5136 7.6855 19.7966 7.81054C20.4377 8.09442 21.0075 8.52809 21.5302 8.9869C21.7693 9.19608 21.9184 9.46156 22.0114 9.70496C22.0332 9.76192 22.0253 9.8261 21.989 9.87511C21.4192 10.6444 20.1916 10.8288 19.3288 11.0146C17.5676 11.3939 15.1641 11.6318 12.4999 11.6318C9.83514 11.6318 7.43142 11.3939 5.66999 11.0146C4.87963 10.8444 3.56759 10.6633 3.03782 9.92543C2.99521 9.86608 2.99617 9.78684 3.03841 9.72723C3.23596 9.4484 3.56992 9.12336 3.59046 9.10527ZM13.959 8.87646C13.959 8.46225 14.2948 8.12646 14.709 8.12646H14.7567C15.1709 8.12646 15.5067 8.46225 15.5067 8.87646C15.5067 9.29068 15.1709 9.62646 14.7567 9.62646H14.709C14.2948 9.62646 13.959 9.29068 13.959 8.87646ZM16.9189 8.92651C16.5047 8.92651 16.1689 9.2623 16.1689 9.67651C16.1689 10.0907 16.5047 10.4265 16.9189 10.4265H16.9666C17.3808 10.4265 17.7166 10.0907 17.7166 9.67651C17.7166 9.2623 17.3808 8.92651 16.9666 8.92651H16.9189ZM12.4531 9.05762C12.0389 9.05762 11.7031 9.3934 11.7031 9.80762C11.7031 10.2218 12.0389 10.5576 12.4531 10.5576H12.5008C12.915 10.5576 13.2508 10.2218 13.2508 9.80762C13.2508 9.3934 12.915 9.05762 12.5008 9.05762H12.4531Z" fill="#000000" />
<path opacity="0.4" d="M21.7664 11.4822C21.9111 11.4061 22.0749 11.5282 22.0362 11.6871C21.5684 13.6075 20.0612 15.6021 17.9568 16.6532C17.8685 16.6973 17.8206 16.7989 17.8365 16.8963C17.8768 17.1433 17.9183 17.5646 17.8443 17.7215C17.8367 17.736 17.829 17.753 17.8203 17.7723C17.6753 18.0933 17.2541 19.0256 12.4936 19.0256C7.74447 19.0256 7.32343 18.0935 7.17841 17.7724C7.1697 17.7531 7.16198 17.736 7.15439 17.7215C7.07887 17.5704 7.12044 17.1153 7.16002 16.8559C7.17462 16.7602 7.12723 16.6616 7.04067 16.6183C4.94641 15.5697 3.43724 13.5945 2.96589 11.6886C2.92658 11.5297 3.0903 11.4072 3.23526 11.4834C3.8211 11.791 4.53666 12.1743 5.34921 12.3493C7.24173 12.7568 9.75722 13.0006 12.5001 13.0006C15.2424 13.0006 17.7577 12.7568 19.65 12.3493C20.4637 12.1741 21.18 11.7902 21.7664 11.4822Z" fill="#000000" />
</svg>