<svg width="24px"  height="24px"  viewBox="0 0 24 24" fill="none" xmlns="http://www.w3.org/2000/svg">
<path d="M4.16406 10.834C4.16406 9.92479 4.90109 9.18945 5.80862 9.18945H19.1385C20.0461 9.18945 20.7831 9.92479 20.7831 10.834V11.9447C20.7831 14.884 19.2566 17.4671 16.9531 18.9444V20.005C16.9531 20.8308 16.2836 21.5003 15.4578 21.5003H9.48755C8.66167 21.5003 7.99219 20.8308 7.99219 20.005V18.9432C5.68977 17.4658 4.16406 14.8832 4.16406 11.9447V10.834Z" fill="#000000" />
<g opacity="0.4">
<path fill-rule="evenodd" clip-rule="evenodd" d="M3.74352 4.62793C4.05098 4.35037 4.52523 4.3746 4.8028 4.68205L8.86889 9.18598C9.14645 9.49344 9.12222 9.96769 8.81477 10.2453C8.50731 10.5228 8.03306 10.4986 7.75549 10.1911L3.6894 5.68721C3.41183 5.37976 3.43606 4.9055 3.74352 4.62793Z" fill="#000000" />
<path fill-rule="evenodd" clip-rule="evenodd" d="M8.01222 2.46655C8.36466 2.24893 8.82679 2.35822 9.04441 2.71066L13.1105 9.2958C13.3281 9.64824 13.2188 10.1104 12.8664 10.328C12.5139 10.5456 12.0518 10.4363 11.8342 10.0839L7.76811 3.49873C7.55049 3.14629 7.65978 2.68416 8.01222 2.46655Z" fill="#000000" />
<path fill-rule="evenodd" clip-rule="evenodd" d="M11.8567 2.76352C11.9874 2.37047 12.412 2.15781 12.805 2.28853C13.4276 2.49556 13.9056 2.9349 14.1289 3.50995C14.3523 4.08505 14.2962 4.73189 13.9763 5.30489C13.7745 5.66658 13.3176 5.79613 12.9559 5.59425C12.5942 5.39236 12.4647 4.9355 12.6666 4.57382C12.7855 4.36065 12.78 4.17997 12.7307 4.05306C12.6814 3.92611 12.5634 3.78895 12.3317 3.71188C11.9386 3.58116 11.726 3.15657 11.8567 2.76352Z" fill="#000000" />
<path fill-rule="evenodd" clip-rule="evenodd" d="M17.7802 4.89841C17.8916 5.29737 17.6584 5.71107 17.2595 5.82244C17.0234 5.88833 16.8989 6.0197 16.8434 6.14391C16.7879 6.26815 16.7734 6.44856 16.8818 6.66812C17.0653 7.0395 16.9129 7.48927 16.5416 7.67272C16.1702 7.85617 15.7204 7.70383 15.537 7.33246C15.2465 6.74444 15.2222 6.09588 15.4737 5.53246C15.7252 4.96902 16.2243 4.55406 16.8562 4.37767C17.2551 4.26631 17.6688 4.49944 17.7802 4.89841Z" fill="#000000" />
</g>
</svg>