<svg width="24px"  height="24px"  viewBox="0 0 24 24" fill="none" xmlns="http://www.w3.org/2000/svg">
<path d="M15.4245 2.25C15.8387 2.25 16.1745 2.58579 16.1745 3V3.79201C16.1745 4.20622 15.8387 4.54201 15.4245 4.54201C15.0103 4.54201 14.6745 4.20622 14.6745 3.79201V3C14.6745 2.58579 15.0103 2.25 15.4245 2.25Z" fill="#000000" />
<path d="M19.9541 4.01824C20.247 4.31113 20.247 4.78601 19.9541 5.0789L18.9004 6.13264C18.6075 6.42553 18.1326 6.42553 17.8397 6.13264C17.5468 5.83975 17.5468 5.36487 17.8397 5.07198L18.8935 4.01824C19.1864 3.72535 19.6612 3.72535 19.9541 4.01824Z" fill="#000000" />
<path d="M19.4579 8.57542C19.4579 8.16121 19.7937 7.82542 20.2079 7.82542H20.9999C21.4141 7.82542 21.7499 8.16121 21.7499 8.57542C21.7499 8.98964 21.4141 9.32542 20.9999 9.32542H20.2079C19.7937 9.32542 19.4579 8.98964 19.4579 8.57542Z" fill="#000000" />
<path d="M13.8846 5.10768C12.945 4.16813 11.4211 4.16809 10.4815 5.10755L9.9519 5.63675L18.3633 14.0481L18.8925 13.5189C19.8321 12.5793 19.8321 11.0552 18.8925 10.1156L13.8846 5.10768Z" fill="#000000" />
<path opacity="0.4" fill-rule="evenodd" clip-rule="evenodd" d="M17.2906 15.0965L8.90311 6.70898C8.5192 7.17995 8.26961 7.74864 8.18283 8.35318L7.98535 9.73943C7.90331 10.3099 7.63941 10.8382 7.2326 11.245L3.64327 14.8343C2.11891 16.3587 2.11891 18.8314 3.64327 20.3557C5.16848 21.8809 7.64132 21.881 9.16579 20.3556L12.754 16.7674C13.162 16.3604 13.6906 16.0966 14.2609 16.0146L15.6473 15.8171C16.2522 15.7302 16.82 15.4805 17.2906 15.0965ZM10.7874 14.2735C11.0803 13.9806 11.0803 13.5057 10.7874 13.2128C10.4945 12.92 10.0197 12.92 9.72677 13.2128L8.28189 14.6577C7.989 14.9506 7.989 15.4255 8.28189 15.7184C8.57478 16.0113 9.04966 16.0113 9.34255 15.7184L10.7874 14.2735Z" fill="#000000" />
</svg>