<svg width="24px"  height="24px"  viewBox="0 0 24 24" fill="none" xmlns="http://www.w3.org/2000/svg">
<path opacity="0.4" d="M4.68787 9.80748C4.68787 5.26551 8.8347 1.70376 13.529 2.6547C16.3172 3.2249 18.5689 5.46329 19.1516 8.25262C19.7164 10.9736 18.7473 13.5397 16.9437 15.1972C16.8547 15.279 16.7374 15.3223 16.6165 15.3223H12.2541C11.8399 15.3223 11.5041 15.6581 11.5041 16.0723C11.5041 16.4865 11.8399 16.8223 12.2541 16.8223H14.6858C14.9619 16.8223 15.1858 17.0462 15.1858 17.3223V18.3198C15.1858 20.0699 13.7555 21.5003 12.0053 21.5003C10.256 21.5003 8.82581 20.0698 8.82581 18.3198V16.6935C8.82581 16.5008 8.71432 16.3266 8.54424 16.2361C6.24925 15.0146 4.68787 12.5957 4.68787 9.80748Z" fill="#000000" />
<path d="M12.6662 7.3955C12.864 7.0316 12.7294 6.5762 12.3655 6.37835C12.0016 6.18049 11.5462 6.3151 11.3484 6.679L9.92007 9.30596C9.79372 9.53835 9.79913 9.82012 9.93431 10.0475C10.0695 10.2749 10.3145 10.4142 10.579 10.4142H12.1594L11.3331 11.9315C11.1349 12.2952 11.2692 12.7507 11.633 12.9488C11.9967 13.147 12.4522 13.0127 12.6503 12.6489L14.0806 10.0229C14.2071 9.79055 14.2019 9.50866 14.0667 9.28116C13.9316 9.05365 13.6865 8.91421 13.4219 8.91421H11.8404L12.6662 7.3955Z" fill="#000000" />
</svg>