<svg width="24px"  height="24px"  viewBox="0 0 24 24" fill="none" xmlns="http://www.w3.org/2000/svg">
<path opacity="0.4" fill-rule="evenodd" clip-rule="evenodd" d="M4.75879 9.76154C4.75879 12.427 6.19138 14.7542 8.32692 16.0145C8.47061 16.0993 8.63554 16.1399 8.8024 16.1399H15.3191C15.4878 16.1399 15.6544 16.0985 15.7992 16.0119C18.3239 14.5008 19.8507 11.4678 19.1755 8.21353C18.5954 5.43169 16.3495 3.20175 13.5698 2.63284C8.89296 1.68455 4.75879 5.2349 4.75879 9.76154Z" fill="#000000" />
<path fill-rule="evenodd" clip-rule="evenodd" d="M11.1545 7.82675C10.3397 7.66158 9.63379 8.27293 9.63379 9.0483C9.63379 9.46251 9.298 9.7983 8.88379 9.7983C8.46958 9.7983 8.13379 9.46251 8.13379 9.0483C8.13379 7.33877 9.69481 6.00033 11.4525 6.35666C11.8585 6.43895 12.1209 6.83476 12.0386 7.24072C11.9563 7.64667 11.5605 7.90905 11.1545 7.82675Z" fill="#000000" />
<path d="M14.7723 17.3008C15.0485 17.3008 15.2723 17.5246 15.2723 17.8008V18.1436C15.2723 19.9163 13.8245 21.3627 12.0532 21.3627C10.282 21.3627 8.83411 19.9163 8.83411 18.1436V17.8008C8.83411 17.5246 9.05796 17.3008 9.33411 17.3008H14.7723Z" fill="#000000" />
</svg>