<svg width="24px"  height="24px"  viewBox="0 0 24 24" fill="none" xmlns="http://www.w3.org/2000/svg">
<g opacity="0.4">
<path d="M12.0812 3.10968C11.9333 3.25759 11.9515 3.5024 12.1138 3.63438C13.3139 4.61029 15.006 6.45849 15.9165 7.68892C17.272 9.52055 17.9491 11.8731 17.8342 14.1324C17.7097 16.5796 16.6634 18.853 14.6244 20.25H7.05566C6.64145 20.25 6.30566 20.5858 6.30566 21C6.30566 21.4142 6.64145 21.75 7.05566 21.75H14.8367C14.8462 21.7501 14.8558 21.7501 14.8654 21.75H18.7611C19.1753 21.75 19.5111 21.4142 19.5111 21C19.5111 20.5858 19.1753 20.25 18.7611 20.25H16.9076C18.4433 18.5923 19.2197 16.4222 19.3323 14.2086C19.4716 11.4687 18.6011 8.60146 16.834 6.42471C17.0149 6.03517 17.1044 5.61552 17.1105 5.20207C17.1106 5.19489 17.1106 5.1877 17.1105 5.18051C17.1002 4.44561 16.8239 3.6901 16.2448 3.10968C15.0986 1.96344 13.2274 1.96344 12.0812 3.10968Z" fill="#000000" />
<path d="M8.95276 18.9779C8.95276 18.5637 9.28855 18.2279 9.70276 18.2279H10.5717C10.9859 18.2279 11.3217 18.5637 11.3217 18.9779C11.3217 19.3921 10.9859 19.7279 10.5717 19.7279H9.70276C9.28855 19.7279 8.95276 19.3921 8.95276 18.9779Z" fill="#000000" />
</g>
<path d="M10.9315 4.25873L10.9216 4.26867C8.84861 3.66639 6.51966 4.18241 4.88534 5.81673C4.69008 6.01199 4.69008 6.32858 4.88534 6.52384L12.8271 14.4656C12.9209 14.5594 13.0481 14.6121 13.1807 14.6121C13.3133 14.6121 13.4405 14.5594 13.5343 14.4656C14.3613 13.6386 14.902 12.6336 15.1563 11.574C15.5499 9.54645 14.9615 7.36601 13.391 5.79553C12.6741 5.07862 11.8301 4.56635 10.9315 4.25873Z" fill="#000000" />
<path d="M6.40772 9.90449C6.2545 9.75127 6.02002 9.71418 5.82699 9.81263C5.63396 9.91108 5.52631 10.1227 5.56038 10.3367C5.71543 11.3105 6.04844 12.1514 6.63609 12.7652C7.23295 13.3887 8.04448 13.728 9.05126 13.7805C9.25797 13.7913 9.44996 13.6737 9.53413 13.4845C9.61831 13.2954 9.57726 13.074 9.4309 12.9277L6.40772 9.90449Z" fill="#000000" />
</svg>