<svg width="24px"  height="24px"  viewBox="0 0 24 25" fill="none" xmlns="http://www.w3.org/2000/svg">
<path opacity="0.4" d="M19.88 11.7746V4.88461C19.88 3.97461 19.14 3.22461 18.23 3.22461H14.94C14.03 3.22461 13.28 3.97461 13.28 4.88461V11.2746H10.1H4.62C4.34 11.2746 4.12 11.5046 4.12 11.7746V12.5946C4.12 14.8646 5.64 16.7746 7.72 17.3746V17.3887L7.76036 17.3701H14.595C15.2054 17.3701 15.8014 17.1839 16.3032 16.8362L16.8062 16.4878C17.6848 15.8792 18.448 15.119 19.06 14.2427L19.2639 13.9508C19.6194 13.3129 19.8276 12.6046 19.87 11.8746V11.8546C19.88 11.8346 19.88 11.8046 19.88 11.7746Z" fill="#000000" />
<path d="M16.58 6.00391H13.2905V7.50391H16.58C17 7.50391 17.33 7.16391 17.33 6.75391C17.33 6.34391 17 6.00391 16.58 6.00391Z" fill="#000000" />
<path d="M12.39 11.274L6.54997 6.46399C6.22997 6.20399 5.75997 6.25399 5.49997 6.57399C5.23997 6.89399 5.28997 7.37399 5.60997 7.63399L10.1 11.274H12.39Z" fill="#000000" />
<path d="M19.2639 13.9502C19.2005 14.0638 19.1325 14.1752 19.06 14.284L17.81 16.144C17.38 16.784 17.15 17.534 17.15 18.304V20.974H18.44C18.85 20.974 19.19 21.314 19.19 21.724C19.19 22.144 18.85 22.474 18.44 22.474H6.07996C5.66996 22.474 5.32996 22.144 5.32996 21.724C5.32996 21.314 5.66996 20.974 6.07996 20.974H7.71996V17.3881L7.76032 17.3695H14.5949C15.2054 17.3695 15.8013 17.1833 16.3032 16.8357L16.8061 16.4873C17.6848 15.8787 18.448 15.1184 19.0599 14.2422L19.2639 13.9502Z" fill="#000000" />
</svg>