<svg width="24px"  height="24px"  viewBox="0 0 25 25" fill="none" xmlns="http://www.w3.org/2000/svg">
<path opacity="0.4" fill-rule="evenodd" clip-rule="evenodd" d="M21.5332 7.01081V11.6894C21.5332 12.7094 21.2332 13.6994 20.6632 14.5394L20.4998 14.784L20.4976 14.7811L18.9907 17.0426C18.6198 17.5993 17.9952 17.9336 17.3263 17.9336H8.87324V17.9194C6.85324 17.7194 5.26324 16.0194 5.26324 13.9394V13.4994C4.77324 13.1994 4.44324 12.6494 4.44324 12.0294V11.1294C4.44324 10.1794 5.22324 9.39942 6.18324 9.39942H14.4332V7.01081H21.5332Z" fill="#000000" />
<path d="M20.4998 14.7842L20.4977 14.7812L18.9907 17.0428C18.6198 17.5994 17.9952 17.9338 17.3264 17.9338H8.87328V21.0996H7.48328C7.07328 21.0996 6.73328 21.4396 6.73328 21.8496C6.73328 22.2696 7.07328 22.5996 7.48328 22.5996H19.8433C20.2533 22.5996 20.5933 22.2696 20.5933 21.8496C20.5933 21.4396 20.2533 21.0996 19.8433 21.0996H18.8033V18.4296C18.8033 17.7096 19.0133 17.0096 19.4133 16.4096L20.4998 14.7842Z" fill="#000000" />
<path d="M19.6332 3.09961H16.3432C15.2932 3.09961 14.4332 3.95961 14.4332 5.00961V6.07172H21.5332V5.00961C21.5332 3.95961 20.6832 3.09961 19.6332 3.09961Z" fill="#000000" />
<path d="M14.4332 11.8494C14.4332 12.0894 14.2532 12.2694 14.0132 12.2694H6.18324C6.05324 12.2694 5.94324 12.1694 5.94324 12.0294V11.1294C5.94324 11.0094 6.05324 10.8994 6.18324 10.8994H14.4332V11.8494Z" fill="#000000" />
</svg>