<svg width="24px"  height="24px"  viewBox="0 0 24 24" fill="none" xmlns="http://www.w3.org/2000/svg">
<path opacity="0.4" fill-rule="evenodd" clip-rule="evenodd" d="M20.0999 13.36L10.6399 3.9C9.73988 3 8.53988 2.5 7.26988 2.5C5.98988 2.5 4.79988 3 3.89988 3.9C2.03988 5.76 2.03988 8.78 3.89988 10.64L13.3599 20.1C14.2599 21.01 15.4599 21.5 16.7299 21.5C18.0099 21.5 19.1999 21.01 20.0999 20.1C21.9599 18.24 21.9599 15.22 20.0999 13.36Z" fill="#000000" />
<path fill-rule="evenodd" clip-rule="evenodd" d="M11.0599 11.9999C11.0599 11.4799 11.4799 11.0599 11.9999 11.0599C12.5199 11.0599 12.9399 11.4799 12.9399 11.9999C12.9399 12.5199 12.5199 12.9399 11.9999 12.9399C11.4799 12.9399 11.0599 12.5199 11.0599 11.9999Z" fill="#000000" />
<path fill-rule="evenodd" clip-rule="evenodd" d="M20.0999 10.64L18.7399 12L11.9999 5.26L13.3599 3.9C14.2599 3 15.4599 2.5 16.7299 2.5C18.0099 2.5 19.1999 3 20.0999 3.9C21.9599 5.76 21.9599 8.78 20.0999 10.64Z" fill="#000000" />
<path fill-rule="evenodd" clip-rule="evenodd" d="M11.9999 18.74L10.6399 20.1C9.73988 21.01 8.53988 21.5 7.26988 21.5C5.98988 21.5 4.79988 21.01 3.89988 20.1C2.03988 18.24 2.03988 15.22 3.89988 13.36L5.25988 12L11.9999 18.74Z" fill="#000000" />
</svg>