<svg width="24px"  height="24px"  viewBox="0 0 24 24" fill="none" xmlns="http://www.w3.org/2000/svg">
<path opacity="0.4" fill-rule="evenodd" clip-rule="evenodd" d="M20.0525 13.3268L10.5925 3.8668C9.69252 2.9668 8.49252 2.4668 7.22252 2.4668C5.94252 2.4668 4.75252 2.9668 3.85252 3.8668C1.99252 5.7268 1.99252 8.7468 3.85252 10.6068L13.3125 20.0668C14.2125 20.9768 15.4125 21.4668 16.6825 21.4668C17.9625 21.4668 19.1525 20.9768 20.0525 20.0668C21.9125 18.2068 21.9125 15.1868 20.0525 13.3268Z" fill="#000000" />
<path fill-rule="evenodd" clip-rule="evenodd" d="M20.1476 10.6742L18.7876 12.0342L12.0476 5.29418L13.4076 3.93418C14.3076 3.03418 15.5076 2.53418 16.7776 2.53418C18.0576 2.53418 19.2476 3.03418 20.1476 3.93418C22.0076 5.79418 22.0076 8.81418 20.1476 10.6742Z" fill="#000000" />
<path fill-rule="evenodd" clip-rule="evenodd" d="M12.0477 18.7742L10.6877 20.1342C9.78773 21.0442 8.58773 21.5342 7.31773 21.5342C6.03773 21.5342 4.84773 21.0442 3.94773 20.1342C2.08773 18.2742 2.08773 15.2542 3.94773 13.3942L5.30773 12.0342L12.0477 18.7742Z" fill="#000000" />
<path fill-rule="evenodd" clip-rule="evenodd" d="M8.44087 9.21313C8.02687 9.21313 7.68787 8.87713 7.68787 8.46313C7.68787 8.04913 8.02087 7.71313 8.43487 7.71313H8.44087C8.85487 7.71313 9.19087 8.04913 9.19087 8.46313C9.19087 8.87713 8.85487 9.21313 8.44087 9.21313ZM11.5409 9.64313C11.2649 9.64313 11.0009 9.49113 10.8689 9.22813C10.6829 8.85813 10.8319 8.40213 11.2019 8.21713C11.5749 8.03014 12.0209 8.17813 12.2059 8.54813L12.2109 8.55813C12.3959 8.92813 12.2459 9.37813 11.8749 9.56413C11.7669 9.61713 11.6529 9.64313 11.5409 9.64313ZM8.86787 12.3131C8.45387 12.3131 8.11487 11.9771 8.11487 11.5631C8.11487 11.1491 8.44787 10.8131 8.86187 10.8131H8.86787C9.28187 10.8131 9.61787 11.1491 9.61787 11.5631C9.61787 11.9771 9.28187 12.3131 8.86787 12.3131ZM11.9669 12.7431C11.7019 12.7431 11.4439 12.6021 11.3079 12.3531C11.1099 11.9881 11.2409 11.5271 11.6039 11.3291C11.9679 11.1331 12.4219 11.2611 12.6189 11.6231L12.6249 11.6341C12.8229 11.9981 12.6889 12.4531 12.3259 12.6511C12.2119 12.7141 12.0879 12.7431 11.9669 12.7431ZM15.0669 13.1731C14.8119 13.1731 14.5629 13.0431 14.4219 12.8091C14.2099 12.4531 14.3219 11.9881 14.6769 11.7751C15.0299 11.5611 15.4889 11.6701 15.7039 12.0271L15.7099 12.0371C15.9219 12.3931 15.8069 12.8531 15.4519 13.0671C15.3309 13.1391 15.1979 13.1731 15.0669 13.1731ZM12.3939 15.8431C12.1579 15.8431 11.9239 15.7321 11.7789 15.5231C11.5419 15.1841 11.6209 14.7111 11.9599 14.4741C12.2979 14.2351 12.7639 14.3151 13.0009 14.6531L13.0069 14.6631C13.2449 15.0021 13.1629 15.4701 12.8229 15.7071C12.6919 15.7991 12.5429 15.8431 12.3939 15.8431ZM15.4919 16.2631C15.0779 16.2631 14.7399 15.9271 14.7399 15.5131C14.7399 15.0991 15.0729 14.7631 15.4869 14.7631H15.4919C15.9059 14.7631 16.2419 15.0991 16.2419 15.5131C16.2419 15.9271 15.9059 16.2631 15.4919 16.2631Z" fill="#000000" />
</svg>