<svg width="24px"  height="24px"  viewBox="0 0 24 24" fill="none" xmlns="http://www.w3.org/2000/svg">
<path fill-rule="evenodd" clip-rule="evenodd" d="M5.34326 11.0055H6.52526C6.93926 11.0055 7.27526 10.6695 7.27526 10.2555C7.27526 9.84149 6.93926 9.50549 6.52526 9.50549H5.34326C4.92926 9.50549 4.59326 9.84149 4.59326 10.2555C4.59326 10.6695 4.92926 11.0055 5.34326 11.0055Z" fill="#000000" />
<path fill-rule="evenodd" clip-rule="evenodd" d="M7.16105 8.33742C7.30705 8.48342 7.49905 8.55642 7.69005 8.55642C7.88305 8.55642 8.07505 8.48342 8.22205 8.33542C8.51405 8.04142 8.51305 7.56642 8.22005 7.27542L7.09505 6.15442C6.80105 5.86242 6.32605 5.86242 6.03405 6.15642C5.74205 6.45042 5.74305 6.92542 6.03605 7.21742L7.16105 8.33742Z" fill="#000000" />
<path fill-rule="evenodd" clip-rule="evenodd" d="M10.1597 7.37552C10.5737 7.37552 10.9097 7.03952 10.9097 6.62552V5.43652C10.9097 5.02152 10.5737 4.68652 10.1597 4.68652C9.74567 4.68652 9.40967 5.02152 9.40967 5.43652V6.62552C9.40967 7.03952 9.74567 7.37552 10.1597 7.37552Z" fill="#000000" />
<path fill-rule="evenodd" clip-rule="evenodd" d="M13.7725 16.7457C13.3585 16.7457 13.0225 17.0817 13.0225 17.4957V18.6857C13.0225 19.0997 13.3585 19.4357 13.7725 19.4357C14.1865 19.4357 14.5225 19.0997 14.5225 18.6857V17.4957C14.5225 17.0817 14.1865 16.7457 13.7725 16.7457Z" fill="#000000" />
<path fill-rule="evenodd" clip-rule="evenodd" d="M16.7378 15.7964C16.4458 15.5024 15.9708 15.5024 15.6768 15.7944C15.3838 16.0864 15.3828 16.5614 15.6758 16.8554L16.7998 17.9844C16.9468 18.1324 17.1388 18.2054 17.3318 18.2054C17.5228 18.2054 17.7148 18.1324 17.8608 17.9864C18.1548 17.6944 18.1548 17.2204 17.8628 16.9264L16.7378 15.7964Z" fill="#000000" />
<path fill-rule="evenodd" clip-rule="evenodd" d="M18.5874 13.1158H17.4054C16.9914 13.1158 16.6554 13.4518 16.6554 13.8658C16.6554 14.2798 16.9914 14.6158 17.4054 14.6158H18.5874C19.0014 14.6158 19.3374 14.2798 19.3374 13.8658C19.3374 13.4518 19.0014 13.1158 18.5874 13.1158Z" fill="#000000" />
<g opacity="0.4">
<path fill-rule="evenodd" clip-rule="evenodd" d="M20.6429 6.42997C20.0389 5.83197 19.2119 5.54097 18.3929 5.59097C18.4479 4.76197 18.1499 3.93497 17.5509 3.34297C16.4479 2.23397 14.5209 2.23597 13.4229 3.34097C12.4059 4.35397 12.2969 5.94297 13.0999 7.08397L11.6199 8.56197C11.5099 8.67097 11.4569 8.82597 11.4769 8.97897C11.4969 9.13197 11.5869 9.26897 11.7199 9.34697L14.1479 10.77L14.5769 12.144C14.6289 12.311 14.7649 12.439 14.9349 12.481C14.9739 12.491 15.0139 12.495 15.0539 12.495C15.1849 12.495 15.3119 12.444 15.4069 12.349L16.8859 10.874C17.3759 11.227 17.9629 11.418 18.5799 11.418C19.3599 11.418 20.0939 11.113 20.6429 10.56C21.1959 10.011 21.4999 9.27997 21.4999 8.49897C21.4999 7.72097 21.1969 6.98697 20.6429 6.42997Z" fill="#000000" />
<path fill-rule="evenodd" clip-rule="evenodd" d="M12.226 12.2943L9.608 11.0443C9.417 10.9523 9.189 10.9913 9.039 11.1433L7.1 13.0873C6.612 12.7403 6.03 12.5533 5.419 12.5533C4.639 12.5533 3.905 12.8583 3.356 13.4113C2.804 13.9603 2.5 14.6913 2.5 15.4723C2.5 16.2503 2.804 16.9843 3.357 17.5413C3.961 18.1383 4.787 18.4463 5.606 18.3793C5.552 19.2093 5.851 20.0363 6.449 20.6283C6.999 21.1833 7.732 21.4873 8.512 21.4883C9.292 21.4883 10.027 21.1833 10.577 20.6303C11.599 19.6123 11.704 18.0163 10.89 16.8723L12.827 14.9393C12.952 14.8153 13.002 14.6343 12.959 14.4633L12.496 12.6233C12.459 12.4793 12.36 12.3583 12.226 12.2943Z" fill="#000000" />
</g>
</svg>