<svg width="24px"  height="24px"  viewBox="0 0 24 24" fill="none" xmlns="http://www.w3.org/2000/svg">
<path opacity="0.4" fill-rule="evenodd" clip-rule="evenodd" d="M20.2273 15.51L18.0753 12.412C18.0523 12.368 18.0253 12.328 17.9923 12.293L16.3833 9.979C16.0323 9.475 15.8463 8.879 15.8463 8.255V3.875H16.3583C16.7723 3.875 17.1083 3.539 17.1083 3.125C17.1083 2.711 16.7723 2.375 16.3583 2.375H7.61329C7.19929 2.375 6.86329 2.711 6.86329 3.125C6.86329 3.539 7.19929 3.875 7.61329 3.875H8.12629V8.265C8.12629 8.883 7.94229 9.476 7.59429 9.981C6.64629 11.35 5.18329 13.46 3.77229 15.49C2.93129 16.704 2.83829 18.21 3.52329 19.519C4.20729 20.825 5.49629 21.606 6.96729 21.606L17.0193 21.625C18.4983 21.625 19.7913 20.843 20.4773 19.531C21.1623 18.224 21.0683 16.721 20.2273 15.51Z" fill="#000000" />
<path fill-rule="evenodd" clip-rule="evenodd" d="M20.48 19.5348C19.79 20.8448 18.5 21.6248 17.02 21.6248L6.97 21.6048C5.5 21.6048 4.21 20.8248 3.52 19.5148C2.84 18.2148 2.93 16.7048 3.77 15.4948C4.67 15.9048 5.64 16.1248 6.71 16.1248C8.4 16.1248 10.31 15.5948 12.4 14.5348C14.7 13.3948 16.7 12.9448 18.35 13.2148C18.44 13.2248 18.53 13.2248 18.62 13.2048L20.23 15.5148C21.07 16.7248 21.16 18.2248 20.48 19.5348Z" fill="#000000" />
</svg>