<svg width="24px"  height="24px"  viewBox="0 0 24 24" fill="none" xmlns="http://www.w3.org/2000/svg">
<g opacity="0.4">
<path fill-rule="evenodd" clip-rule="evenodd" d="M11.2602 19.0996H6.63721C6.08521 19.0996 5.63721 19.5466 5.63721 20.0996C5.63721 20.6526 6.08521 21.0996 6.63721 21.0996H11.2602C11.8122 21.0996 12.2602 20.6526 12.2602 20.0996C12.2602 19.5466 11.8122 19.0996 11.2602 19.0996Z" fill="#000000" />
<path fill-rule="evenodd" clip-rule="evenodd" d="M17.3612 19.0996H15.0722C14.5202 19.0996 14.0722 19.5466 14.0722 20.0996C14.0722 20.6526 14.5202 21.0996 15.0722 21.0996H17.3612C17.9132 21.0996 18.3612 20.6526 18.3612 20.0996C18.3612 19.5466 17.9132 19.0996 17.3612 19.0996Z" fill="#000000" />
<path fill-rule="evenodd" clip-rule="evenodd" d="M10.9755 17.5H16.1965C16.7485 17.5 17.1965 17.053 17.1965 16.5C17.1965 15.947 16.7485 15.5 16.1965 15.5H10.9755C10.4235 15.5 9.97551 15.947 9.97551 16.5C9.97551 17.053 10.4235 17.5 10.9755 17.5Z" fill="#000000" />
<path fill-rule="evenodd" clip-rule="evenodd" d="M6.63961 4.90039H8.92761C9.47961 4.90039 9.92761 4.45339 9.92761 3.90039C9.92761 3.34739 9.47961 2.90039 8.92761 2.90039H6.63961C6.08761 2.90039 5.63961 3.34739 5.63961 3.90039C5.63961 4.45339 6.08761 4.90039 6.63961 4.90039Z" fill="#000000" />
<path fill-rule="evenodd" clip-rule="evenodd" d="M12.7406 4.90039H17.3626C17.9146 4.90039 18.3626 4.45339 18.3626 3.90039C18.3626 3.34739 17.9146 2.90039 17.3626 2.90039H12.7406C12.1886 2.90039 11.7406 3.34739 11.7406 3.90039C11.7406 4.45339 12.1886 4.90039 12.7406 4.90039Z" fill="#000000" />
<path fill-rule="evenodd" clip-rule="evenodd" d="M13.9423 7.49999C13.9423 6.94699 13.4943 6.49999 12.9423 6.49999H7.74431C7.19231 6.49999 6.74431 6.94699 6.74431 7.49999C6.74431 8.05299 7.19231 8.49999 7.74431 8.49999H12.9423C13.4943 8.49999 13.9423 8.05299 13.9423 7.49999Z" fill="#000000" />
</g>
<path fill-rule="evenodd" clip-rule="evenodd" d="M13.5531 12C15.9851 9.918 18.4001 7.414 18.4001 3C18.4001 2.447 17.9521 2 17.4001 2C16.8481 2 16.4001 2.447 16.4001 3C16.4001 6.697 14.3411 8.72 12.0001 10.695C9.6601 8.72 7.6001 6.697 7.6001 3C7.6001 2.447 7.1531 2 6.6001 2C6.0481 2 5.6001 2.447 5.6001 3C5.6001 7.414 8.0151 9.918 10.4471 12C8.0151 14.082 5.6001 16.586 5.6001 21C5.6001 21.553 6.0481 22 6.6001 22C7.1531 22 7.6001 21.553 7.6001 21C7.6001 17.303 9.6601 15.28 12.0001 13.305C14.3411 15.28 16.4001 17.303 16.4001 21C16.4001 21.553 16.8481 22 17.4001 22C17.9521 22 18.4001 21.553 18.4001 21C18.4001 16.586 15.9851 14.082 13.5531 12Z" fill="#000000" />
</svg>