<svg width="24px"  height="24px"  viewBox="0 0 24 24" fill="none" xmlns="http://www.w3.org/2000/svg">
<path opacity="0.4" fill-rule="evenodd" clip-rule="evenodd" d="M20.9853 6.97585C20.3043 5.29585 18.9913 4.06985 17.2883 3.52285C16.3623 3.22285 15.3573 3.15285 14.3793 3.31685C13.4853 3.46585 12.6763 4.00185 11.9963 4.49885C11.3403 4.02185 10.5103 3.47685 9.61431 3.32685C8.64931 3.16585 7.64431 3.23185 6.70631 3.52385C2.97631 4.73085 1.82731 8.81285 2.87031 12.0578C4.49331 17.2688 11.4893 20.5838 11.7863 20.7218C11.8533 20.7538 11.9253 20.7688 11.9973 20.7688C12.0693 20.7688 12.1413 20.7538 12.2083 20.7218C12.5013 20.5868 19.3923 17.3318 21.1143 12.0628C21.6653 10.3468 21.6193 8.54185 20.9853 6.97585Z" fill="#000000" />
<path d="M15.1152 12.1093H16.4412C16.8552 12.1093 17.1912 11.7733 17.1912 11.3593C17.1912 10.9453 16.8552 10.6093 16.4412 10.6093H14.6612C14.3822 10.6093 14.1262 10.7643 13.9972 11.0113L13.3262 12.2933L11.3222 8.47034C11.1922 8.22434 10.9372 8.06934 10.6582 8.06934C10.3792 8.06934 10.1242 8.22334 9.99419 8.47034L8.87019 10.6093H7.54419C7.13019 10.6093 6.79419 10.9453 6.79419 11.3593C6.79419 11.7733 7.13019 12.1093 7.54419 12.1093H9.32319C9.60219 12.1093 9.85719 11.9553 9.98719 11.7083L10.6572 10.4323L12.6632 14.2573C12.7922 14.5053 13.0482 14.6593 13.3272 14.6593C13.6062 14.6593 13.8622 14.5043 13.9912 14.2563L15.1152 12.1093Z" fill="#000000" />
</svg>