<svg width="24px"  height="24px"  viewBox="0 0 24 24" fill="none" xmlns="http://www.w3.org/2000/svg">
<path opacity="0.4" fill-rule="evenodd" clip-rule="evenodd" d="M16.217 2.5H7.782C4.623 2.5 2.5 4.723 2.5 8.031V15.97C2.5 19.278 4.623 21.5 7.782 21.5H16.216C19.377 21.5 21.5 19.278 21.5 15.97V8.031C21.5 4.723 19.377 2.5 16.217 2.5Z" fill="#000000" />
<path fill-rule="evenodd" clip-rule="evenodd" d="M17.3172 13.3897C17.3172 14.0847 16.7532 14.6507 16.0582 14.6507H14.6522V16.0607C14.6522 16.7547 14.0882 17.3207 13.3932 17.3207H10.6042C9.91018 17.3207 9.34518 16.7547 9.34518 16.0607V14.6507H7.93918C7.24518 14.6507 6.68018 14.0847 6.68018 13.3897V10.5997C6.68018 9.91069 7.24518 9.34969 7.93918 9.34969H9.34518V7.93969C9.34518 7.24469 9.91018 6.67969 10.6042 6.67969H13.3932C14.0882 6.67969 14.6522 7.24469 14.6522 7.93969V9.34969H16.0582C16.7532 9.34969 17.3172 9.91069 17.3172 10.5997V13.3897ZM13.1522 8.17962V10.0996C13.1522 10.5136 13.4882 10.8496 13.9022 10.8496H15.8172V13.1506H13.9022C13.4882 13.1506 13.1522 13.4866 13.1522 13.9006V15.8206H10.8452V13.9006C10.8452 13.4866 10.5092 13.1506 10.0952 13.1506H8.18023V10.8496H10.0952C10.5092 10.8496 10.8452 10.5136 10.8452 10.0996V8.17962H13.1522Z" fill="#000000" />
</svg>