<svg width="24px"  height="24px"  viewBox="0 0 24 24" fill="none" xmlns="http://www.w3.org/2000/svg">
<path opacity="0.4" d="M15.64 15.2269C15.64 15.3055 15.6363 15.3831 15.6291 15.4595C16.0009 15.2052 16.3648 14.9077 16.7238 14.6142L16.7294 14.6097C16.9884 14.3977 17.2444 14.1887 17.4984 13.9977C18.4084 13.3027 19.7124 13.3887 20.5304 14.2057C21.4384 15.1227 21.4364 16.5977 20.5304 17.4987L20.3564 17.6747L20.3445 17.6866C19.0609 18.9802 17.8477 20.2028 15.9934 20.9177C14.8364 21.3687 13.7254 21.5336 12.6264 21.5336C11.1944 21.5336 9.78538 21.2536 8.33138 20.9647C7.44482 20.7911 6.65522 20.7688 5.73438 20.7668C5.9466 20.4663 6.06653 20.0835 6.06653 19.6473V19.2685C6.93178 19.2763 7.70702 19.3141 8.56438 19.4807C11.0754 19.9807 13.1904 20.4007 15.4514 19.5187C17.0106 18.9181 18.0633 17.8568 19.2825 16.6276L19.2914 16.6187L19.4694 16.4387C19.7934 16.1167 19.7914 15.5917 19.4684 15.2637C19.1854 14.9797 18.7284 14.9457 18.4054 15.1917C18.1655 15.3725 17.9305 15.565 17.6917 15.7606L17.6794 15.7707C16.6194 16.6377 15.4194 17.6187 13.8804 17.6567C13.6253 17.6631 13.3703 17.6559 13.1145 17.6469H12.1004C12.0305 17.6524 11.9615 17.6598 11.8934 17.6697C11.4894 17.7227 11.1044 17.4457 11.0434 17.0347C11.0379 16.997 11.0353 16.9595 11.0354 16.9225C11.0351 16.914 11.035 16.9055 11.035 16.8969C11.035 16.4829 11.37 16.1469 11.785 16.1469H12.0387C12.396 16.1224 12.7438 16.1338 13.0828 16.1449L13.1054 16.1457L13.1364 16.1469H13.14C13.719 16.1469 14.14 15.7599 14.14 15.2269C14.14 14.7839 13.849 14.4339 13.379 14.3139C12.388 14.0649 11.286 13.8309 10.189 13.8679C8.76374 13.8978 7.70058 14.6221 6.46872 15.4613L6.06653 15.7353V15.0973C6.06653 14.7162 5.97496 14.3759 5.81025 14.0958C7.06172 13.2443 8.37569 12.4059 10.154 12.3679C11.452 12.3359 12.703 12.5969 13.748 12.8599C14.881 13.1509 15.64 14.1009 15.64 15.2269Z" fill="#000000" />
<path d="M12.7769 10.2168H14.5679C15.1239 10.2168 15.5779 9.7638 15.5779 9.2078V8.2478H16.5359C17.0929 8.2478 17.5459 7.7938 17.5459 7.2368V5.4478C17.5459 4.8808 17.1019 4.4368 16.5359 4.4368H15.5779V3.4768C15.5779 2.9198 15.1239 2.4668 14.5679 2.4668H12.7769C12.2189 2.4668 11.7659 2.9198 11.7659 3.4768V4.4368H10.8079C10.2419 4.4368 9.79688 4.8808 9.79688 5.4478V7.2368C9.79688 7.7938 10.2499 8.2478 10.8079 8.2478H11.7659V9.2078C11.7659 9.7638 12.2189 10.2168 12.7769 10.2168Z" fill="#000000" />
<path d="M3.28955 21.4673H4.30655C5.34355 21.4673 6.06655 20.7183 6.06655 19.6473V15.0973C6.06655 14.0263 5.34355 13.2783 4.30655 13.2783H3.28955C3.01355 13.2783 2.78955 13.5013 2.78955 13.7783V20.9673C2.78955 21.2433 3.01355 21.4673 3.28955 21.4673Z" fill="#000000" />
</svg>