<svg width="24px"  height="24px"  viewBox="0 0 24 24" fill="none" xmlns="http://www.w3.org/2000/svg">
<path fill-rule="evenodd" clip-rule="evenodd" d="M14.0496 13.6526C13.9996 14.0626 13.6196 14.3426 13.2096 14.2926C12.4096 14.1826 11.5896 14.1826 10.7896 14.2926C10.7496 14.2926 10.7196 14.3026 10.6796 14.3026C10.3096 14.3026 9.98961 14.0226 9.93961 13.6526C9.88961 13.2426 10.1696 12.8626 10.5796 12.8026C11.5296 12.6726 12.4796 12.6726 13.4096 12.8026C13.8196 12.8626 14.1096 13.2426 14.0496 13.6526Z" fill="#000000" />
<path fill-rule="evenodd" clip-rule="evenodd" d="M15.3496 10.4323C15.2796 10.8023 14.9696 11.0623 14.6096 11.0623C14.5696 11.0623 14.5196 11.0523 14.4796 11.0523C12.8396 10.7723 11.1696 10.7723 9.50965 11.0523C9.09965 11.1123 8.71965 10.8423 8.64965 10.4323C8.57965 10.0223 8.85965 9.63234 9.26965 9.57234C11.0896 9.26234 12.9296 9.26234 14.7296 9.57234C15.1396 9.64234 15.4196 10.0223 15.3496 10.4323Z" fill="#000000" />
<path opacity="0.4" fill-rule="evenodd" clip-rule="evenodd" d="M19.0699 9.31204C19.0399 8.77204 18.9399 8.29204 18.7399 7.86204C17.9499 6.04204 15.6899 5.13204 12.0199 5.19204C7.70993 5.11204 5.91993 6.39204 5.26993 7.85204C5.05993 8.32204 4.95993 8.81204 4.93993 9.28204C4.92993 9.38204 4.92993 9.49204 4.92993 9.60204C4.93993 11.172 5.48993 13.342 5.48993 13.362C5.58993 13.742 5.73993 14.242 5.98993 14.782C6.19993 15.282 6.49993 15.822 6.87993 16.332C7.86993 17.652 9.44993 18.812 11.9799 18.812H12.0199C14.5399 18.812 16.1199 17.652 17.0999 16.332C17.4899 15.822 17.7899 15.282 18.0099 14.782C18.2399 14.252 18.3999 13.772 18.4999 13.392C18.4999 13.372 19.0699 11.172 19.0799 9.61204C19.0799 9.51204 19.0699 9.41204 19.0699 9.31204Z" fill="#000000" />
<path fill-rule="evenodd" clip-rule="evenodd" d="M6.87996 16.3325L6.20996 16.2925C4.28996 16.2725 2.28996 14.8925 2.24996 12.3125C2.19996 9.59254 3.27996 8.61254 4.91996 7.97254L5.26996 7.85254C5.05996 8.32254 4.95996 8.81254 4.93996 9.28254C4.92996 9.38254 4.92996 9.49254 4.92996 9.60254C4.08996 10.0425 3.71996 10.6725 3.74996 12.2825C3.77996 14.0625 5.10996 14.6725 5.98996 14.7825C6.19996 15.2825 6.49996 15.8225 6.87996 16.3325Z" fill="#000000" />
<path fill-rule="evenodd" clip-rule="evenodd" d="M21.7501 12.3125C21.7101 14.8925 19.7101 16.2725 17.7701 16.3025L17.1001 16.3325C17.4901 15.8225 17.7901 15.2825 18.0101 14.7825C18.9101 14.6625 20.2201 14.0425 20.2501 12.2825C20.2801 10.6925 19.9101 10.0525 19.0801 9.61255C19.0801 9.51255 19.0701 9.41255 19.0701 9.31255C19.0401 8.77255 18.9401 8.29255 18.7401 7.86255L19.0501 7.96255C20.7201 8.61255 21.8001 9.59255 21.7501 12.3125Z" fill="#000000" />
<path fill-rule="evenodd" clip-rule="evenodd" d="M14.0497 13.6523C13.9997 14.0623 13.6197 14.3423 13.2097 14.2923C12.4097 14.1823 11.5897 14.1823 10.7897 14.2923C10.7497 14.2923 10.7197 14.3023 10.6797 14.3023C10.3097 14.3023 9.98973 14.0223 9.93973 13.6523C9.88973 13.2423 10.1697 12.8623 10.5797 12.8023C11.5297 12.6723 12.4797 12.6723 13.4097 12.8023C13.8197 12.8623 14.1097 13.2423 14.0497 13.6523Z" fill="#000000" />
<path fill-rule="evenodd" clip-rule="evenodd" d="M15.3496 10.4323C15.2796 10.8023 14.9696 11.0623 14.6096 11.0623C14.5696 11.0623 14.5196 11.0523 14.4796 11.0523C12.8396 10.7723 11.1696 10.7723 9.50965 11.0523C9.09965 11.1123 8.71965 10.8423 8.64965 10.4323C8.57965 10.0223 8.85965 9.63234 9.26965 9.57234C11.0896 9.26234 12.9296 9.26234 14.7296 9.57234C15.1396 9.64234 15.4196 10.0223 15.3496 10.4323Z" fill="#000000" />
</svg>