<svg width="24px"  height="24px"  viewBox="0 0 24 24" fill="none" xmlns="http://www.w3.org/2000/svg">
<path opacity="0.4" fill-rule="evenodd" clip-rule="evenodd" d="M21.3901 10.0254V17.0854C21.3901 19.5854 19.3501 21.6254 16.8501 21.6254H7.15011C4.65011 21.6254 2.61011 19.5854 2.61011 17.0854V10.0254C2.61011 7.52535 4.65011 5.48535 7.15011 5.48535H16.8501C19.3501 5.48535 21.3901 7.52535 21.3901 10.0254Z" fill="#000000" />
<path fill-rule="evenodd" clip-rule="evenodd" d="M12.0009 17.1459C10.0209 17.1459 8.40991 15.5359 8.40991 13.5559C8.40991 11.5769 10.0209 9.96594 12.0009 9.96594C13.9799 9.96594 15.5899 11.5769 15.5899 13.5559C15.5899 15.5359 13.9799 17.1459 12.0009 17.1459ZM12.0009 8.46594C9.19391 8.46594 6.90991 10.7499 6.90991 13.5559C6.90991 16.3629 9.19391 18.6459 12.0009 18.6459C14.8069 18.6459 17.0899 16.3629 17.0899 13.5559C17.0899 10.7499 14.8069 8.46594 12.0009 8.46594Z" fill="#000000" />
<path fill-rule="evenodd" clip-rule="evenodd" d="M13.5849 12.8062H12.7519V11.9762C12.7519 11.5622 12.4159 11.2262 12.0019 11.2262C11.5879 11.2262 11.2519 11.5622 11.2519 11.9762V12.8062H10.4199C10.0059 12.8062 9.66986 13.1422 9.66986 13.5562C9.66986 13.9702 10.0059 14.3062 10.4199 14.3062H11.2519V15.1362C11.2519 15.5502 11.5879 15.8862 12.0019 15.8862C12.4159 15.8862 12.7519 15.5502 12.7519 15.1362V14.3062H13.5849C13.9989 14.3062 14.3349 13.9702 14.3349 13.5562C14.3349 13.1422 13.9989 12.8062 13.5849 12.8062Z" fill="#000000" />
<path fill-rule="evenodd" clip-rule="evenodd" d="M16.1303 5.065V5.485H14.6303V5.065C14.6303 4.405 14.1003 3.875 13.4503 3.875H10.5603C9.9003 3.875 9.3703 4.405 9.3703 5.065V5.485H7.8703V5.065C7.8703 3.585 9.0703 2.375 10.5603 2.375H13.4503C14.9303 2.375 16.1303 3.585 16.1303 5.065Z" fill="#000000" />
</svg>