<svg width="24px"  height="24px"  viewBox="0 0 24 24" fill="none" xmlns="http://www.w3.org/2000/svg">
<path opacity="0.4" fill-rule="evenodd" clip-rule="evenodd" d="M16.1828 9.88695V11.2989C16.1828 11.4337 16.0926 11.5509 15.9648 11.5938C15.8628 11.6281 15.7628 11.6658 15.6628 11.707C14.6728 12.147 13.9128 12.937 13.5228 13.937L12.7828 15.837L12.2028 17.297L12.0328 17.737C11.9028 18.077 11.8228 18.437 11.7828 18.797C11.7128 19.487 11.8228 20.177 12.1028 20.827C12.1625 20.9582 12.2269 21.0847 12.2966 21.2064C12.4223 21.4258 12.2742 21.727 12.0214 21.727H6.61282C4.98282 21.727 3.66282 20.417 3.64282 18.797V9.88695C3.64282 9.67695 3.66282 9.46695 3.71282 9.26695C3.83282 8.69695 4.12282 8.16695 4.54282 7.75695L6.52282 6.22695C6.61282 6.15695 6.72282 6.12695 6.83282 6.12695H13.0028C13.1128 6.12695 13.2228 6.15695 13.3028 6.22695L15.2428 7.71695C15.7028 8.15695 15.9928 8.69695 16.1128 9.26695C16.1628 9.47695 16.1828 9.67695 16.1828 9.88695Z" fill="#000000" />
<path fill-rule="evenodd" clip-rule="evenodd" d="M6.06832 5.30627H13.7633C14.4173 5.30627 14.9503 4.77227 14.9503 4.11527V3.08627C14.9503 2.43527 14.4173 1.90527 13.7633 1.90527H6.06832C5.41432 1.90527 4.88232 2.43527 4.88232 3.08627V4.11527C4.88232 4.77227 5.41432 5.30627 6.06832 5.30627Z" fill="#000000" />
<path fill-rule="evenodd" clip-rule="evenodd" d="M11.6049 13.1851H10.6669V12.2451C10.6669 11.8311 10.3309 11.4951 9.91691 11.4951C9.50191 11.4951 9.16691 11.8311 9.16691 12.2451V13.1851H8.22791C7.81291 13.1851 7.47791 13.5211 7.47791 13.9351C7.47791 14.3491 7.81291 14.6851 8.22791 14.6851H9.16691V15.6251C9.16691 16.0391 9.50191 16.3751 9.91691 16.3751C10.3309 16.3751 10.6669 16.0391 10.6669 15.6251V14.6851H11.6049C12.0189 14.6851 12.3549 14.3491 12.3549 13.9351C12.3549 13.5211 12.0189 13.1851 11.6049 13.1851Z" fill="#000000" />
<path fill-rule="evenodd" clip-rule="evenodd" d="M3.64282 18.7965H11.7828C11.8228 18.4365 11.9028 18.0765 12.0328 17.7365L12.2028 17.2965H3.64282V18.7965Z" fill="#000000" />
<path fill-rule="evenodd" clip-rule="evenodd" d="M16.1828 9.8866C16.1828 9.6766 16.1628 9.4766 16.1128 9.2666H3.71282C3.66282 9.4666 3.64282 9.6766 3.64282 9.8866V10.7666H16.1828V9.8866Z" fill="#000000" />
<path fill-rule="evenodd" clip-rule="evenodd" d="M18.7685 15.9811L18.2995 17.1821L15.9295 16.2581L16.3995 15.0551C16.5235 14.7371 16.7645 14.4861 17.0775 14.3491C17.2385 14.2791 17.4095 14.2431 17.5805 14.2431C17.7385 14.2431 17.8965 14.2731 18.0505 14.3341C18.3625 14.4541 18.6095 14.6901 18.7465 14.9991C18.8855 15.3131 18.8935 15.6621 18.7685 15.9811ZM17.2845 19.7811C17.1605 20.0991 16.9195 20.3501 16.6065 20.4871C16.2975 20.6241 15.9525 20.6281 15.6395 20.5051L15.6335 20.5021C15.3215 20.3821 15.0735 20.1461 14.9365 19.8361C14.7985 19.5231 14.7905 19.1741 14.9145 18.8561L15.3835 17.6541L17.7535 18.5791L17.2845 19.7811ZM20.1185 14.3931C19.8185 13.7151 19.2755 13.1971 18.5935 12.9351C17.9075 12.6661 17.1545 12.6781 16.4765 12.9741C15.7965 13.2721 15.2725 13.8171 15.0015 14.5101L14.2615 16.4061C14.2605 16.4081 14.2585 16.4091 14.2585 16.4111C14.2575 16.4131 14.2585 16.4141 14.2575 16.4161L13.5175 18.3111C13.2465 19.0041 13.2635 19.7611 13.5645 20.4431C13.8635 21.1191 14.4055 21.6361 15.0915 21.9011C15.4185 22.0301 15.7605 22.0941 16.1015 22.0941C16.4765 22.0941 16.8515 22.0161 17.2065 21.8621C17.8875 21.5641 18.4115 21.0191 18.6825 20.3261L20.1655 16.5261C20.4365 15.8331 20.4195 15.0751 20.1185 14.3931Z" fill="#000000" />
</svg>