<svg width="24px"  height="24px"  viewBox="0 0 24 24" fill="none" xmlns="http://www.w3.org/2000/svg">
<path opacity="0.4" fill-rule="evenodd" clip-rule="evenodd" d="M18.2697 10.0705V18.9805C18.2497 20.6005 16.9297 21.9105 15.2997 21.9105H8.68974C7.06974 21.9105 5.74974 20.6005 5.72974 18.9805V10.0705C5.72974 9.86055 5.74974 9.65055 5.79974 9.45055C5.91974 8.88055 6.19974 8.35055 6.62974 7.94055L8.60974 6.41055C8.68974 6.34055 8.79974 6.31055 8.90974 6.31055H15.0797C15.1897 6.31055 15.2997 6.34055 15.3897 6.41055L17.3197 7.90055C17.7797 8.34055 18.0797 8.88055 18.1997 9.45055C18.2497 9.66055 18.2697 9.86055 18.2697 10.0705Z" fill="#000000" />
<path fill-rule="evenodd" clip-rule="evenodd" d="M8.14804 5.48987H15.843C16.498 5.48987 17.03 4.95587 17.03 4.29887V3.26987C17.03 2.61887 16.498 2.08887 15.843 2.08887H8.14804C7.49404 2.08887 6.96204 2.61887 6.96204 3.26987V4.29887C6.96204 4.95587 7.49404 5.48987 8.14804 5.48987Z" fill="#000000" />
<path fill-rule="evenodd" clip-rule="evenodd" d="M11.9961 11.6782C11.5821 11.6782 11.2461 12.0142 11.2461 12.4282V13.3682H10.3081C9.89311 13.3682 9.55811 13.7042 9.55811 14.1182C9.55811 14.5322 9.89311 14.8682 10.3081 14.8682H11.2461V15.8092C11.2461 16.2232 11.5821 16.5592 11.9961 16.5592C12.4101 16.5592 12.7461 16.2232 12.7461 15.8092V14.8682H13.6841C14.0991 14.8682 14.4341 14.5322 14.4341 14.1182C14.4341 13.7042 14.0991 13.3682 13.6841 13.3682H12.7461V12.4282C12.7461 12.0142 12.4101 11.6782 11.9961 11.6782Z" fill="#000000" />
<path fill-rule="evenodd" clip-rule="evenodd" d="M5.72974 18.9805H18.2697V17.4805H5.72974V18.9805Z" fill="#000000" />
<path fill-rule="evenodd" clip-rule="evenodd" d="M18.2001 9.4502H5.8001C5.7501 9.6502 5.7301 9.8602 5.7301 10.0702V10.9502H18.2701V10.0702C18.2701 9.8602 18.2501 9.6602 18.2001 9.4502Z" fill="#000000" />
</svg>