<svg width="24px"  height="24px"  viewBox="0 0 25 24" fill="none" xmlns="http://www.w3.org/2000/svg">
<g opacity="0.4">
<path fill-rule="evenodd" clip-rule="evenodd" d="M8.0836 9.37573L8.08292 9.37467L8.08148 9.37361L7.60665 8.89878C7.41137 8.70349 7.09474 8.70352 6.89949 8.89883L4.12204 11.6772C2.29704 13.5112 2.29704 16.4972 4.12304 18.3332C5.04004 19.2492 6.24404 19.7072 7.44704 19.7072C8.65104 19.7072 9.85504 19.2492 10.771 18.3332L13.5519 15.5488C13.747 15.3535 13.7468 15.037 13.5516 14.8418L8.0836 9.37573Z" fill="#000000" />
<path fill-rule="evenodd" clip-rule="evenodd" d="M14.6115 13.7806C14.8068 13.9758 15.1235 13.9757 15.3187 13.7803L18.1232 10.9732C19.0102 10.0852 19.4992 8.90517 19.4992 7.64917C19.4992 6.39317 19.0102 5.21317 18.1232 4.32517C16.2892 2.49317 13.3052 2.49317 11.4732 4.32517L8.6677 7.13156C8.47247 7.32686 8.47252 7.64344 8.66781 7.83867L14.6115 13.7806Z" fill="#000000" />
</g>
<path fill-rule="evenodd" clip-rule="evenodd" d="M13.6452 9.24539L15.1312 7.83539C15.4312 7.55039 15.9062 7.56139 16.1922 7.86239C16.4772 8.16339 16.4642 8.63839 16.1652 8.92339L14.6782 10.3334C14.5332 10.4714 14.3472 10.5394 14.1622 10.5394C13.9632 10.5394 13.7652 10.4614 13.6182 10.3064C13.3332 10.0054 13.3452 9.53039 13.6452 9.24539Z" fill="#000000" />
<path fill-rule="evenodd" clip-rule="evenodd" d="M19.8938 11.9443C19.6897 11.7748 19.3898 11.8247 19.203 12.013C19.1975 12.0185 19.192 12.024 19.1865 12.0296L12.6705 18.5552C12.5001 18.7258 12.4737 18.9955 12.6264 19.182C13.5723 20.3376 15.0132 21.0496 16.5965 21.0496C19.4365 21.0496 21.7465 18.7396 21.7465 15.9096C21.7465 14.3273 21.0353 12.8922 19.8938 11.9443Z" fill="#000000" />
</svg>