<?xml version="1.0" encoding="UTF-8"?>
<svg width="25" height="25" viewBox="0 0 25 25" fill="none" xmlns="http://www.w3.org/2000/svg">
<path d="M12.1096 9.80788C14.9606 9.80788 17.2718 9.15133 17.2718 7.9376C17.2718 6.66522 16.729 5.42791 15.7629 4.52821C14.7968 3.6285 13.4865 3.12305 12.1202 3.12305C10.7539 3.12305 9.4436 3.62849 8.47749 4.5282C7.51138 5.42791 6.95801 6.66522 6.95801 7.9376C6.95801 9.15133 9.25859 9.80788 12.1096 9.80788Z" stroke="#000000" stroke-width="1.5" stroke-linecap="round" stroke-linejoin="round"></path>
<path opacity="0.4" d="M17.0355 6.46126C19.7834 7.30447 21.6143 8.82277 21.6143 10.5602C21.6143 13.2138 17.3583 15.3535 12.1143 15.3535C6.87026 15.3535 2.61426 13.2138 2.61426 10.5602C2.61426 8.82504 4.44937 7.2985 7.20047 6.4541" stroke="#000000" stroke-width="1.5" stroke-linecap="round" stroke-linejoin="round"></path>
<path d="M15.6996 15.0751L17.2715 18.712" stroke="#000000" stroke-width="1.5" stroke-linecap="round" stroke-linejoin="round"></path>
<path d="M8.52987 15.0751L6.95801 18.712" stroke="#000000" stroke-width="1.5" stroke-linecap="round" stroke-linejoin="round"></path>
<path d="M12.1143 18.0454V21.0454" stroke="#000000" stroke-width="1.5" stroke-linecap="round" stroke-linejoin="round"></path>
</svg>