<svg width="24px"  height="24px"  viewBox="0 0 25 24" fill="none" xmlns="http://www.w3.org/2000/svg">
<path opacity="0.4" d="M9.39187 16.4805C9.39187 16.6462 9.52618 16.7805 9.69187 16.7805H18.6724C18.8379 16.7805 18.9721 16.9145 18.9724 17.08L18.9769 19.8085C18.9759 20.0515 18.7749 20.2505 18.5279 20.2505H7.32587C6.36787 20.2505 5.58887 19.4695 5.58887 18.5095C5.58887 17.5555 6.36787 16.7805 7.32587 16.7805H7.59187C7.75755 16.7805 7.89187 16.6462 7.89187 16.4805V2.55C7.89187 2.38431 7.75755 2.25 7.59187 2.25H7.43008C5.58808 2.25 4.08908 3.748 4.08908 5.59V18.4721L4.08887 18.5095C4.08887 20.2975 5.54087 21.7505 7.32587 21.7505H18.5279C19.5989 21.7505 20.4739 20.8815 20.4769 19.8095L20.4699 16.0476L20.4701 16.031V4.2C20.4701 3.125 19.5961 2.25 18.5211 2.25H9.69187C9.52618 2.25 9.39187 2.38431 9.39187 2.55V16.4805Z" fill="#000000" />
<path d="M12.2627 7.87988H13.7357C14.1497 7.87988 14.4857 7.54388 14.4857 7.12988C14.4857 6.71588 14.1497 6.37988 13.7357 6.37988H12.2627C11.8487 6.37988 11.5127 6.71588 11.5127 7.12988C11.5127 7.54388 11.8487 7.87988 12.2627 7.87988Z" fill="#000000" />
<path d="M12.2627 10.7699H15.5907C16.0057 10.7699 16.3407 10.4339 16.3407 10.0199C16.3407 9.60588 16.0057 9.26988 15.5907 9.26988H12.2627C11.8487 9.26988 11.5127 9.60588 11.5127 10.0199C11.5127 10.4339 11.8487 10.7699 12.2627 10.7699Z" fill="#000000" />
<path d="M8.18066 19.3105H18.9717V17.8105H8.18066C7.76666 17.8105 7.43066 18.1465 7.43066 18.5605C7.43066 18.9745 7.76666 19.3105 8.18066 19.3105Z" fill="#000000" />
</svg>