<svg width="24px"  height="24px"  viewBox="0 0 24 24" fill="none" xmlns="http://www.w3.org/2000/svg">
<path opacity="0.4" d="M21.2603 11.9986C21.2603 6.88402 17.1145 2.73828 12 2.73828C6.88543 2.73828 2.73969 6.88402 2.73969 11.9986C2.73969 17.1131 6.88543 21.2589 12 21.2589C17.1145 21.2589 21.2603 17.1131 21.2603 11.9986Z" fill="#000000" />
<path fill-rule="evenodd" clip-rule="evenodd" d="M21.9149 5.04003C22.1172 5.40146 21.9883 5.85849 21.6268 6.06082C17.0185 8.64059 14.1371 12.8288 12.7623 15.4113C12.6351 15.6503 12.389 15.8021 12.1183 15.8086C11.8477 15.8152 11.5945 15.6753 11.456 15.4427C10.5334 13.8939 9.36312 12.5155 7.93577 11.3101C7.61932 11.0428 7.57944 10.5696 7.8467 10.2532C8.11396 9.93672 8.58716 9.89684 8.90361 10.1641C10.1225 11.1935 11.1735 12.3432 12.0577 13.6106C13.6781 10.8999 16.5577 7.1795 20.8941 4.75195C21.2556 4.54962 21.7126 4.6786 21.9149 5.04003Z" fill="#000000" />
</svg>