<svg width="24px"  height="24px"  viewBox="0 0 25 24" fill="none" xmlns="http://www.w3.org/2000/svg">
<path opacity="0.4" fill-rule="evenodd" clip-rule="evenodd" d="M5.68365 8.85742H18.7737C19.2536 8.85742 19.5437 9.15742 19.5137 9.63742C19.4637 10.3774 19.4037 11.1174 19.3437 11.8474C19.2837 12.5574 18.7837 18.1474 18.7137 18.8074C18.6137 19.6874 18.2837 20.4474 17.5437 20.9874C17.0637 21.3174 16.5237 21.4774 15.9437 21.4874C14.4137 21.5074 9.50365 21.5074 8.57365 21.4874C7.17365 21.4674 6.11365 20.6074 5.84365 19.2274C5.75365 18.7874 5.09365 11.2274 5.02365 10.4074C5.01719 10.3235 5.00969 10.2385 5.00216 10.1531C4.98636 9.97409 4.97042 9.79346 4.96365 9.61742C4.94365 9.17742 5.24365 8.85742 5.68365 8.85742Z" fill="#000000" />
<path fill-rule="evenodd" clip-rule="evenodd" d="M14.6768 17.2659C14.6768 17.6859 14.3468 18.0159 13.9268 18.0159C13.5168 18.0159 13.1768 17.6859 13.1768 17.2659V12.7559C13.1768 12.3459 13.5168 12.0059 13.9268 12.0059C14.3468 12.0059 14.6768 12.3459 14.6768 12.7559V17.2659ZM11.2968 17.2659C11.2968 17.6859 10.9668 18.0159 10.5468 18.0159C10.1368 18.0159 9.79675 17.6859 9.79675 17.2659V12.7559C9.79675 12.3459 10.1368 12.0059 10.5468 12.0059C10.9668 12.0059 11.2968 12.3459 11.2968 12.7559V17.2659Z" fill="#000000" />
<path fill-rule="evenodd" clip-rule="evenodd" d="M19.9235 5.57H16.8275C16.5615 5.57 16.3325 5.385 16.2755 5.126L15.9855 3.804C15.7805 3.037 15.0815 2.5 14.2855 2.5H10.1325C9.33647 2.5 8.63647 3.036 8.42347 3.835L8.14147 5.133C8.08647 5.388 7.86147 5.57 7.60047 5.57H4.57747C4.09047 5.57 3.69647 5.964 3.69647 6.45C3.69647 6.937 4.09047 7.331 4.57747 7.331H19.9235C20.4095 7.331 20.8035 6.937 20.8035 6.45C20.8035 5.964 20.4095 5.57 19.9235 5.57Z" fill="#000000" />
</svg>