<?xml version="1.0" encoding="UTF-8"?>
<svg width="25" height="24" viewBox="0 0 25 24" fill="none" xmlns="http://www.w3.org/2000/svg">
<path d="M6.30793 9.83883L12.061 9.82716C13.7967 9.82327 14.8796 11.0453 14.8835 12.7791L14.8942 17.458C14.8981 19.1918 13.822 20.4187 12.0853 20.4235L6.33323 20.4352C4.59749 20.4391 3.51558 19.2171 3.51071 17.4823L3.50001 12.8044C3.49612 11.0706 4.57804 9.84272 6.30793 9.83883Z" stroke="#000000" stroke-width="1.5" stroke-linecap="round" stroke-linejoin="round"></path>
<path opacity="0.4" d="M6.33398 17.458H8.15437" stroke="#000000" stroke-width="1.5" stroke-linecap="round" stroke-linejoin="round"></path>
<path opacity="0.4" d="M10.8645 9.82715L10.8743 13.4173L9.20566 12.8734L7.52635 13.4271L7.52148 9.84174" stroke="#000000" stroke-width="1.5" stroke-linecap="round" stroke-linejoin="round"></path>
<path d="M12.086 20.4349L18.2418 20.4213C20.2558 20.4164 21.5051 18.993 21.5002 16.9819L21.4866 6.98875C21.4827 4.97767 20.2266 3.56009 18.2136 3.56495L12.4547 3.57858C10.4475 3.58344 9.19241 5.00686 9.19728 7.01794L9.20993 9.70425" stroke="#000000" stroke-width="1.5" stroke-linecap="round" stroke-linejoin="round"></path>
<path opacity="0.4" d="M17.2815 3.56494L17.2932 7.67759L15.357 7.04712L13.4101 7.68926L13.4043 3.58245" stroke="#000000" stroke-width="1.5" stroke-linecap="round" stroke-linejoin="round"></path>
</svg>