<svg width="24px"  height="24px"  viewBox="0 0 25 24" fill="none" xmlns="http://www.w3.org/2000/svg">
<path opacity="0.4" d="M19.2896 21.5C20.5616 21.5 21.5936 20.466 21.5936 19.199V9.943C21.5816 9.236 21.2446 8.571 20.6796 8.138L14.4296 3.157C13.3316 2.281 11.7816 2.281 10.6836 3.157L4.46063 8.149C3.89163 8.571 3.55463 9.247 3.54663 9.954V19.199C3.54663 20.466 4.57863 21.5 5.85063 21.5H7.78963H17.4046H19.2896Z" fill="#000000" />
<path d="M9.86963 19.421C9.86963 20.571 9.86963 21.5 9.86963 21.5H15.3246C15.3246 21.5 15.3246 20.571 15.3246 19.421V15.115C15.3246 14.07 14.4756 13.215 13.4276 13.215H11.7656C10.7176 13.215 9.86963 14.07 9.86963 15.115V19.421Z" fill="#000000" />
</svg>