<?xml version="1.0" encoding="UTF-8"?>
<svg width="25" height="24" viewBox="0 0 25 24" fill="none" xmlns="http://www.w3.org/2000/svg">
<path d="M16.1447 3V5.96174" stroke="#000000" stroke-width="1.5" stroke-linecap="round" stroke-linejoin="round"></path>
<path d="M8.8737 3V5.96174" stroke="#000000" stroke-width="1.5" stroke-linecap="round" stroke-linejoin="round"></path>
<path fill-rule="evenodd" clip-rule="evenodd" d="M16.3184 4.42188H8.69804C6.05446 4.42188 4.4043 5.89399 4.4043 8.59984V16.7456C4.4043 19.4943 6.05446 21.0004 8.69804 21.0004H16.3106C18.962 21.0004 20.6044 19.5205 20.6044 16.8137V8.59984C20.6121 5.89399 18.9698 4.42188 16.3184 4.42188Z" stroke="#000000" stroke-width="1.5" stroke-linecap="round" stroke-linejoin="round"></path>
<path d="M9.08815 16.0653C9.41507 16.3923 9.86653 16.5946 10.3657 16.5946C11.363 16.5946 12.1705 15.7871 12.1705 14.7898C12.1705 13.7934 11.363 12.9849 10.3657 12.9849L12.1754 10.7422H9.02588" stroke="#000000" stroke-width="1.5" stroke-linecap="round" stroke-linejoin="round"></path>
<path d="M14.7612 11.6568L15.9804 10.7422V16.5927" stroke="#000000" stroke-width="1.5" stroke-linecap="round" stroke-linejoin="round"></path>
</svg>