<?xml version="1.0" encoding="utf-8"?>
<svg viewBox="125.067 24.675 249.935 169.579" xmlns="http://www.w3.org/2000/svg">
  <g transform="matrix(1, 0, 0, 1, 0.18899300694465637, -1.9050049781799245)" style="">
    <title>Page View</title>
    <path style="fill: none; stroke: rgb(0, 0, 0); stroke-miterlimit: 7.65; stroke-width: 3px;" d="M 144.234 117.3 C 144.234 117.3 169.146 82.663 188.162 82.112 C 200.401 81.757 216.049 123.031 236.298 120.895 C 268.56 117.491 266.013 48.965 298.414 50.702 C 316.628 51.677 318.213 92.805 336.366 94.545 C 345.337 95.405 355.836 76.231 355.836 76.231"/>
    <path style="fill: none; stroke-width: 3px; stroke: rgb(138, 138, 138);" d="M 144.76 134.908 C 144.583 134.908 144.234 59.075 144.234 59.075 C 144.234 48.029 153.188 39.075 164.234 39.075 L 335.836 39.075 C 346.882 39.075 355.836 48.029 355.836 59.075 L 355.836 134.93"/>
    <rect x="138.527" y="134.93" width="223.016" height="42.898" style="fill: none; stroke-width: 3px; stroke: rgb(138, 138, 138);" rx="6.233" ry="6.233"/>
  </g>
</svg>