<?xml version="1.0" encoding="UTF-8"?>
<svg width="25" height="24" viewBox="0 0 25 24" fill="none" xmlns="http://www.w3.org/2000/svg">
<path opacity="0.4" fill-rule="evenodd" clip-rule="evenodd" d="M7.67418 8.94712L9.92184 10.6681C10.1444 10.8376 10.4348 10.8871 10.7007 10.8014L13.4275 9.92605C13.867 9.77994 14.3425 10.0171 14.4889 10.4565C14.5493 10.6372 14.5459 10.8322 14.4808 11.0107L13.5005 13.6782C13.4035 13.9392 13.443 14.2313 13.6063 14.456L15.2604 16.7435C15.5306 17.1278 15.4374 17.6592 15.0534 17.9294C14.9013 18.036 14.72 18.0899 14.5349 18.0842L11.6835 18.013C11.403 18.0061 11.1369 18.1362 10.9694 18.3607L9.26648 20.6511C8.98917 21.0305 8.4577 21.1138 8.0773 20.8374C7.92846 20.7276 7.81795 20.5727 7.76395 20.3955L6.98343 17.6831C6.90662 17.4158 6.70065 17.2045 6.43644 17.1201L3.72966 16.2483C3.28826 16.1056 3.04688 15.6322 3.18937 15.1916C3.24837 15.0113 3.36656 14.8556 3.52475 14.7509L5.89465 13.1427C6.1265 12.9865 6.26705 12.7265 6.27091 12.4477L6.30242 9.61531C6.31444 9.14052 6.7088 8.76647 7.1838 8.77784C7.35971 8.78236 7.53213 8.84181 7.67418 8.94712Z" stroke="#000000" stroke-width="1.5" stroke-linecap="round" stroke-linejoin="round"></path>
<path d="M14.459 3.00049L11.4736 5.98575" stroke="#000000" stroke-width="1.5" stroke-linecap="round" stroke-linejoin="round"></path>
<path d="M19.3991 4.80273L17.9922 6.21007" stroke="#000000" stroke-width="1.5" stroke-linecap="round" stroke-linejoin="round"></path>
<path d="M21.0792 9.78149L17.8965 12.9643" stroke="#000000" stroke-width="1.5" stroke-linecap="round" stroke-linejoin="round"></path>
</svg>