<svg width="24px"  height="24px"  viewBox="0 0 24 24" fill="none" xmlns="http://www.w3.org/2000/svg">
<path fill-rule="evenodd" clip-rule="evenodd" d="M16.2944 9.4751H11.6104C11.1964 9.4751 10.8604 9.1391 10.8604 8.7251C10.8604 8.3111 11.1964 7.9751 11.6104 7.9751H16.2944C16.7084 7.9751 17.0444 8.3111 17.0444 8.7251C17.0444 9.1391 16.7084 9.4751 16.2944 9.4751ZM14.0024 13.6051H11.6104C11.1964 13.6051 10.8604 13.2691 10.8604 12.8551C10.8604 12.4411 11.1964 12.1051 11.6104 12.1051H14.0024C14.4164 12.1051 14.7524 12.4411 14.7524 12.8551C14.7524 13.2691 14.4164 13.6051 14.0024 13.6051Z" fill="#000000" />
<path opacity="0.4" fill-rule="evenodd" clip-rule="evenodd" d="M21.1726 12.3639C21.1725 12.5716 20.9656 12.7169 20.7624 12.6743C19.7308 12.4583 18.6055 12.7728 17.8169 13.6078L14.7449 17.0018C14.2049 17.6078 13.8599 18.3878 13.7739 19.1958L13.6839 20.0238C13.6699 20.1511 13.6643 20.2778 13.6667 20.4033C13.6702 20.5857 13.5309 20.7472 13.3486 20.7469L5.06658 20.7351C5.05767 20.7354 5.04873 20.7355 5.03976 20.7355C4.14576 20.7355 3.30376 20.3925 2.66976 19.7705C2.02776 19.1235 1.67676 18.2795 1.67676 17.3855V10.1355C1.67676 9.45753 2.00976 8.85153 2.56776 8.51353C3.08576 8.19953 3.71876 8.17953 4.25776 8.45953L4.91076 8.80053C5.09276 8.89453 5.30976 8.90353 5.51876 8.81353L6.74476 8.26153C6.79508 8.24022 6.84516 8.22398 6.89504 8.21228V4.84502C6.89504 4.17202 7.22804 3.56502 7.78504 3.22302C8.30404 2.90802 8.93404 2.88302 9.47004 3.15702L10.136 3.51502C10.309 3.60202 10.52 3.60802 10.719 3.52002L12.567 2.70002C13.516 2.28702 14.557 2.28602 15.501 2.69802L17.351 3.51902C17.548 3.60602 17.761 3.60402 17.949 3.50802L18.588 3.16502C19.141 2.88302 19.77 2.90602 20.289 3.22202C20.845 3.56202 21.177 4.16902 21.177 4.84502L21.1726 12.3639ZM6.11476 10.1895L6.89404 9.83843V17.385C6.89404 18.405 6.06204 19.235 5.04004 19.235C5.03215 19.235 5.02428 19.2351 5.01645 19.2354C4.52617 19.2295 4.0664 19.0393 3.72776 18.7065C3.37176 18.3495 3.17676 17.8795 3.17676 17.3855V10.1355C3.17676 9.91453 3.30576 9.82053 3.34476 9.79653C3.45154 9.73128 3.53486 9.77453 3.56282 9.78904L3.56376 9.78953L4.22176 10.1325C4.80276 10.4305 5.48676 10.4535 6.11476 10.1895Z" fill="#000000" />
<path d="M15.6915 21.2624C15.9305 21.4884 16.2395 21.6104 16.5595 21.6104C16.6315 21.6104 16.7025 21.6044 16.7735 21.5914L17.5765 21.4614C18.0895 21.3774 18.5655 21.1144 18.9125 20.7234L21.9275 17.3884C22.1965 17.1024 22.3375 16.7274 22.3225 16.3324C22.3075 15.9364 22.1395 15.5724 21.8515 15.3064L21.1105 14.6164C20.5155 14.0674 19.5815 14.1054 19.0215 14.6994L15.9595 18.0814C15.6425 18.4374 15.4405 18.8954 15.3885 19.3714L15.2995 20.2004C15.2565 20.5994 15.3985 20.9864 15.6915 21.2624Z" fill="#000000" />
</svg>