<svg width="24px"  height="24px"  viewBox="0 0 25 24" fill="none" xmlns="http://www.w3.org/2000/svg">
<path fill-rule="evenodd" clip-rule="evenodd" d="M18.6256 15.7344C16.8546 15.7344 15.4146 17.1744 15.4146 18.9454C15.4146 20.7154 16.8546 22.1564 18.6256 22.1564C20.3966 22.1564 21.8366 20.7154 21.8366 18.9454C21.8366 17.1744 20.3966 15.7344 18.6256 15.7344Z" fill="#000000" />
<path fill-rule="evenodd" clip-rule="evenodd" d="M16.1814 10.5039H7.6814C7.2714 10.5039 6.9314 10.1639 6.9314 9.75391C6.9314 9.34391 7.2714 9.00391 7.6814 9.00391H16.1814C16.5914 9.00391 16.9314 9.34391 16.9314 9.75391C16.9314 10.1639 16.5914 10.5039 16.1814 10.5039Z" fill="#000000" />
<path opacity="0.4" d="M7.82425 2.00982C7.97611 2.14707 8.07153 2.3456 8.07153 2.56641V5.99702C8.07153 6.41124 7.73575 6.74702 7.32153 6.74702C6.90732 6.74702 6.57153 6.41124 6.57153 5.99702V3.88318C6.53172 3.80169 6.43826 3.75387 6.34387 3.78263C4.43568 4.36393 3.33154 5.91079 3.33154 8.19375V16.3438C3.33154 19.3237 5.12154 21.0938 8.12154 21.0938H13.6723C13.8199 21.0938 13.9173 20.9389 13.8615 20.8023C13.6232 20.2185 13.4915 19.5794 13.4915 18.9037C13.4915 16.0938 15.7715 13.8138 18.5815 13.8138C19.1657 13.8138 19.7284 13.9141 20.2514 14.0966C20.3861 14.1436 20.5315 14.0465 20.5315 13.9037V8.20375C20.5315 6.78375 20.1115 5.61375 19.3015 4.80375C18.5715 4.07375 17.5415 3.66375 16.3115 3.56375V2.59375C16.3115 2.18375 15.9815 1.84375 15.5615 1.84375C15.39 1.84375 15.2308 1.90323 15.1036 2.00245C15.2602 2.13991 15.3591 2.34161 15.3591 2.56641V5.99702C15.3591 6.41124 15.0233 6.74702 14.6091 6.74702C14.1949 6.74702 13.8591 6.41124 13.8591 5.99702V3.6926C13.8442 3.59694 13.7614 3.52375 13.6615 3.52375H9.04154V2.59375C9.04154 2.18375 8.71154 1.84375 8.29154 1.84375C8.11584 1.84375 7.95299 1.90619 7.82425 2.00982Z" fill="#000000" />
<path d="M9.01929 2.56641C9.01929 2.15219 8.6835 1.81641 8.26929 1.81641C7.85507 1.81641 7.51929 2.15219 7.51929 2.56641V5.99702C7.51929 6.41124 7.85507 6.74702 8.26929 6.74702C8.6835 6.74702 9.01929 6.41124 9.01929 5.99702V2.56641Z" fill="#000000" />
<path d="M16.3069 2.56641C16.3069 2.15219 15.9711 1.81641 15.5569 1.81641C15.1427 1.81641 14.8069 2.15219 14.8069 2.56641V5.99702C14.8069 6.41124 15.1427 6.74702 15.5569 6.74702C15.9711 6.74702 16.3069 6.41124 16.3069 5.99702V2.56641Z" fill="#000000" />
</svg>