<svg width="24px"  height="24px"  viewBox="0 0 24 24" fill="none" xmlns="http://www.w3.org/2000/svg">
<g opacity="0.4">
<path d="M11.9996 2C12.5519 2 12.9996 2.44772 12.9996 3V6.59985C12.9996 7.15213 12.5519 7.59985 11.9996 7.59985C11.4473 7.59985 10.9996 7.15213 10.9996 6.59985V3C10.9996 2.44772 11.4473 2 11.9996 2Z" fill="#000000" />
<path d="M3 11C2.44772 11 2 11.4477 2 12C2 12.5523 2.44772 13 3 13H6.59985C7.15213 13 7.59985 12.5523 7.59985 12C7.59985 11.4477 7.15213 11 6.59985 11H3Z" fill="#000000" />
<path d="M17.4001 11C16.8479 11 16.4001 11.4477 16.4001 12C16.4001 12.5523 16.8479 13 17.4001 13H21C21.5523 13 22 12.5523 22 12C22 11.4477 21.5523 11 21 11H17.4001Z" fill="#000000" />
<path d="M12.9996 17.4004C12.9996 16.8481 12.5519 16.4004 11.9996 16.4004C11.4473 16.4004 10.9996 16.8481 10.9996 17.4004V21.0002C10.9996 21.5525 11.4473 22.0002 11.9996 22.0002C12.5519 22.0002 12.9996 21.5525 12.9996 21.0002V17.4004Z" fill="#000000" />
</g>
<path fill-rule="evenodd" clip-rule="evenodd" d="M11.9996 4C7.5812 4 4 7.5812 4 11.9996C4 16.418 7.5812 19.9992 11.9996 19.9992C16.418 19.9992 19.9992 16.418 19.9992 11.9996C19.9992 7.5812 16.418 4 11.9996 4ZM2 11.9996C2 6.47663 6.47663 2 11.9996 2C17.5226 2 21.9992 6.47663 21.9992 11.9996C21.9992 17.5226 17.5226 21.9992 11.9996 21.9992C6.47663 21.9992 2 17.5226 2 11.9996Z" fill="#000000" />
</svg>