<svg width="24px"  height="24px"  viewBox="0 0 24 25" fill="none" xmlns="http://www.w3.org/2000/svg">
<path d="M8.79102 9.50598L8.79102 11.302C8.79102 11.68 8.57802 12.025 8.24102 12.195C7.90302 12.365 7.50101 12.332 7.19701 12.107L3.40602 9.31098C3.38901 9.29698 3.38202 9.27498 3.36501 9.26098C3.28701 9.19598 3.22501 9.11798 3.17002 9.03098C3.14802 8.99498 3.11802 8.96598 3.10002 8.92698C3.04002 8.79798 3.00002 8.65798 3.00002 8.50598C3.00002 8.35398 3.04002 8.21298 3.10002 8.08398C3.11802 8.04598 3.14802 8.01698 3.17002 7.97998C3.22502 7.89398 3.28701 7.81598 3.36501 7.74998C3.38202 7.73598 3.38902 7.71398 3.40602 7.70098L7.19701 4.90398C7.37201 4.77498 7.58102 4.70898 7.79102 4.70898C7.94402 4.70898 8.09902 4.74498 8.24102 4.81598C8.57802 4.98598 8.79102 5.33198 8.79102 5.70898L8.79102 7.50598L8.79102 9.50598Z" fill="#000000" />
<path opacity="0.4" d="M6.42 19.7919L14.857 19.7919C18.244 19.7919 21 17.0359 21 13.6479C21 10.2609 18.244 7.50586 14.857 7.50586L8.791 7.50586L8.791 9.50586L14.857 9.50586C17.142 9.50586 19 11.3639 19 13.6479C19 15.9329 17.142 17.7919 14.857 17.7919L6.42 17.7919C5.868 17.7919 5.42 18.2399 5.42 18.7919C5.42 19.3439 5.868 19.7919 6.42 19.7919Z" fill="#000000" />
</svg>