<svg width="24px"  height="24px"  viewBox="0 0 25 24" fill="none" xmlns="http://www.w3.org/2000/svg">
<path fill-rule="evenodd" clip-rule="evenodd" d="M17.8872 7.01312C17.8872 4.73512 16.4212 3.20312 14.2412 3.20312H6.24419C4.06219 3.20312 2.59619 4.73512 2.59619 7.01312C2.59619 7.09597 2.66335 7.16313 2.74619 7.16313H17.7372C17.82 7.16313 17.8872 7.09597 17.8872 7.01312Z" fill="#000000" />
<path fill-rule="evenodd" clip-rule="evenodd" d="M21.9096 9.75706C21.4126 8.92306 20.5906 8.36206 19.5316 8.13506C19.3655 8.09906 19.2086 8.22561 19.2086 8.39555V12.4821C19.2086 15.3141 17.2976 17.2921 14.5596 17.2921H7.11033C6.88137 17.2921 6.7405 17.5369 6.88049 17.7181C7.37546 18.3587 8.10193 18.8246 9.01755 19.0221L16.8356 20.6991C17.1386 20.7641 17.4346 20.7961 17.7206 20.7961C19.4396 20.7951 20.7876 19.6491 21.1976 17.7371L22.2956 12.6241C22.5236 11.5561 22.3906 10.5651 21.9096 9.75706Z" fill="#000000" />
<path opacity="0.4" fill-rule="evenodd" clip-rule="evenodd" d="M17.8872 12.2441V8.96406C17.8872 8.79838 17.7529 8.66406 17.5872 8.66406H2.89619C2.73051 8.66406 2.59619 8.79838 2.59619 8.96406V12.2441C2.59619 14.5221 4.06219 16.0541 6.24419 16.0541H14.2402C16.4212 16.0541 17.8872 14.5221 17.8872 12.2441Z" fill="#000000" />
</svg>