<svg width="24px"  height="24px"  viewBox="0 0 25 24" fill="none" xmlns="http://www.w3.org/2000/svg">
<path opacity="0.4" fill-rule="evenodd" clip-rule="evenodd" d="M17.535 4.03906H7.464C4.794 4.03906 3 5.91606 3 8.70906V15.2891C3 18.0821 4.794 19.9591 7.464 19.9591H17.534C20.205 19.9591 22 18.0821 22 15.2891V8.70906C22 5.91606 20.205 4.03906 17.535 4.03906Z" fill="#000000" />
<path d="M7.4502 10.2578H17.5482C17.9622 10.2578 18.2982 9.92181 18.2982 9.50781C18.2982 9.09381 17.9622 8.75781 17.5482 8.75781H7.4502C7.0362 8.75781 6.7002 9.09381 6.7002 9.50781C6.7002 9.92181 7.0362 10.2578 7.4502 10.2578Z" fill="#000000" />
</svg>