<svg width="24px"  height="24px"  viewBox="0 0 25 24" fill="none" xmlns="http://www.w3.org/2000/svg">
<path opacity="0.4" fill-rule="evenodd" clip-rule="evenodd" d="M3.30098 10.5898C3.13529 10.5898 3.00098 10.7242 3.00098 10.8898V15.2898C3.00098 18.0828 4.79498 19.9598 7.46398 19.9598H17.534C20.205 19.9598 21.999 18.0828 21.999 15.2898V10.8898C21.999 10.7242 21.8647 10.5898 21.699 10.5898H3.30098Z" fill="#000000" />
<path fill-rule="evenodd" clip-rule="evenodd" d="M21.699 9.08906C21.8647 9.08906 21.999 8.95475 21.999 8.78906V8.70906C21.999 5.91606 20.205 4.03906 17.535 4.03906H7.46398C4.79498 4.03906 3.00098 5.91606 3.00098 8.70906V8.78906C3.00098 8.95475 3.13529 9.08906 3.30098 9.08906H21.699Z" fill="#000000" />
<path d="M11.2819 15.9219H12.7099C13.1239 15.9219 13.4599 15.5859 13.4599 15.1719C13.4599 14.7579 13.1239 14.4219 12.7099 14.4219H11.2819C10.8679 14.4219 10.5319 14.7579 10.5319 15.1719C10.5319 15.5859 10.8679 15.9219 11.2819 15.9219Z" fill="#000000" />
<path d="M7.39795 15.9219H8.82595C9.23995 15.9219 9.57595 15.5859 9.57595 15.1719C9.57595 14.7579 9.23995 14.4219 8.82595 14.4219H7.39795C6.98395 14.4219 6.64795 14.7579 6.64795 15.1719C6.64795 15.5859 6.98395 15.9219 7.39795 15.9219Z" fill="#000000" />
</svg>