<svg width="24px"  height="24px"  viewBox="0 0 25 24" fill="none" xmlns="http://www.w3.org/2000/svg">
<path opacity="0.4" fill-rule="evenodd" clip-rule="evenodd" d="M20.75 9.62541C20.75 9.79109 20.6157 9.92541 20.45 9.92541H4.55C4.38431 9.92541 4.25 9.79109 4.25 9.62541V8.01141C4.25 6.04241 5.852 4.44141 7.82 4.44141H17.18C19.148 4.44141 20.75 6.04241 20.75 8.01141V9.62541ZM17.18 2.94141H7.82C5.024 2.94141 2.75 5.21541 2.75 8.01141V15.9914C2.75 18.7874 5.024 21.0624 7.82 21.0624H17.18C18.958 21.0624 20.519 20.1384 21.424 18.7494L21.494 18.7134V18.6214C21.964 17.8524 22.25 16.9574 22.25 15.9914V8.01141C22.25 5.21541 19.976 2.94141 17.18 2.94141Z" fill="#000000" />
<path fill-rule="evenodd" clip-rule="evenodd" d="M11.4985 5.76335C10.4999 6.38884 8.00485 7.99173 6.87652 8.7175C6.70871 8.82543 6.78682 9.08435 6.98634 9.08435H17.4752C17.711 9.08435 17.8547 8.82475 17.7294 8.62495L16.6935 6.97335C15.5915 5.20735 13.2645 4.66535 11.4985 5.76335Z" fill="#000000" />
<path d="M14.896 14.8243C14.896 15.7023 15.606 16.4113 16.482 16.4113C17.358 16.4113 18.069 15.7023 18.069 14.8243C18.069 13.9473 17.358 13.2383 16.482 13.2383C15.606 13.2383 14.896 13.9473 14.896 14.8243Z" fill="#000000" />
</svg>