<svg width="24px"  height="24px"  viewBox="0 0 25 24" fill="none" xmlns="http://www.w3.org/2000/svg">
<path opacity="0.4" fill-rule="evenodd" clip-rule="evenodd" d="M3.3 10.5781C3.13431 10.5781 3 10.7124 3 10.8781V15.2881C3 18.0811 4.794 19.9581 7.464 19.9581H17.534C20.205 19.9581 22 18.0811 22 15.2881V10.8781C22 10.7124 21.8657 10.5781 21.7 10.5781H3.3Z" fill="#000000" />
<path fill-rule="evenodd" clip-rule="evenodd" d="M21.7 9.07906C21.8657 9.07906 22 8.94475 22 8.77906V8.70906C22 5.91606 20.206 4.03906 17.535 4.03906H7.464C4.794 4.03906 3 5.91606 3 8.70906V8.77906C3 8.94475 3.13431 9.07906 3.3 9.07906H21.7Z" fill="#000000" />
<path fill-rule="evenodd" clip-rule="evenodd" d="M10.9008 17.3896C10.4768 17.3896 10.0838 17.2696 9.73779 17.0766C9.38679 17.2676 8.99379 17.3786 8.57979 17.3786C7.25079 17.3786 6.16879 16.2976 6.16879 14.9696C6.16879 13.6406 7.25079 12.5596 8.57979 12.5596C8.99179 12.5596 9.38779 12.6726 9.74379 12.8686C10.0888 12.6776 10.4798 12.5596 10.9008 12.5596C12.2318 12.5596 13.3138 13.6406 13.3138 14.9696C13.3138 16.3036 12.2318 17.3896 10.9008 17.3896ZM8.66469 14.0766C8.55369 14.3526 8.48869 14.6536 8.48869 14.9696C8.48869 15.2856 8.55369 15.5866 8.66369 15.8636C8.63469 15.8656 8.60969 15.8786 8.57969 15.8786C8.07769 15.8786 7.66869 15.4706 7.66869 14.9696C7.66869 14.4676 8.07769 14.0596 8.57969 14.0596C8.60969 14.0596 8.63569 14.0736 8.66469 14.0766ZM9.98877 14.9696C9.98877 14.4676 10.3978 14.0596 10.9008 14.0596C11.4038 14.0596 11.8138 14.4676 11.8138 14.9696C11.8138 15.4766 11.4038 15.8896 10.9008 15.8896C10.6608 15.8896 10.4458 15.7916 10.2828 15.6376C10.2828 15.6376 10.2818 15.6346 10.2798 15.6336C10.2728 15.6256 10.2618 15.6236 10.2538 15.6156C10.0898 15.4496 9.98877 15.2216 9.98877 14.9696Z" fill="#000000" />
</svg>