<svg width="24px"  height="24px"  viewBox="0 0 25 24" fill="none" xmlns="http://www.w3.org/2000/svg">
<path opacity="0.4" fill-rule="evenodd" clip-rule="evenodd" d="M22 6.99859V14.4186C22 16.4286 20.74 18.1386 18.97 18.7986C18.5 18.9886 18 19.0886 17.47 19.0986C17.42 19.1086 17.37 19.1086 17.32 19.1086H7.68C7.63 19.1086 7.59 19.1086 7.54 19.0986C7.01 19.0886 6.51 18.9886 6.04 18.8086C4.27 18.1486 3 16.4286 3 14.4186V6.99859C3 4.40859 5.1 2.30859 7.68 2.30859H17.32C19.9 2.30859 22 4.40859 22 6.99859Z" fill="#000000" />
<path fill-rule="evenodd" clip-rule="evenodd" d="M18.8695 20.1925H16.6065C16.1925 20.1925 15.8565 20.5285 15.8565 20.9425C15.8565 21.3565 16.1925 21.6925 16.6065 21.6925H18.8695C19.2835 21.6925 19.6195 21.3565 19.6195 20.9425C19.6195 20.5285 19.2835 20.1925 18.8695 20.1925Z" fill="#000000" />
<path fill-rule="evenodd" clip-rule="evenodd" d="M8.39728 20.1925H6.13428C5.72028 20.1925 5.38428 20.5285 5.38428 20.9425C5.38428 21.3565 5.72028 21.6925 6.13428 21.6925H8.39728C8.81128 21.6925 9.14728 21.3565 9.14728 20.9425C9.14728 20.5285 8.81128 20.1925 8.39728 20.1925Z" fill="#000000" />
<path fill-rule="evenodd" clip-rule="evenodd" d="M18.0811 11.6742L17.7001 11.4522C17.8281 10.9662 17.8281 10.4582 17.7001 9.97219L18.0801 9.75119C18.4381 9.54319 18.5601 9.08419 18.3521 8.72619C18.1441 8.36819 17.6851 8.24519 17.3261 8.45419L16.9641 8.66519L16.9611 8.66219C16.5981 8.30019 16.1441 8.06919 15.6621 7.94619V7.49219C15.6621 7.07819 15.3261 6.74219 14.9121 6.74219C14.4981 6.74219 14.1621 7.07819 14.1621 7.49219V7.94519C13.6801 8.06819 13.2251 8.29919 12.8631 8.66319L12.8601 8.66619L12.4961 8.45419C12.1391 8.24619 11.6801 8.36719 11.4711 8.72619C11.2631 9.08319 11.3841 9.54319 11.7421 9.75119L12.1251 9.97319C11.9971 10.4582 11.9981 10.9652 12.1251 11.4512L11.7421 11.6742C11.3841 11.8832 11.2631 12.3422 11.4711 12.7002C11.6111 12.9392 11.8621 13.0722 12.1201 13.0722C12.2481 13.0722 12.3781 13.0392 12.4971 12.9712L12.8611 12.7582C12.8621 12.7592 12.8628 12.7604 12.8636 12.7617C12.8643 12.7629 12.8651 12.7642 12.8661 12.7652C13.2371 13.1322 13.6881 13.3662 14.1621 13.4922V13.9332C14.1621 14.3472 14.4981 14.6832 14.9121 14.6832C15.3261 14.6832 15.6621 14.3472 15.6621 13.9332V13.4912C16.1371 13.3652 16.5891 13.1302 16.9611 12.7622L16.9631 12.7592L17.3261 12.9712C17.4451 13.0392 17.5751 13.0722 17.7031 13.0722C17.9611 13.0722 18.2121 12.9382 18.3511 12.7002C18.5601 12.3422 18.4391 11.8832 18.0811 11.6742ZM8.80009 13.1722H8.41009C8.21109 13.1722 8.04909 13.0102 8.04909 12.8112V8.61219C8.04909 8.41019 8.20809 8.25219 8.41009 8.25219H8.80009C9.21409 8.25219 9.55009 7.91619 9.55009 7.50219C9.55009 7.08819 9.21409 6.75219 8.80009 6.75219H8.41009C7.38409 6.75219 6.54909 7.58719 6.54909 8.61219V12.8112C6.54909 13.8372 7.38409 14.6722 8.41009 14.6722H8.80009C9.21409 14.6722 9.55009 14.3362 9.55009 13.9222C9.55009 13.5082 9.21409 13.1722 8.80009 13.1722ZM13.924 9.72265C14.188 9.45865 14.539 9.31265 14.912 9.31265C15.285 9.31265 15.636 9.45865 15.9 9.72265C16.445 10.2687 16.445 11.1567 15.903 11.6987C15.63 11.9677 15.272 12.1017 14.914 12.1027H14.912L14.91 12.1037C14.552 12.1037 14.195 11.9697 13.924 11.7027C13.38 11.1567 13.38 10.2677 13.924 9.72265Z" fill="#000000" />
</svg>