<svg width="24px"  height="24px"  viewBox="0 0 25 24" fill="none" xmlns="http://www.w3.org/2000/svg">
<path opacity="0.4" fill-rule="evenodd" clip-rule="evenodd" d="M22 7.47516V14.8952C22 16.9052 20.74 18.6152 18.97 19.2752C18.5 19.4652 18 19.5652 17.47 19.5752C17.42 19.5852 17.37 19.5852 17.32 19.5852H7.68C7.63 19.5852 7.59 19.5852 7.54 19.5752C7.01 19.5652 6.51 19.4652 6.04 19.2852C4.27 18.6252 3 16.9052 3 14.8952V7.47516C3 4.88516 5.1 2.78516 7.68 2.78516H17.32C19.9 2.78516 22 4.88516 22 7.47516Z" fill="#000000" />
<path fill-rule="evenodd" clip-rule="evenodd" d="M12.502 12.6506C11.69 12.6506 11.03 11.9916 11.03 11.1816C11.03 10.3826 11.673 9.73256 12.468 9.71456C12.48 9.71456 12.489 9.72056 12.5 9.72056C12.512 9.72056 12.521 9.71456 12.533 9.71456C13.329 9.73156 13.972 10.3816 13.972 11.1816C13.972 11.9916 13.313 12.6506 12.502 12.6506ZM16.579 10.4316H15.364C15.093 9.39856 14.284 8.58956 13.25 8.31856V7.10156C13.25 6.68756 12.914 6.35156 12.5 6.35156C12.086 6.35156 11.75 6.68756 11.75 7.10156V8.31956C10.718 8.59156 9.90904 9.39956 9.63804 10.4316H8.42404C8.01004 10.4316 7.67404 10.7676 7.67404 11.1816C7.67404 11.5956 8.01004 11.9316 8.42404 11.9316H9.63804C9.90904 12.9626 10.718 13.7706 11.75 14.0426V15.2616C11.75 15.6756 12.086 16.0116 12.5 16.0116C12.914 16.0116 13.25 15.6756 13.25 15.2616V14.0436C14.283 13.7726 15.093 12.9646 15.364 11.9316H16.579C16.993 11.9316 17.329 11.5956 17.329 11.1816C17.329 10.7676 16.993 10.4316 16.579 10.4316Z" fill="#000000" />
<path fill-rule="evenodd" clip-rule="evenodd" d="M6.04004 20.4656C6.04004 20.8756 6.37004 21.2156 6.79004 21.2156C7.20004 21.2156 7.54004 20.8756 7.54004 20.4656V19.5756C7.01004 19.5656 6.51004 19.4656 6.04004 19.2856V20.4656Z" fill="#000000" />
<path fill-rule="evenodd" clip-rule="evenodd" d="M17.4701 19.5759V20.4659C17.4701 20.8759 17.8001 21.2159 18.2201 21.2159C18.6301 21.2159 18.9701 20.8759 18.9701 20.4659V19.2759C18.5001 19.4659 18.0001 19.5659 17.4701 19.5759Z" fill="#000000" />
</svg>