<svg width="24px"  height="24px"  viewBox="0 0 25 24" fill="none" xmlns="http://www.w3.org/2000/svg">
<g opacity="0.4">
<path fill-rule="evenodd" clip-rule="evenodd" d="M16.351 4.84882H16.376C17.1852 4.84882 17.9593 4.99727 18.678 5.26265C18.7535 5.29052 18.8308 5.22412 18.8107 5.14624C18.2838 3.10507 16.7458 1.93826 14.822 2.22182L7.88405 3.22182C6.45526 3.42796 5.45209 4.36192 5.04869 5.75316C5.02346 5.8402 5.12047 5.90883 5.19765 5.86132C6.2289 5.22653 7.4173 4.8835 8.65905 4.87882L16.351 4.84882Z" fill="#000000" />
<path fill-rule="evenodd" clip-rule="evenodd" d="M14.2677 14.2127C14.2677 12.4807 15.6797 11.0717 17.4147 11.0717H21.2007C21.3675 11.0717 21.5032 10.9352 21.4919 10.7688C21.309 8.08004 19.0639 5.95166 16.3337 5.95166H16.3137L8.62168 5.98166C7.24068 5.98666 5.94368 6.52966 4.97168 7.51066C3.99868 8.49166 3.46768 9.79266 3.47368 11.1737L3.49768 16.6737C3.50968 19.5167 5.82768 21.8217 8.67068 21.8217H8.69068L16.3847 21.7927C18.8516 21.7736 20.8957 20.0177 21.3949 17.7034C21.4335 17.5245 21.2926 17.3617 21.1096 17.3617H17.4147C15.6797 17.3617 14.2677 15.9487 14.2677 14.2127Z" fill="#000000" />
</g>
<path fill-rule="evenodd" clip-rule="evenodd" d="M17.9515 14.1601C17.9515 14.5741 17.6175 14.9101 17.2035 14.9101H17.2005C16.7865 14.9101 16.4505 14.5741 16.4505 14.1601C16.4505 13.7461 16.7865 13.4101 17.2005 13.4101C17.6145 13.4101 17.9515 13.7461 17.9515 14.1601ZM15.7675 14.2111C15.7675 15.1201 16.5065 15.8601 17.4145 15.8601H21.2261C21.3923 15.8601 21.5268 15.725 21.5261 15.5587L21.5138 12.8688C21.5131 12.7036 21.379 12.5701 21.2138 12.5701H17.4145C16.5065 12.5701 15.7675 13.3061 15.7675 14.2111Z" fill="#000000" />
<path d="M12.8265 11.25H8.02051C7.60651 11.25 7.27051 10.914 7.27051 10.5C7.27051 10.086 7.60651 9.75 8.02051 9.75H12.8265C13.2405 9.75 13.5765 10.086 13.5765 10.5C13.5765 10.914 13.2405 11.25 12.8265 11.25Z" fill="#000000" />
</svg>