<svg width="24px"  height="24px"  viewBox="0 0 24 24" fill="none" xmlns="http://www.w3.org/2000/svg">
<path opacity="0.4" d="M4.29888 19.4115C5.82788 20.9405 7.83788 21.7065 9.84788 21.7065C11.8579 21.7065 13.8679 20.9405 15.3979 19.4115L21.7069 13.1025C22.0979 12.7115 22.0979 12.0785 21.7069 11.6875C21.3159 11.2975 20.6829 11.2975 20.2929 11.6875L13.9839 17.9975C11.7039 20.2755 7.99288 20.2775 5.71288 17.9975C4.60788 16.8935 3.99988 15.4245 3.99988 13.8615C3.99988 12.2995 4.60788 10.8305 5.71288 9.72555L4.29888 8.31055C2.81588 9.79455 1.99988 11.7655 1.99988 13.8615C1.99988 15.9585 2.81588 17.9305 4.29888 19.4115Z" fill="#000000" />
<path d="M8.69187 3.91897L4.29887 8.30997L5.71287 9.72497L10.1059 5.33297C11.4469 3.99097 13.7839 3.99097 15.1249 5.33297C15.7949 6.00397 16.1639 6.89397 16.1639 7.84297C16.1639 8.79097 15.7949 9.68197 15.1249 10.352L10.8389 14.638C10.3499 15.128 9.49687 15.128 9.00687 14.638C8.76187 14.393 8.62687 14.067 8.62687 13.721C8.62687 13.375 8.76187 13.049 9.00687 12.804L13.0499 8.75997C13.4399 8.36897 13.4399 7.73597 13.0499 7.34597C12.6589 6.95497 12.0259 6.95497 11.6359 7.34597L7.59187 11.39C6.96987 12.013 6.62687 12.841 6.62687 13.721C6.62687 14.602 6.96987 15.43 7.59187 16.052C8.83787 17.298 11.0089 17.298 12.2539 16.052L16.5389 11.767C17.5869 10.719 18.1639 9.32497 18.1639 7.84297C18.1639 6.35997 17.5869 4.96697 16.5389 3.91897C15.4919 2.86997 14.0979 2.29297 12.6159 2.29297C11.1339 2.29297 9.73987 2.86997 8.69187 3.91897Z" fill="#000000" />
</svg>