<svg width="24px"  height="24px"  viewBox="0 0 24 24" fill="none" xmlns="http://www.w3.org/2000/svg">
<path fill-rule="evenodd" clip-rule="evenodd" d="M6.71973 2.25C6.29973 2.25 5.96973 2.58 5.96973 3V4.82H7.46973V3C7.46973 2.58 7.12973 2.25 6.71973 2.25Z" fill="#000000" />
<path fill-rule="evenodd" clip-rule="evenodd" d="M17.2897 2.25C16.8697 2.25 16.5397 2.58 16.5397 3V7.72H18.0397V3C18.0397 2.58 17.6997 2.25 17.2897 2.25Z" fill="#000000" />
<path fill-rule="evenodd" clip-rule="evenodd" d="M16.5397 21.0001C16.5397 21.4101 16.8697 21.7501 17.2897 21.7501C17.6997 21.7501 18.0397 21.4101 18.0397 21.0001V19.6501H16.5397V21.0001Z" fill="#000000" />
<path fill-rule="evenodd" clip-rule="evenodd" d="M5.96973 21C5.96973 21.41 6.29973 21.75 6.71973 21.75C7.12973 21.75 7.46973 21.41 7.46973 21V16.75H5.96973V21Z" fill="#000000" />
<g opacity="0.4">
<path fill-rule="evenodd" clip-rule="evenodd" d="M7.81002 4.82031H5.62002C4.46002 4.82031 3.52002 5.76031 3.52002 6.92031V14.6503C3.52002 15.8103 4.46002 16.7503 5.62002 16.7503H7.81002C8.97002 16.7503 9.91002 15.8103 9.91002 14.6503V6.92031C9.91002 5.76031 8.97002 4.82031 7.81002 4.82031Z" fill="#000000" />
<path fill-rule="evenodd" clip-rule="evenodd" d="M18.3801 7.72046H16.1901C15.0301 7.72046 14.0901 8.66046 14.0901 9.82046V17.5405C14.0901 18.7005 15.0301 19.6505 16.1901 19.6505H18.3801C19.5401 19.6505 20.4801 18.7005 20.4801 17.5405V9.82046C20.4801 8.66046 19.5401 7.72046 18.3801 7.72046Z" fill="#000000" />
</g>
</svg>