<svg width="24px"  height="24px"  viewBox="0 0 24 24" fill="none" xmlns="http://www.w3.org/2000/svg">
<path opacity="0.4" fill-rule="evenodd" clip-rule="evenodd" d="M20.1411 14.8906H13.3291C10.8061 14.8906 8.75312 12.8376 8.75312 10.3156V3.64064C8.75312 3.47164 8.66812 3.31464 8.52712 3.22264C8.38712 3.12864 8.20812 3.11564 8.05412 3.18264C5.81612 4.15764 4.05812 5.93364 3.10412 8.18664C2.11612 10.5246 2.09712 13.1066 3.05112 15.4566C4.00512 17.8086 5.81712 19.6456 8.15312 20.6306C9.34612 21.1366 10.6011 21.3886 11.8571 21.3886C13.0641 21.3886 14.2721 21.1566 15.4241 20.6886C17.7751 19.7356 19.6141 17.9226 20.6011 15.5846C20.6671 15.4306 20.6501 15.2536 20.5581 15.1146C20.4651 14.9746 20.3081 14.8906 20.1411 14.8906Z" fill="#000000" />
<path fill-rule="evenodd" clip-rule="evenodd" d="M18.7023 5.44904C16.8313 3.58004 14.5713 2.56504 12.3373 2.61504C11.6963 2.63404 11.1773 3.14804 11.1543 3.80104C11.1373 5.49104 11.1403 8.32504 11.1463 10.236C11.1503 11.62 12.2733 12.745 13.6443 12.745C14.6813 12.756 15.8763 12.762 17.0293 12.762C18.3893 12.762 19.6903 12.753 20.6063 12.728C21.2003 12.629 21.6393 12.119 21.6503 11.515C21.6823 9.65204 20.5253 7.27004 18.7023 5.44904Z" fill="#000000" />
</svg>