<svg width="24px"  height="24px"  viewBox="0 0 24 24" fill="none" xmlns="http://www.w3.org/2000/svg">
<path opacity="0.4" fill-rule="evenodd" clip-rule="evenodd" d="M19.7624 7.82016L14.1884 3.28016C12.9194 2.24516 11.0804 2.24516 9.8124 3.28016L4.2404 7.81916C3.4284 8.47616 2.9624 9.45316 2.9624 10.4982V17.6782C2.9624 19.7842 4.6774 21.4982 6.7844 21.4982H17.2164C19.3234 21.4982 21.0374 19.7842 21.0374 17.6782V10.4982C21.0374 9.45316 20.5724 8.47616 19.7624 7.82016Z" fill="#000000" />
<path fill-rule="evenodd" clip-rule="evenodd" d="M16.314 17.2478C16.314 17.6618 15.978 17.9978 15.564 17.9978C15.15 17.9978 14.814 17.6618 14.814 17.2478V11.2578C14.814 10.8438 15.15 10.5078 15.564 10.5078C15.978 10.5078 16.314 10.8438 16.314 11.2578V17.2478ZM12.781 17.2478C12.781 17.6618 12.445 17.9978 12.031 17.9978C11.617 17.9978 11.281 17.6618 11.281 17.2478V15.2278C11.281 14.8138 11.617 14.4778 12.031 14.4778C12.445 14.4778 12.781 14.8138 12.781 15.2278V17.2478ZM9.18896 17.2478C9.18896 17.6618 8.85296 17.9978 8.43896 17.9978C8.02496 17.9978 7.68896 17.6618 7.68896 17.2478V12.3178C7.68896 11.9038 8.02496 11.5678 8.43896 11.5678C8.85296 11.5678 9.18896 11.9038 9.18896 12.3178V17.2478Z" fill="#000000" />
</svg>